SplineFontDB: 3.2
FontName: Dreluhu-Ming
FullName: Dreluhu Ming
FamilyName: Dreluhu Ming
Weight: Book
Copyright: This uses inspiration and the corner shapes from Noto Serif. Jack Humbert 2019
UComments: "2019-8-23: Created with FontForge (http://fontforge.org)"
Version: 0.3
DefaultBaseFilename: ming
StrokeWidth: 66
ItalicAngle: 0
UnderlinePosition: -400
UnderlineWidth: 50
Ascent: 1200
Descent: 300
InvalidEm: 0
sfntRevision: 0x00004ccd
LayerCount: 2
Layer: 0 0 "Back" 1
Layer: 1 0 "Fore" 0
HasVMetrics: 1
XUID: [1021 647 -312734098 29385]
StyleMap: 0x0040
FSType: 0
OS2Version: 3
OS2_WeightWidthSlopeOnly: 0
OS2_UseTypoMetrics: 0
CreationTime: 1566577596
ModificationTime: 1568430758
PfmFamily: 17
TTFWeight: 400
TTFWidth: 5
LineGap: 135
VLineGap: 135
Panose: 2 1 6 0 3 1 1 1 1 1
OS2TypoAscent: 0
OS2TypoAOffset: 1
OS2TypoDescent: 0
OS2TypoDOffset: 1
OS2TypoLinegap: 135
OS2WinAscent: 0
OS2WinAOffset: 1
OS2WinDescent: 0
OS2WinDOffset: 1
HheadAscent: 0
HheadAOffset: 1
HheadDescent: 0
HheadDOffset: 1
OS2Vendor: 'OLKB'
OS2CodePages: 00020000.00000000
Lookup: 6 0 0 "semivowels" { "semivowels contextual 0"  "semivowels contextual 1"  } ['vert' ('latn' <'dflt' > 'DFLT' <'dflt' > ) 'liga' ('latn' <'dflt' > 'DFLT' <'dflt' > ) 'ss01' ('latn' <'dflt' > 'DFLT' <'dflt' > ) ]
Lookup: 1 0 0 "Single Substitution lookup 1" { "Single Substitution lookup 1 subtable"  } []
Lookup: 1 0 0 "Single Substitution lookup 2" { "Single Substitution lookup 2 subtable"  } []
Lookup: 4 0 1 "diphthongs" { "diphthongs subtable"  } ['vert' ('latn' <'dflt' > 'DFLT' <'dflt' > ) 'liga' ('latn' <'dflt' > 'DFLT' <'dflt' > ) 'ss01' ('latn' <'dflt' > 'DFLT' <'dflt' > ) ]
Lookup: 1 0 0 "v" { "v subtable"  } ['vert' ('latn' <'dflt' > 'DFLT' <'dflt' > ) 'ss01' ('latn' <'dflt' > 'DFLT' <'dflt' > ) ]

StartChar: ny
Encoding: 0 60256 0
Width: 900
VWidth: 800
GlyphClass: 2
Flags: HW
HStem: 525 50<200 700> 825 50<200 700> 1125 50<205 690>
VStem: 100 100<486.426 525 575 825 875 1125> 700 100<493.915 525 575 825 875 1125>
CounterMasks: 1 e0
AnchorPoint: "Above" 0 500 basechar 0
LayerCount: 2
Back
SplineSet
150 1150 m 1
 750 1150 l 1
 750 550 l 1
 150 550 l 1
 150 1150 l 1
150 850 m 1
 750 850 l 1025
EndSplineSet
Fore
SplineSet
200 525 m 1
 200 500 l 2
 200 487.333333333 154.1171875 465 110 465 c 2
 100 465 l 1
 100 1225 l 1
 205 1175 l 1
 686.154929577 1175 l 1
 741 1241 l 1
 879 1134 l 1
 865.174804688 1118 835.549804688 1104 800 1098 c 1
 800 1070 l 1
 800 500 l 2
 800 486.636363636 743.77734375 454 708 454 c 2
 700 454 l 1
 700 525 l 1
 200 525 l 1
200 825 m 1
 200 575 l 1
 700 575 l 1
 700 825 l 1
 200 825 l 1
700 1070 m 1
 700 1125 l 1
 670 1125 l 1
 200 1125 l 1
 200 875 l 1
 700 875 l 1
 700 1070 l 1
EndSplineSet
Substitution2: "Single Substitution lookup 83 subtable" ny.cvc.3
Substitution2: "Single Substitution lookup 72 subtable" ny.cvc.1
Substitution2: "Single Substitution lookup 65 subtable" ny.ccv.2
Substitution2: "Single Substitution lookup 61 subtable" ny.cvc.3
Substitution2: "Single Substitution lookup 57 subtable" ny.cvc.1
Substitution2: "Single Substitution lookup 55 subtable" ny.ccv.1
Substitution2: "Single Substitution lookup 32 subtable" ny.ccv.2
Substitution2: "Single Substitution lookup 19 subtable" ny.ccv.2
EndChar

StartChar: dy
Encoding: 1 60257 1
Width: 900
VWidth: 800
Flags: HW
HStem: 525 50<208 686> 825 50<200 379> 1125 50<212 695>
VStem: 100 100<575 825 875 1125>
CounterMasks: 1 e0
AnchorPoint: "Above" 0 500 basechar 0
LayerCount: 2
Back
SplineSet
450 850 m 1
 150 850 l 1025
750 1150 m 1
 150 1150 l 1
 150 549 l 1
 750 550 l 1025
EndSplineSet
Fore
SplineSet
686 575 m 5
 738 630 l 5
 738 630 797 586 834 552 c 5
 831 534.865384615 821 525 807 525 c 6
 208 525 l 5
 180 478 l 5
 61 550 l 5
 69.775 557 85.375 567 100 573 c 5
 100 1234 l 5
 212 1175 l 5
 695 1175 l 5
 743 1224 l 5
 743 1224 798 1182 832 1150 c 5
 829 1132.8125 819 1125 806 1125 c 6
 200 1125 l 5
 200 875 l 5
 379 875 l 5
 442 949 l 5
 442 949 515 890 559 848 c 5
 556 830.75 533.698242188 825 529 825 c 6
 200 825 l 5
 200 575 l 5
 686 575 l 5
EndSplineSet
Substitution2: "Single Substitution lookup 83 subtable" dy.cvc.3
Substitution2: "Single Substitution lookup 72 subtable" dy.cvc.1
Substitution2: "Single Substitution lookup 65 subtable" dy.ccv.2
Substitution2: "Single Substitution lookup 61 subtable" dy.cvc.3
Substitution2: "Single Substitution lookup 57 subtable" dy.cvc.1
Substitution2: "Single Substitution lookup 55 subtable" dy.ccv.1
Substitution2: "Single Substitution lookup 37 subtable" dy.ccv.2
Substitution2: "Single Substitution lookup 24 subtable" dy.ccv.2
EndChar

StartChar: ty
Encoding: 2 60258 2
Width: 900
VWidth: 800
Flags: HW
HStem: 525 50<129 700> 825 50<429 700> 1125 50<128 690>
VStem: 700 100<459.875 525 575 825 875 1124.71>
CounterMasks: 1 e0
AnchorPoint: "Above" 0 500 basechar 0
LayerCount: 2
Back
SplineSet
450 850 m 1
 750 850 l 1025
150 1150 m 1
 750 1150 l 1
 750 550 l 1
 150 549 l 1025
EndSplineSet
Fore
SplineSet
747 1225 m 1
 842 1141 l 1
 835.853658537 1130.05263158 819.463414634 1120.47368421 800 1115 c 1
 800 475 l 2
 798.438596491 468 746.912280702 450 711 450 c 2
 700 450 l 1
 700 525 l 1
 129 525 l 1
 120 575 l 1
 700 575 l 1
 700 825 l 1
 429 825 l 1
 420 875 l 1
 700 875 l 1
 700 1125 l 1
 128 1125 l 1
 119 1175 l 1
 690 1175 l 1
 747 1225 l 1
EndSplineSet
Substitution2: "Single Substitution lookup 83 subtable" ty.cvc.3
Substitution2: "Single Substitution lookup 72 subtable" ty.cvc.1
Substitution2: "Single Substitution lookup 65 subtable" ty.ccv.2
Substitution2: "Single Substitution lookup 61 subtable" ty.cvc.3
Substitution2: "Single Substitution lookup 57 subtable" ty.cvc.1
Substitution2: "Single Substitution lookup 55 subtable" ty.ccv.1
Substitution2: "Single Substitution lookup 29 subtable" ty.ccv.2
Substitution2: "Single Substitution lookup 16 subtable" ty.ccv.2
EndChar

StartChar: zy
Encoding: 3 60259 3
Width: 900
VWidth: 800
Flags: HW
HStem: 530 44<202 697> 829 45<202 697>
VStem: 100 102<457.762 530 574 829 874 1169.84> 697 102<460.783 530 574 829 874 1169.84>
AnchorPoint: "Above" 0 500 basechar 0
LayerCount: 2
Back
SplineSet
681 850 m 25
 150 850 l 1025
150 1150 m 25
 150 550 l 1
 649.5 550 l 1
 652.5 649 674.5 757 715.5 874 c 128
 756.5 991 801.5 1082 850.5 1147 c 1024
EndSplineSet
Fore
SplineSet
697 574 m 1
 697 829 l 1
 202 829 l 1
 202 574 l 1
 697 574 l 1
799 475 m 5
 799 475 751.981132075 449 710 449 c 6
 697 449 l 5
 697 530 l 1
 202 530 l 1
 202 475 l 2
 202 465 152.754716981 449 112 449 c 2
 100 449 l 1
 100 1211 l 1
 238 1179 l 1
 235 1165 227 1155 202 1151 c 1
 202 874 l 1
 697 874 l 1
 697 1211 l 1
 835 1179 l 1
 832 1165 824 1155 799 1151 c 1
 799 475 l 5
EndSplineSet
Substitution2: "Single Substitution lookup 83 subtable" zy.cvc.3
Substitution2: "Single Substitution lookup 72 subtable" zy.cvc.1
Substitution2: "Single Substitution lookup 65 subtable" zy.ccv.2
Substitution2: "Single Substitution lookup 61 subtable" zy.cvc.3
Substitution2: "Single Substitution lookup 57 subtable" zy.cvc.1
Substitution2: "Single Substitution lookup 55 subtable" zy.ccv.1
Substitution2: "Single Substitution lookup 47 subtable" zy.ccv.2
EndChar

StartChar: sy
Encoding: 4 60260 4
Width: 900
VWidth: 800
Flags: HW
HStem: 555 16<535 580.611> 825 50<198 700> 1125 50<200 691>
VStem: 100 100<678.614 825 875 1125> 700 100<562.136 825 875 1125>
AnchorPoint: "Above" 0 500 basechar 0
LayerCount: 2
Back
SplineSet
219 850 m 5
 750 850 l 1029
750 550 m 5
 750 1150 l 5
 250.5 1150 l 5
 247.5 1051 225.5 943 184.5 826 c 132
 143.5 709 98.5 618 49.5 553 c 1028
EndSplineSet
Fore
SplineSet
198 875 m 5
 700 875 l 5
 700 1125 l 5
 200 1125 l 5
 200 940 l 6
 200 940 200 896.948051948 198 875 c 5
800 578 m 5
 800 578 786.991304348 488 664 478 c 5
 661 499 653.803538948 517.271635346 637 527 c 4
 618 538 589 548 535 555 c 5
 535 571 l 5
 535 571 649.317880795 561 672 561 c 4
 694 561 700 586 700 586 c 6
 700 825 l 5
 197 825 l 5
 187.625 703.132867133 152.46875 578.937062937 22 492 c 5
 8 504 l 5
 71.1279069767 596.870503597 91.8255813953 710.378896882 97 835 c 5
 98 863 l 5
 100 888 100 939 100 939 c 6
 100 1210 l 5
 212 1175 l 5
 691 1175 l 5
 724 1210 l 5
 839 1144 l 5
 833 1136 818 1129 800 1125 c 5
 800 578 l 5
EndSplineSet
Substitution2: "Single Substitution lookup 83 subtable" sy.cvc.3
Substitution2: "Single Substitution lookup 72 subtable" sy.cvc.1
Substitution2: "Single Substitution lookup 65 subtable" sy.ccv.2
Substitution2: "Single Substitution lookup 61 subtable" sy.cvc.3
Substitution2: "Single Substitution lookup 57 subtable" sy.cvc.1
Substitution2: "Single Substitution lookup 55 subtable" sy.ccv.1
Substitution2: "Single Substitution lookup 42 subtable" sy.ccv.2
EndChar

StartChar: gy
Encoding: 5 60261 5
Width: 900
VWidth: 800
Flags: HW
AnchorPoint: "Above" 0 500 basechar 0
LayerCount: 2
Back
SplineSet
750 1150 m 1
 150 850 l 1
 750 550 l 1025
EndSplineSet
Fore
SplineSet
781 504 m 5
 629.646485732 561.963953845 410.604609763 652.723408826 155 767 c 5
 144.30859375 759.538085938 134.616210938 757.075195312 126.078125 757.3828125 c 5
 125 889 l 5
 125 889 150.032056365 883.914856582 162.693359375 888.463867188 c 4
 330.492161749 948.751385059 608.40779776 1119.23871062 728.765625 1230.61523438 c 5
 823 1125 l 5
 814.000976562 1118.99804688 798.000976562 1116.99804688 779.23046875 1129.14941406 c 5
 652.910190249 1036.62580248 415.215914877 915.549761581 227 850 c 5
 344.970033064 782.2276999 551.978833902 668.751935662 775 550 c 5
 781 504 l 5
EndSplineSet
Substitution2: "Single Substitution lookup 83 subtable" gy.cvc.3
Substitution2: "Single Substitution lookup 72 subtable" gy.cvc.1
Substitution2: "Single Substitution lookup 65 subtable" gy.ccv.2
Substitution2: "Single Substitution lookup 61 subtable" gy.cvc.3
Substitution2: "Single Substitution lookup 57 subtable" gy.cvc.1
Substitution2: "Single Substitution lookup 55 subtable" gy.ccv.1
Substitution2: "Single Substitution lookup 38 subtable" gy.ccv.2
Substitution2: "Single Substitution lookup 25 subtable" gy.ccv.2
EndChar

StartChar: jy
Encoding: 6 60262 6
Width: 900
VWidth: 800
Flags: HW
HStem: 725 50<131 400 500 647>
VStem: 400 100<521.33 725 775 893.181>
AnchorPoint: "Above" 0 500 basechar 0
LayerCount: 2
Back
SplineSet
151.5 850 m 1
 750 850 l 1025
450 655 m 1
 450 550 l 1025
150 1150 m 0
 351 1150 451 985 450 655 c 1
 449 818 473.75 941.25 524.25 1024.75 c 0
 574.75 1108.25 649.5 1150 748.5 1150 c 1024
EndSplineSet
Fore
SplineSet
719 1209 m 1
 857 1127 l 1
 850 1117 840 1114 818 1121 c 1
 746.739726028 1059.2883721 627.273972602 972.693023255 512 907 c 1
 537 904 l 1
 534 890 525 880 500 876 c 1
 500 775 l 1
 647 775 l 1
 710 839 l 1
 710 839 776.760683761 781.752475248 817 741 c 1
 814 729 787 725 787 725 c 1
 500 725 l 1
 500 535 l 1
 500 535 452.545454545 510 413 510 c 2
 400 510 l 1
 400 725 l 1
 131 725 l 1
 114 775 l 1
 400 775 l 1
 400 915 l 1
 479 910 l 1
 565.715328467 999.916666666 666.445255475 1125.58333333 719 1209 c 1
84 1182 m 1
 95 1191 l 1
 535.915726689 1081.55360487 462.218806576 881.829418699 362 921 c 1
 312.477732794 1000.89795918 178.542510121 1114.88571429 84 1182 c 1
EndSplineSet
Substitution2: "Single Substitution lookup 83 subtable" jy.cvc.3
Substitution2: "Single Substitution lookup 72 subtable" jy.cvc.1
Substitution2: "Single Substitution lookup 65 subtable" jy.ccv.2
Substitution2: "Single Substitution lookup 61 subtable" jy.cvc.3
Substitution2: "Single Substitution lookup 57 subtable" jy.cvc.1
Substitution2: "Single Substitution lookup 55 subtable" jy.ccv.1
Substitution2: "Single Substitution lookup 45 subtable" jy.ccv.2
EndChar

StartChar: xy
Encoding: 7 60263 7
Width: 900
VWidth: 800
Flags: HW
HStem: 503 22G<98 253.672 659.39 764> 1175 20G<407.608 513>
AnchorPoint: "Above" 0 500 basechar 0
LayerCount: 2
Back
SplineSet
450 933 m 5
 450 1149 l 1029
748.5 549 m 4
 666.913085938 579.217773438 610.436523438 605.811523438 579.0703125 628.78125 c 4
 493.0234375 691.795898438 450 793.202148438 450 933 c 5
 450 878 444 829.5 432 787.5 c 4
 420 745.5 405.5 711.75 388.5 686.25 c 4
 371.5 660.75 348.5 638.5 319.5 619.5 c 4
 290.5 600.5 264.25 586.5 240.75 577.5 c 4
 217.25 568.5 187 559 150 549 c 1028
EndSplineSet
Fore
SplineSet
408 1195 m 5
 513 1183 l 5
 511 1169 504 1160 479 1156 c 5
 496.030701754 882.335025381 564.153508772 688.984771574 832 570 c 5
 830 559 l 5
 795 555 770 541 758 504 c 5
 560.779487179 607.775147929 494.548717949 769.74852071 471 978 c 5
 455.621076233 809.610044313 397.343049327 632.800590842 110 503 c 5
 98 520 l 5
 409.569620253 710.877993158 407.215189873 960.250855188 408 1195 c 5
EndSplineSet
Substitution2: "Single Substitution lookup 83 subtable" xy.cvc.3
Substitution2: "Single Substitution lookup 72 subtable" xy.cvc.1
Substitution2: "Single Substitution lookup 65 subtable" xy.ccv.2
Substitution2: "Single Substitution lookup 61 subtable" xy.cvc.3
Substitution2: "Single Substitution lookup 57 subtable" xy.cvc.1
Substitution2: "Single Substitution lookup 55 subtable" xy.ccv.1
EndChar

StartChar: iy
Encoding: 8 60264 8
Width: 900
VWidth: 800
Flags: HW
HStem: 563 10<821.835 834> 1127 45<211 684>
VStem: 97 103<690.667 947.4>
AnchorPoint: "Above" 0 500 basechar 0
LayerCount: 2
Back
SplineSet
150 550 m 29
 150 1150 l 29
 750 1150 l 1053
EndSplineSet
Fore
SplineSet
206 1153 m 1
 280.918060201 854.908957416 512.003344482 661.575624082 837 573 c 1
 834 563 l 1
 800 561.557692308 772 535.596153846 757 488 c 1
 449.145522388 597.893442623 252.755597015 809.639344262 188 1142 c 1
 206 1153 l 1
684 1172 m 1
 734 1210 l 1
 734 1210 791 1175.71428571 827 1150 c 1
 825 1134.1875 800 1127 800 1127 c 2
 200 1127 l 1
 200 947.400390625 l 2
 200 802.080078125 188.853503185 608.040039062 25 472.799804688 c 1
 11 481.200195312 l 1
 89.5576923077 619.799804688 97 789.48046875 97 947.400390625 c 2
 97 1210 l 1
 211 1172 l 1
 684 1172 l 1
EndSplineSet
Substitution2: "Single Substitution lookup 83 subtable" iy.cvc.3
Substitution2: "Single Substitution lookup 72 subtable" iy.cvc.1
Substitution2: "Single Substitution lookup 65 subtable" iy.ccv.2
Substitution2: "Single Substitution lookup 61 subtable" iy.cvc.3
Substitution2: "Single Substitution lookup 57 subtable" iy.cvc.1
Substitution2: "Single Substitution lookup 55 subtable" iy.ccv.1
EndChar

StartChar: ry
Encoding: 9 60265 9
Width: 900
VWidth: 800
Flags: HW
HStem: 532.888 11.5049<100.952 113.031> 575.072 9.2041<808.712 823.968> 1160.29 16.1074<695.361 727.696> 1173.28 20G<629.927 729.888>
VStem: 211.664 14.8955<1138.63 1161.64>
AnchorPoint: "Above" 0 500 basechar 0
LayerCount: 2
Back
SplineSet
150 550 m 25
 748.5 1150 l 1025
150 1150 m 25
 748.5 550 l 1025
EndSplineSet
Fore
SplineSet
623.647460938 1203.27539062 m 5xd8
 739.887695312 1176.40136719 l 5
 737.535714286 1165.66308594 729.69577753 1161.0609654 706.959960938 1160.29394531 c 5xe8
 673.247998968 1000.01877327 613.664066185 856.969437472 499.200195312 745.375976562 c 5
 591.712227471 679.481742743 705.392266988 633.642275738 836.3203125 604.276367188 c 5
 833.967773438 595.072265625 l 5
 801.186572884 595.072265625 774.77949466 572.040039062 762.03125 535.188476562 c 5
 638.159547739 570.470496809 533.887798367 624.160527619 450 698.559570312 c 5
 364.543900619 627.228624132 253.999772061 570.470666956 107.391601562 532.887695312 c 5
 90.3359375 564.392578125 l 5
 226.7516284 606.431154404 331.023392134 664.415397547 410.991210938 736.170898438 c 5
 310.207821278 838.054450335 243.018894838 976.646046666 211.6640625 1155.69140625 c 5
 246.559570312 1174.12890625 l 5
 280.199365401 1006.58765625 351.057657183 877.191958705 456.271484375 781.454101562 c 5
 550.114082113 896.836834272 599.136334663 1040.6906309 623.647460938 1203.27539062 c 5xd8
EndSplineSet
Substitution2: "Single Substitution lookup 83 subtable" ry.cvc.3
Substitution2: "Single Substitution lookup 72 subtable" ry.cvc.1
Substitution2: "Single Substitution lookup 65 subtable" ry.ccv.2
Substitution2: "Single Substitution lookup 61 subtable" ry.cvc.3
Substitution2: "Single Substitution lookup 57 subtable" ry.cvc.1
Substitution2: "Single Substitution lookup 55 subtable" ry.ccv.1
Substitution2: "Single Substitution lookup 53 subtable" ry.ccv.2
Substitution2: "Single Substitution lookup 51 subtable" ry.ccv.2
Substitution2: "Single Substitution lookup 49 subtable" ry.ccv.2
Substitution2: "Single Substitution lookup 46 subtable" ry.ccv.2
Substitution2: "Single Substitution lookup 44 subtable" ry.ccv.2
Substitution2: "Single Substitution lookup 41 subtable" ry.ccv.2
Substitution2: "Single Substitution lookup 34 subtable" ry.ccv.2
Substitution2: "Single Substitution lookup 21 subtable" ry.ccv.2
Substitution2: "Single Substitution lookup 13 subtable" ry.ccv.2
Substitution2: "Single Substitution lookup 11 subtable" ry.ccv.2
Substitution2: "Single Substitution lookup 9 subtable" ry.ccv.2
Substitution2: "Single Substitution lookup 7 subtable" ry.ccv.2
EndChar

StartChar: my
Encoding: 16 60272 16
Width: 900
VWidth: 800
Flags: HW
HStem: 525 50<200 700> 1125 50<206 686.155>
VStem: 100 100<458.178 525 575 1125> 700 100<460.01 525 575 1106.28>
AnchorPoint: "Above" 0 500 basechar 0
LayerCount: 2
Back
SplineSet
150 1150 m 25
 748.5 1150 l 1
 748.5 550 l 1
 150 550 l 1
 150 1150 l 25
EndSplineSet
Fore
SplineSet
800 1070 m 1
 800 475 l 2
 800 469 755.448242188 453 724 453 c 2
 700 453 l 1
 700 525 l 1
 200 525 l 1
 200 475 l 2
 200 467 159.258789062 451 112 451 c 2
 100 451 l 1
 100 1210 l 1
 206 1175 l 1
 686.154929577 1175 l 1
 741 1241 l 1
 879 1134 l 1
 865.174804688 1118 835.549804688 1104 800 1098 c 1
 800 1070 l 1
200 575 m 1
 700 575 l 1
 700 1070 l 1
 700 1125 l 1
 670 1125 l 1
 200 1125 l 1
 200 575 l 1
EndSplineSet
Substitution2: "Single Substitution lookup 83 subtable" my.cvc.3
Substitution2: "Single Substitution lookup 72 subtable" my.cvc.1
Substitution2: "Single Substitution lookup 65 subtable" my.ccv.2
Substitution2: "Single Substitution lookup 61 subtable" my.cvc.3
Substitution2: "Single Substitution lookup 57 subtable" my.cvc.1
Substitution2: "Single Substitution lookup 55 subtable" my.ccv.1
Substitution2: "Single Substitution lookup 39 subtable" my.ccv.2
Substitution2: "Single Substitution lookup 31 subtable" my.ccv.2
Substitution2: "Single Substitution lookup 26 subtable" my.ccv.2
Substitution2: "Single Substitution lookup 18 subtable" my.ccv.2
EndChar

StartChar: by
Encoding: 17 60273 17
Width: 900
VWidth: 800
Flags: HW
HStem: 489 21G<137.339 194.222> 525 50<208 668> 1125 50<200 680> 1191 20G<100 162.222 701.333 728>
VStem: 100 100<575 1125>
AnchorPoint: "Above" 0 500 basechar 0
LayerCount: 2
Back
SplineSet
748.5 1150 m 25
 150 1150 l 1
 150 550 l 1
 748.5 550 l 1025
EndSplineSet
Fore
SplineSet
668 575 m 1
 720 628 l 1
 720 628 779 584 816 550 c 1
 813.111111111 533.5 790 525 790 525 c 2
 208 525 l 1
 177 489 l 1
 60 548 l 1
 69 555 85 565 100 571 c 1
 100 1211 l 1
 212 1175 l 1
 680 1175 l 1
 728 1211 l 1
 728 1211 783 1176.37837838 817 1150 c 1
 814 1132.8125 791 1125 791 1125 c 2
 200 1125 l 1
 200 575 l 1
 668 575 l 1
EndSplineSet
Substitution2: "Single Substitution lookup 83 subtable" by.cvc.3
Substitution2: "Single Substitution lookup 72 subtable" by.cvc.1
Substitution2: "Single Substitution lookup 65 subtable" by.ccv.2
Substitution2: "Single Substitution lookup 61 subtable" by.cvc.3
Substitution2: "Single Substitution lookup 57 subtable" by.cvc.1
Substitution2: "Single Substitution lookup 55 subtable" by.ccv.1
Substitution2: "Single Substitution lookup 35 subtable" by.ccv.2
Substitution2: "Single Substitution lookup 22 subtable" by.ccv.2
EndChar

StartChar: py
Encoding: 18 60274 18
Width: 900
VWidth: 800
Flags: HW
HStem: 525 50<123 700> 1125 50<131 690>
VStem: 700 100<461.914 525 575 1124.75>
AnchorPoint: "Above" 0 500 basechar 0
LayerCount: 2
Back
SplineSet
150 1150 m 25
 748.5 1150 l 1
 748.5 550 l 1
 150 550 l 1025
EndSplineSet
Fore
SplineSet
745 1228 m 1
 841 1144 l 1
 835 1131.36842105 819 1120.31578947 800 1114 c 1
 800 475 l 2
 800 475 748.701754386 450 714 450 c 2
 700 450 l 1
 700 525 l 1
 123 525 l 1
 114 575 l 1
 700 575 l 1
 700 1125 l 1
 131 1125 l 1
 122 1175 l 1
 690 1175 l 1
 745 1228 l 1
EndSplineSet
Substitution2: "Single Substitution lookup 83 subtable" py.cvc.3
Substitution2: "Single Substitution lookup 72 subtable" py.cvc.1
Substitution2: "Single Substitution lookup 65 subtable" py.ccv.2
Substitution2: "Single Substitution lookup 61 subtable" py.cvc.3
Substitution2: "Single Substitution lookup 57 subtable" py.cvc.1
Substitution2: "Single Substitution lookup 55 subtable" py.ccv.1
Substitution2: "Single Substitution lookup 27 subtable" py.ccv.2
Substitution2: "Single Substitution lookup 14 subtable" py.ccv.2
EndChar

StartChar: vy
Encoding: 19 60275 19
Width: 900
VWidth: 800
Flags: HW
HStem: 525 50<209 700>
VStem: 100 100<575 1155.14> 700 100<445.305 525 575 1163.73>
AnchorPoint: "Above" 0 500 basechar 0
LayerCount: 2
Back
SplineSet
150 1150 m 29
 150 550 l 5
 649.5 550 l 5
 652.5 649 674.5 757 715.5 874 c 4
 756.5 991 801.5 1082 850.5 1147 c 1028
EndSplineSet
Fore
SplineSet
700 1216 m 1
 836 1174 l 1
 834 1160 826 1150 800 1146 c 1
 800 462 l 2
 800 454.923736495 753.277777778 436 713 436 c 2
 700 436 l 1
 700 525 l 1
 209 525 l 1
 180 487 l 1
 63 548 l 1
 72 555 86 565 100 572 c 1
 100 1210 l 1
 238 1168 l 1
 236 1153 225 1144 200 1140 c 1
 200 575 l 1
 700 575 l 1
 700 1216 l 1
EndSplineSet
Substitution2: "Single Substitution lookup 83 subtable" vy.cvc.3
Substitution2: "Single Substitution lookup 72 subtable" vy.cvc.1
Substitution2: "Single Substitution lookup 65 subtable" vy.ccv.2
Substitution2: "Single Substitution lookup 61 subtable" vy.cvc.3
Substitution2: "Single Substitution lookup 57 subtable" vy.cvc.1
Substitution2: "Single Substitution lookup 55 subtable" vy.ccv.1
Substitution2: "Single Substitution lookup 36 subtable" vy.ccv.2
Substitution2: "Single Substitution lookup 23 subtable" vy.ccv.2
EndChar

StartChar: fy
Encoding: 20 60276 20
Width: 900
VWidth: 800
Flags: HW
HStem: 555 16<535 580.611> 1128 45<201 687>
VStem: 99 102<679.093 1128> 696 101<562.136 1127.79>
AnchorPoint: "Above" 0 500 basechar 0
LayerCount: 2
Back
SplineSet
750 550 m 5
 750 1150 l 5
 250.5 1150 l 5
 247.5 1051 225.5 943 184.5 826 c 4
 143.5 709 98.5 618 49.5 553 c 1028
EndSplineSet
Fore
SplineSet
696 586 m 5
 696 1128 l 5
 201 1128 l 5
 201 940 l 5
 199.882326421 902.451006912 198.725101507 864.941565159 198 827 c 5
 188.571428571 704.400932401 153.214285714 579.459207459 22 492 c 5
 8 504 l 5
 70.4186046512 596.870503597 90.8837209302 710.378896882 96 835 c 5
 97 863 l 5
 99 888 99 939 99 939 c 6
 99 1210 l 5
 213 1173 l 5
 687 1173 l 5
 720 1210 l 5
 836 1144 l 5
 830 1136 815 1129 797 1125 c 5
 797 578 l 5
 797 578 784.27826087 488 664 478 c 5
 661 499 653.803538948 517.271635346 637 527 c 4
 618 538 589 548 535 555 c 5
 535 571 l 5
 535 571 645.98013245 561 668 561 c 4
 690 561 696 586 696 586 c 5
EndSplineSet
Substitution2: "Single Substitution lookup 83 subtable" fy.cvc.3
Substitution2: "Single Substitution lookup 72 subtable" fy.cvc.1
Substitution2: "Single Substitution lookup 65 subtable" fy.ccv.2
Substitution2: "Single Substitution lookup 61 subtable" fy.cvc.3
Substitution2: "Single Substitution lookup 57 subtable" fy.cvc.1
Substitution2: "Single Substitution lookup 55 subtable" fy.ccv.1
Substitution2: "Single Substitution lookup 28 subtable" fy.ccv.2
Substitution2: "Single Substitution lookup 15 subtable" fy.ccv.2
EndChar

StartChar: ky
Encoding: 21 60277 21
Width: 900
VWidth: 800
Flags: HW
HStem: 533 17<151.873 165.493>
AnchorPoint: "Above" 0 500 basechar 0
LayerCount: 2
Back
SplineSet
157 550 m 1
 750 850 l 1
 150 1150 l 1025
EndSplineSet
Fore
SplineSet
736.083984375 939.891601562 m 1
 792 951 l 1
 799 775 l 1
 788.26171875 771.435546875 777.533203125 774.580078125 757.865234375 782.208007812 c 1
 608.927049136 683.907762843 383.73152058 580.964501116 154.897460938 533 c 1
 143 569 l 1
 324.909338358 637.982916222 546.322794138 756.803879258 688.086914062 865.49609375 c 1
 119 1126 l 1
 135 1180 l 1
 736.083984375 939.891601562 l 1
EndSplineSet
Substitution2: "Single Substitution lookup 83 subtable" ky.cvc.3
Substitution2: "Single Substitution lookup 72 subtable" ky.cvc.1
Substitution2: "Single Substitution lookup 65 subtable" ky.ccv.2
Substitution2: "Single Substitution lookup 61 subtable" ky.cvc.3
Substitution2: "Single Substitution lookup 57 subtable" ky.cvc.1
Substitution2: "Single Substitution lookup 55 subtable" ky.ccv.1
Substitution2: "Single Substitution lookup 30 subtable" ky.ccv.2
Substitution2: "Single Substitution lookup 17 subtable" ky.ccv.2
EndChar

StartChar: cy
Encoding: 22 60278 22
Width: 900
VWidth: 800
Flags: HW
HStem: 925 50<110 389 505 682>
VStem: 400 100<978.604 1182.26>
AnchorPoint: "Above" 0 562 basechar 0
LayerCount: 2
Back
SplineSet
748.5 849 m 5
 150 849 l 1029
448.5 1044 m 5
 448.5 1149 l 1029
748.5 549 m 4
 547.5 549 447.5 714 448.5 1044 c 5
 449.5 881 424.75 757.75 374.25 674.25 c 4
 323.75 590.75 249 549 150 549 c 1028
EndSplineSet
Fore
SplineSet
809 925 m 2
 505 925 l 1
 531.815489749 798.40227704 610.772209567 663.096774193 832 572 c 1
 830 561 l 1
 795 557 771 544 761 506 c 1
 549.806201551 614.030405406 489.031007752 782.783783783 467 924 c 1
 445.531317495 760.387478849 374.991360691 615.0321489 112 509 c 1
 98 533 l 1
 308.326732673 639.536585366 370.272277228 772.707317073 389 925 c 1
 110 925 l 1
 97 975 l 1
 392 975 l 1
 400 1051.81228669 400 1132.75426621 400 1217 c 1
 534 1187 l 1
 531 1172 523 1162 500 1158 c 1
 498 1095.7944664 497 1034.31225296 489 975 c 1
 682 975 l 1
 737 1036 l 1
 737 1036 798 988 835 954 c 1
 833 934.0625 809 925 809 925 c 2
EndSplineSet
Substitution2: "Single Substitution lookup 83 subtable" cy.cvc.3
Substitution2: "Single Substitution lookup 72 subtable" cy.cvc.1
Substitution2: "Single Substitution lookup 65 subtable" cy.ccv.2
Substitution2: "Single Substitution lookup 61 subtable" cy.cvc.3
Substitution2: "Single Substitution lookup 57 subtable" cy.cvc.1
Substitution2: "Single Substitution lookup 55 subtable" cy.ccv.1
Substitution2: "Single Substitution lookup 40 subtable" cy.ccv.2
EndChar

StartChar: yhy
Encoding: 23 60279 23
Width: 900
VWidth: 800
Flags: HW
HStem: 552 16<544 589.201>
VStem: 100 100<519.25 591.958 598.199 1169.98> 700 100<558.352 1083>
AnchorPoint: "Above" 0 500 basechar 0
LayerCount: 2
Back
SplineSet
150 1150 m 1
 150 549 l 1
 750 1150 l 1
 750 550 l 1025
EndSplineSet
Fore
SplineSet
800 576 m 2
 800 520 785.894736842 484 666 475 c 1
 663 496 655.728097607 513.603695807 641 524 c 0
 624 536 595 545 544 552 c 1
 544 568 l 1
 544 568 651.957446809 558 673 558 c 0
 694 558 700 565 700 582 c 2
 700 1083 l 1
 590.792348721 881.177338428 417.396296743 697.707540333 200 574.198242188 c 1
 200 537 l 2
 200 527.000016426 144.281690141 509 114 509 c 2
 100 509 l 1
 100 1219 l 1
 235 1178 l 1
 233 1164 225 1154 200 1150 c 1
 200 598.19921875 l 1
 416.682155571 757.167412979 601.733676668 993.325351766 700 1215 c 1
 837 1183 l 1
 834 1169 824 1159 800 1156 c 1
 800 576 l 2
EndSplineSet
Substitution2: "Single Substitution lookup 83 subtable" yhy.cvc.3
Substitution2: "Single Substitution lookup 72 subtable" yhy.cvc.1
Substitution2: "Single Substitution lookup 65 subtable" yhy.ccv.2
Substitution2: "Single Substitution lookup 61 subtable" yhy.cvc.3
Substitution2: "Single Substitution lookup 57 subtable" yhy.cvc.1
Substitution2: "Single Substitution lookup 55 subtable" yhy.ccv.1
EndChar

StartChar: uy
Encoding: 24 60280 24
Width: 900
VWidth: 800
Flags: HW
HStem: 526 21G<500 528.956> 1125 50<134 490>
VStem: 500 100<537.914 1124.97>
AnchorPoint: "Above" 0 500 basechar 0
LayerCount: 2
Back
SplineSet
750 550 m 1
 750 1150 l 1
 150 1150 l 1025
EndSplineSet
Fore
SplineSet
742 1210 m 1
 841 1146 l 1
 835 1132.52631579 819 1120.73684211 800 1114 c 1
 800 551 l 2
 800 551 746.912280702 526 711 526 c 2
 700 526 l 1
 700 1125 l 1
 134 1125 l 1
 125 1175 l 1
 690 1175 l 1
 742 1210 l 1
EndSplineSet
Substitution2: "Single Substitution lookup 83 subtable" uy.cvc.3
Substitution2: "Single Substitution lookup 72 subtable" uy.cvc.1
Substitution2: "Single Substitution lookup 65 subtable" uy.ccv.2
Substitution2: "Single Substitution lookup 61 subtable" uy.cvc.3
Substitution2: "Single Substitution lookup 57 subtable" uy.cvc.1
Substitution2: "Single Substitution lookup 55 subtable" uy.ccv.1
EndChar

StartChar: ly
Encoding: 25 60281 25
Width: 900
VWidth: 800
Flags: HW
HStem: 525 50<212.669 745.236> 825 50<200 700> 1125 50<104 689>
VStem: 100 100<589.337 825> 700 100<781.75 825 875 1124.66> 788 12<676.855 700>
CounterMasks: 1 e0
AnchorPoint: "Above" 0 500 basechar 0
LayerCount: 2
Back
SplineSet
150 1150 m 5
 750 1150 l 5
 750 850 l 5
 150 850 l 5
 150 550 l 5
 750 550 l 1029
EndSplineSet
Fore
SplineSet
800 700 m 1xf4
 800 600 l 1xf4
 832.666666667 589.75862069 842 584.068965517 842 567 c 0
 842 549.690909091 639 525 639 525 c 2
 294 525 l 2
 212 525 100 555.263799732 100 629 c 2
 100 908 l 1
 211 875 l 1
 700 875 l 1
 700 1125 l 1
 104 1125 l 1
 96 1175 l 1
 689 1175 l 1
 745 1206 l 1
 847 1141 l 1
 839.166666667 1132 821.541666667 1122 800 1118 c 1
 800 795 l 2
 800 789 745.357142857 773 710 773 c 2
 700 773 l 1
 700 825 l 1xf8
 200 825 l 1
 200 626 l 2
 200 587.724647964 262.558669522 575 288 575 c 2
 633 575 l 2
 633 575 737.127199587 581.484514487 762 612 c 0
 769.860465116 625.813953488 780.744186047 669.302325581 788 700 c 1
 800 700 l 1xf4
EndSplineSet
Substitution2: "Single Substitution lookup 83 subtable" ly.cvc.3
Substitution2: "Single Substitution lookup 72 subtable" ly.cvc.1
Substitution2: "Single Substitution lookup 65 subtable" ly.ccv.2
Substitution2: "Single Substitution lookup 61 subtable" ly.cvc.3
Substitution2: "Single Substitution lookup 57 subtable" ly.cvc.1
Substitution2: "Single Substitution lookup 55 subtable" ly.ccv.1
Substitution2: "Single Substitution lookup 52 subtable" ly.ccv.2
Substitution2: "Single Substitution lookup 50 subtable" ly.ccv.2
Substitution2: "Single Substitution lookup 48 subtable" ly.ccv.2
Substitution2: "Single Substitution lookup 43 subtable" ly.ccv.2
Substitution2: "Single Substitution lookup 33 subtable" ly.ccv.2
Substitution2: "Single Substitution lookup 20 subtable" ly.ccv.2
Substitution2: "Single Substitution lookup 12 subtable" ly.ccv.2
Substitution2: "Single Substitution lookup 10 subtable" ly.ccv.2
Substitution2: "Single Substitution lookup 8 subtable" ly.ccv.2
Substitution2: "Single Substitution lookup 6 subtable" ly.ccv.2
EndChar

StartChar: denpabu
Encoding: 31 60287 31
Width: 900
VWidth: 800
Flags: HW
HStem: 525 30<367.212 532.788> 1145 30<367.212 532.788>
VStem: 110 60<722.284 977.716> 730 60<722.284 977.716>
AnchorPoint: "Above" 0 500 basechar 0
LayerCount: 2
Back
SplineSet
140 850 m 4
 140 1021.53333333 278.466666667 1160 450 1160 c 4
 621.533333333 1160 760 1021.53333333 760 850 c 4
 760 678.466666667 621.533333333 540 450 540 c 4
 278.466666667 540 140 678.466666667 140 850 c 4
EndSplineSet
Fore
SplineSet
190 850 m 0
 190 677.885742188 333.508789062 565 450 565 c 0
 566.490234375 565 710 677.887695312 710 850 c 0
 710 1022.11425781 566.491210938 1135 450 1135 c 0
 333.509765625 1135 190 1022.11230469 190 850 c 0
90 850 m 0
 90 1020.95410156 223.423828125 1185 450 1185 c 0
 676.575195312 1185 810 1020.95214844 810 850 c 0
 810 679.045898438 676.576171875 515 450 515 c 0
 223.424804688 515 90 679.047851562 90 850 c 0
EndSplineSet
Substitution2: "Single Substitution lookup 78 subtable" denpabu.cvc.1
Substitution2: "Single Substitution lookup 76 subtable" denpabu.cvc.3
Substitution2: "Single Substitution lookup 67 subtable" denpabu.ccv.1
EndChar

StartChar: ebu.cv
Encoding: 42 -1 32
Width: 0
VWidth: 1000
Flags: HW
HStem: -283 21G<100 133.519> 25 50<200 682>
VStem: 100 100<-268.659 25 75 348.281>
AnchorPoint: "Above" 0 500 mark 0
LayerCount: 2
Back
SplineSet
150 350 m 5
 150 -50 l 1029
750 150 m 29
 150 150 l 1029
EndSplineSet
Fore
SplineSet
682 75 m 5
 727 121 l 5
 727 121 779 81 812 50 c 5
 809 32.8125 800 25 786 25 c 6
 200 25 l 5
 200 -126 l 6
 200 -143.407226562 154.038085938 -173 113 -173 c 6
 100 -173 l 5
 100 390 l 5
 236 358 l 5
 233 344 226 334 200 330 c 5
 200 75 l 5
 682 75 l 5
EndSplineSet
Substitution2: "Single Substitution lookup 74 subtable" ebu.cvc
Substitution2: "Single Substitution lookup 70 subtable" ebu.ccv
EndChar

StartChar: obu.cv
Encoding: 43 -1 33
Width: 0
VWidth: 1000
Flags: HW
HStem: -282 21G<700 733.973> 25 50<132 700>
VStem: 700 100<-266.094 25 75 344.36>
AnchorPoint: "Above" 0 500 mark 0
LayerCount: 2
Back
SplineSet
150 150 m 29
 750 150 l 1053
750 350 m 5
 750 -50 l 1029
EndSplineSet
Fore
SplineSet
800 -125 m 5
 800 -125 754.946289062 -162 713 -162 c 6
 700 -162 l 5
 700 25 l 5
 132 25 l 5
 124 75 l 5
 700 75 l 5
 700 388 l 5
 837 356 l 5
 834 341 826 330 800 326 c 5
 800 -125 l 5
EndSplineSet
Substitution2: "Single Substitution lookup 74 subtable" obu.cvc
Substitution2: "Single Substitution lookup 70 subtable" obu.ccv
EndChar

StartChar: ibu.cv
Encoding: 44 -1 34
Width: 0
VWidth: 1000
Flags: W
HStem: 325 50<200 692>
VStem: 100 100<-56.275 325>
AnchorPoint: "Above" 0 500 mark 0
LayerCount: 2
Back
SplineSet
750 350 m 29
 150 350 l 5
 150 50 l 1029
EndSplineSet
Fore
SplineSet
692 375 m 5
 742 410 l 5
 742 410 799 375.714285714 835 350 c 5
 833 332.8125 822 325 808 325 c 6
 200 325 l 5
 200 181.299804688 l 6
 200 58.0494251531 190.891719745 -106.523602023 57 -221.224609375 c 5
 43 -214.100585938 l 5
 95.0673076923 -96.5484916652 100 47.3624463523 100 181.299804688 c 6
 100 410 l 5
 211 375 l 5
 692 375 l 5
EndSplineSet
Substitution2: "Single Substitution lookup 74 subtable" ibu.cvc
Substitution2: "Single Substitution lookup 70 subtable" ibu.ccv
EndChar

StartChar: ny.cvc.1
Encoding: 32 -1 35
Width: 1300
VWidth: 1000
Flags: HW
HStem: 481 21G<103 133.833 502 527.111> 530 43<198 502> 828 45<198 502> 1127 44<198 492> 1182 20G<103 167.516 517.333 569.333>
VStem: 103 95<487.67 530 573 828 873 1127> 502 96<499.375 530 573 828 873 1126.7>
AnchorPoint: "Above" 0 500 basechar 0
LayerCount: 2
Back
SplineSet
150 1150 m 1
 550 1150 l 1
 549.985351562 550 l 1
 149.985351562 550 l 1
 150 1150 l 1
150 850 m 1
 550 850 l 1025
EndSplineSet
Fore
SplineSet
198 828 m 1
 198 573 l 1
 502 573 l 1
 502 828 l 1
 198 828 l 1
502 1127 m 1
 198 1127 l 1
 198 873 l 1
 502 873 l 1
 502 1127 l 1
321 530 m 1
 257 530 l 1
 198 530 l 1
 198 502 l 2
 198 495 154.666666667 481 113 481 c 2
 103 481 l 1
 103 1202 l 1
 203 1171 l 1
 258 1171 l 1
 322 1171 l 1
 492 1171 l 1
 544 1210 l 1
 639 1135 l 1
 632 1128 617 1120 598 1117 c 1
 598 513 l 2
 596.37037037 506 544.222222222 491 510 491 c 2
 502 491 l 1
 502 530 l 1
 321 530 l 1
EndSplineSet
EndChar

StartChar: ebu.ccv
Encoding: 106 -1 38
Width: 0
VWidth: 1000
Flags: HW
HStem: -282 21G<300 333.519> 25 50<400 884>
VStem: 300 100<-270.393 25 75 335.281>
AnchorPoint: "Above" 0 500 mark 0
LayerCount: 2
Back
SplineSet
350 350 m 25
 350 -50 l 1053
350 150 m 25
 950 150 l 1049
EndSplineSet
Fore
SplineSet
884 75 m 1
 929 125 l 1
 929 125 981 77.676056338 1014 41 c 1
 1011 30 1002 25 988 25 c 2
 400 25 l 1
 400 -127 l 2
 400 -127 354.037735849 -154 313 -154 c 2
 300 -154 l 1
 300 387 l 1
 436 345 l 1
 433 331 426 321 400 317 c 1
 400 75 l 1
 884 75 l 1
EndSplineSet
EndChar

StartChar: dy.cvc.1
Encoding: 33 -1 40
Width: 1300
VWidth: 1000
Flags: W
HStem: 525 50<208 462> 825 50<200 268> 1125 50<212 471>
VStem: 100 100<575 825 875 1125>
CounterMasks: 1 e0
AnchorPoint: "Above" 0 500 basechar 0
LayerCount: 2
Back
SplineSet
350 850 m 25
 150 850 l 1049
550 1150 m 25
 150 1150 l 25
 150 550 l 25
 550 550 l 1049
EndSplineSet
Fore
SplineSet
462 575 m 1
 514 630 l 1
 514 630 573 586 610 552 c 1
 607 533.4375 597 525 583 525 c 2
 208 525 l 1
 178 486 l 1
 60 550 l 1
 69 557 85 567 100 573 c 1
 100 1218 l 1
 212 1175 l 1
 471 1175 l 1
 519 1224 l 1
 519 1224 574 1176.89189189 608 1141 c 1
 605 1130 595 1125 582 1125 c 2
 200 1125 l 1
 200 875 l 1
 268 875 l 1
 331 949 l 1
 331 949 404 890 448 848 c 1
 445 830.75 422.698242188 825 418 825 c 2
 200 825 l 1
 200 575 l 1
 462 575 l 1
EndSplineSet
EndChar

StartChar: ty.cvc.1
Encoding: 34 -1 41
Width: 1300
VWidth: 1000
Flags: HW
HStem: 525 50<129 500> 825 50<325 500> 1125 52<128 490>
VStem: 500 100<451.875 525 575 825 875 1124.94>
AnchorPoint: "Above" 0 500 basechar 0
LayerCount: 2
Back
SplineSet
350 850 m 25
 550 850 l 1049
150 1150 m 25
 550 1150 l 25
 550 550 l 25
 150 550 l 1049
EndSplineSet
Fore
SplineSet
545 1215 m 1
 641 1141 l 1
 635 1129.63157895 619 1119.68421053 600 1114 c 1
 600 475 l 2
 598.438596491 468 546.912280702 450 511 450 c 2
 500 450 l 1
 500 525 l 1
 129 525 l 1
 120 575 l 1
 500 575 l 1
 500 825 l 1
 325 825 l 1
 316 875 l 1
 500 875 l 1
 500 1125 l 1
 128 1125 l 1
 119 1177 l 1
 490 1177 l 1
 545 1215 l 1
EndSplineSet
EndChar

StartChar: zy.cvc.1
Encoding: 35 -1 42
Width: 1300
VWidth: 1000
Flags: W
HStem: 525 50<200 500> 825 50<200 500>
VStem: 100 100<457.281 525 575 825 875 1170.84> 500 100<460.177 525 575 825 875 1169.84>
AnchorPoint: "Above" 0 500 basechar 0
LayerCount: 2
Back
SplineSet
539.5 850 m 25
 152 851 l 1025
150 1150 m 1
 150 550 l 1
 550 550 l 1
 550 1150 l 1049
EndSplineSet
Fore
SplineSet
500 575 m 1
 500 825 l 1
 200 825 l 1
 200 575 l 1
 500 575 l 1
600 475 m 1
 600 475 554.037735849 449 513 449 c 2
 500 449 l 1
 500 525 l 1
 200 525 l 1
 200 475 l 2
 200 465 151.848632812 449 112 449 c 2
 100 449 l 1
 100 1212 l 1
 236 1180 l 1
 233 1166 225 1156 200 1152 c 1
 200 875 l 1
 500 875 l 1
 500 1211 l 1
 636 1179 l 1
 633 1165 625 1155 600 1151 c 1
 600 475 l 1
EndSplineSet
EndChar

StartChar: sy.cvc.1
Encoding: 36 -1 43
Width: 1300
VWidth: 1000
Flags: HW
HStem: 555 16<335 380.611> 825 50<198 500> 1125 50<200 491>
VStem: 100 100<678.614 825 875 1125> 500 100<562.136 825 875 1125>
AnchorPoint: "Above" 0 500 basechar 0
LayerCount: 2
Back
SplineSet
222.5 850 m 1
 550 850 l 1025
550 550 m 1
 550 1150 l 1
 254 1150 l 1
 251 1051 229 943 188 826 c 128
 147 709 102 618 53 553 c 1024
EndSplineSet
Fore
SplineSet
198 875 m 1
 500 875 l 1
 500 1125 l 1
 200 1125 l 1
 200 940 l 2
 200 940 200 896.948051948 198 875 c 1
600 578 m 1
 600 578 586.991304348 488 464 478 c 1
 461 499 453.803538948 517.271635346 437 527 c 0
 418 538 389 548 335 555 c 1
 335 571 l 1
 335 571 449.317880795 561 472 561 c 0
 494 561 500 586 500 586 c 2
 500 825 l 1
 197 825 l 1
 187.625 703.132867133 152.46875 578.937062937 22 492 c 1
 8 504 l 1
 71.1279069767 596.870503597 91.8255813953 710.378896882 97 835 c 1
 98 863 l 1
 100 888 100 939 100 939 c 2
 100 1210 l 1
 212 1175 l 1
 491 1175 l 1
 524 1210 l 1
 639 1144 l 1
 633 1136 618 1129 600 1125 c 1
 600 578 l 1
EndSplineSet
EndChar

StartChar: gy.cvc.1
Encoding: 37 -1 44
Width: 1300
VWidth: 1000
Flags: HW
AnchorPoint: "Above" 0 500 basechar 0
LayerCount: 2
Back
SplineSet
550 1150 m 25
 150 850 l 25
 550 550 l 1049
EndSplineSet
Fore
SplineSet
608 497 m 1
 498.400783257 559.693412324 339.786573629 657.858212271 154.696289062 781.458984375 c 1
 144.004882812 773.997070312 134.3125 771.534179688 125.774414062 771.841796875 c 1
 125.458984375 893.303710938 l 1
 125.458984375 893.303710938 151.166822871 886.656164158 163.15234375 892.767578125 c 0
 279.899213451 952.296776507 473.260429899 1120.63964719 557 1230.61523438 c 1
 659.76953125 1129.85058594 l 1
 650.770507812 1123.84863281 634.770507812 1121.84863281 616 1134 c 1
 518.783128783 1039.86866973 335.852137557 916.688774367 191 850 c 1
 279.743253374 782.2276999 435.466143215 668.751935662 603.234375 550 c 1
 608 497 l 1
EndSplineSet
EndChar

StartChar: jy.cvc.1
Encoding: 38 -1 45
Width: 1300
VWidth: 1000
Flags: HW
HStem: 725 50<131 300 400 449> 1166 9G<115 248.095 516.139 569.176>
VStem: 300 100<521.33 725 775 893.181>
AnchorPoint: "Above" 0 500 basechar 0
LayerCount: 2
Back
SplineSet
150 851 m 5
 550 851 l 1029
350 550 m 1029
150 1150 m 4
 351 1150 351 880 350 550 c 5
 348.3671875 816.206054688 314.138671875 1150 550 1150 c 1028
EndSplineSet
Fore
SplineSet
533 1217 m 1
 656 1149 l 1
 649 1139 639 1136 617 1143 c 1
 569.260273973 1074.94418605 489.226027397 979.446511628 412 907 c 1
 437 904 l 1
 434 890 425 880 400 876 c 1
 400 775 l 1
 449 775 l 1
 501 829 l 1
 501 829 574 777.594059406 618 741 c 1
 615 729 588 725 588 725 c 1
 400 725 l 1
 400 535 l 1
 400 535 352.545454545 510 313 510 c 2
 300 510 l 1
 300 725 l 1
 131 725 l 1
 110 775 l 1
 300 775 l 1
 300 915 l 1
 379 910 l 1
 434.642335766 1002.32246377 499.277372263 1131.35144928 533 1217 c 1
97 1197 m 1
 108 1206 l 1
 384.50880104 1079.40668208 331.814712836 881.126045702 262 921 c 1
 232.607287449 1005.48979592 153.113360324 1126.02857143 97 1197 c 1
EndSplineSet
EndChar

StartChar: xy.cvc.1
Encoding: 39 -1 46
Width: 1300
VWidth: 1000
Flags: HW
HStem: 503 22G<98 215.067 491.497 559> 1175 20G<310.73 416>
VStem: 311 71<891.797 1177.98>
AnchorPoint: "Above" 0 500 basechar 0
LayerCount: 2
Back
SplineSet
350 1150 m 1029
550 550 m 4
 363 688 350 910.81640625 350 1150 c 5
 350 906.840820312 338 690 150 550 c 1028
EndSplineSet
Fore
SplineSet
311 1195 m 1
 416 1183 l 1
 414 1169 407 1160 382 1156 c 1
 393.820175438 882.335025381 441.100877193 688.984771574 627 570 c 1
 625 559 l 1
 590 555 565 541 553 504 c 1
 429.994871795 607.775147929 388.687179487 769.74852071 374 978 c 1
 362.753363229 809.610044313 320.134529148 632.800590842 110 503 c 1
 98 520 l 1
 312.078481013 710.877993158 310.460759493 960.250855188 311 1195 c 1
EndSplineSet
EndChar

StartChar: iy.cvc.1
Encoding: 40 -1 47
Width: 1300
VWidth: 1000
Flags: HW
HStem: 1134 30<193 479> 1178 20G<115 160.882>
VStem: 115 67<677.372 1134>
AnchorPoint: "Above" 0 500 basechar 0
LayerCount: 2
Back
SplineSet
150 550 m 25
 150 1150 l 1
 550 1150 l 1049
EndSplineSet
Fore
SplineSet
479 1164 m 1
 529 1227 l 1
 529 1227 586 1183 622 1150 c 1
 620 1139 595 1134 595 1134 c 2
 182 1134 l 1
 182 947.400390625 l 2
 182 802.080078125 172 608.040039062 25 472.799804688 c 1
 11 481.200195312 l 1
 106 619.799804688 115 789.48046875 115 947.400390625 c 2
 115 1198 l 1
 193 1164 l 1
 479 1164 l 1
EndSplineSet
EndChar

StartChar: ry.cvc.1
Encoding: 41 -1 48
Width: 1300
VWidth: 1000
Flags: W
HStem: 608.796 9.2041<593.571 604.506> 1157 20G<170.121 208.507>
VStem: 152 46<1055.53 1151.53>
AnchorPoint: "Above" 0 500 basechar 0
LayerCount: 2
Back
SplineSet
550 1150 m 29
 150 550 l 1053
150 1150 m 29
 550 550 l 1053
EndSplineSet
Fore
SplineSet
453.284179688 1203.27539062 m 1
 576 1168 l 1
 573.5 1147.33333334 565.166666667 1138.47619048 541 1137 c 1
 512.103802356 986.350173674 448.946673127 851.891644895 377 747 c 1
 439.841860465 686.756345178 517.062790697 644.847715736 606 618 c 1
 604.505859375 608.795898438 l 1
 561.631471739 610.715700297 527.72799258 574.511936155 530 511 c 1
 447.427135679 550.521126761 377.91959799 610.661971832 322 694 c 1
 269.956069342 638.797510615 208.515079367 579.708338803 126 540 c 1
 80 574 l 1
 166.317900963 614.34480052 232.843948965 671.189565684 290 745 c 1
 220.224719102 841.9 173.707865169 973.712499999 152 1144 c 1
 198 1177 l 1
 219.013651878 1014.86666667 263.276450512 889.647619048 329 797 c 1
 398.682343423 908.130391043 435.083567599 1046.68256689 453.284179688 1203.27539062 c 1
EndSplineSet
EndChar

StartChar: my.cvc.1
Encoding: 48 -1 49
Width: 1300
VWidth: 1000
Flags: W
HStem: 525 50<200 500> 1125 50<206 488>
VStem: 100 100<458.178 525 575 1125> 500 100<459.591 525 575 1124.87>
AnchorPoint: "Above" 0 500 basechar 0
LayerCount: 2
Back
SplineSet
150 1150 m 25
 550 1150 l 25
 550 550 l 25
 150 550 l 25
 150 1150 l 25
EndSplineSet
Fore
SplineSet
200 575 m 1
 500 575 l 1
 500 1125 l 1
 200 1125 l 1
 200 575 l 1
546 1210 m 1
 653 1141 l 1
 644 1130 624 1121 600 1117 c 1
 600 475 l 2
 600 469 557.206896552 453 527 453 c 2
 500 453 l 1
 500 525 l 1
 200 525 l 1
 200 475 l 2
 200 467 159.259259259 451 112 451 c 2
 100 451 l 1
 100 1210 l 1
 206 1175 l 1
 488 1175 l 1
 546 1210 l 1
EndSplineSet
EndChar

StartChar: by.cvc.1
Encoding: 49 -1 50
Width: 1300
VWidth: 1000
Flags: W
HStem: 525 50<208 481> 1125 50<212 493>
VStem: 100 100<575 1125>
AnchorPoint: "Above" 0 500 basechar 0
LayerCount: 2
Back
SplineSet
550 1150 m 25
 150 1150 l 25
 150 550 l 25
 550 550 l 1053
EndSplineSet
Fore
SplineSet
481 575 m 1
 533 628 l 1
 533 628 592 584 629 550 c 1
 626 532.8125 602 525 602 525 c 2
 208 525 l 1
 162 486 l 1
 60 548 l 1
 69 555 85 565 100 571 c 1
 100 1218 l 1
 212 1175 l 1
 493 1175 l 1
 541 1224 l 1
 541 1224 596 1182 630 1150 c 1
 627 1132.8125 604 1125 604 1125 c 2
 200 1125 l 1
 200 575 l 1
 481 575 l 1
EndSplineSet
EndChar

StartChar: py.cvc.1
Encoding: 50 -1 51
Width: 1300
VWidth: 1000
Flags: HW
HStem: 525 50<123 500> 1125 50<131 490>
VStem: 500 100<461.914 525 575 1124.74>
AnchorPoint: "Above" 0 500 basechar 0
LayerCount: 2
Back
SplineSet
150 1150 m 25
 550 1150 l 25
 550 550 l 25
 150 550 l 1049
EndSplineSet
Fore
SplineSet
544 1217 m 1
 641 1144 l 1
 635 1136 619 1118 600 1114 c 1
 600 475 l 2
 600 475 546.912109375 450 511 450 c 2
 500 450 l 1
 500 525 l 1
 123 525 l 1
 114 575 l 1
 500 575 l 1
 500 1125 l 1
 131 1125 l 1
 122 1175 l 1
 490 1175 l 1
 544 1217 l 1
EndSplineSet
EndChar

StartChar: vy.cvc.1
Encoding: 51 -1 52
Width: 1300
VWidth: 1000
Flags: W
HStem: 525 50<210 500>
VStem: 100 100<575.048 1167.14> 500 100<465.305 525 575 1168.73>
AnchorPoint: "Above" 0 500 basechar 0
LayerCount: 2
Back
SplineSet
150 1150 m 25
 150 550 l 25
 550 550 l 25
 550 1150 l 1049
EndSplineSet
Fore
SplineSet
500 1211 m 1
 636 1179 l 1
 634 1165 626 1155 600 1151 c 1
 600 482 l 2
 600 474.923828125 553.277777778 456 513 456 c 2
 500 456 l 1
 500 525 l 1
 232 525 l 1
 223 525 l 1
 210 525 l 1
 170 473 l 1
 44 551 l 1
 58 561 79 577 100 587 c 1
 100 600 l 1
 100 1212 l 1
 238 1180 l 1
 236 1165 225 1156 200 1152 c 1
 200 600 l 1
 200 575 l 1
 223 575 l 1
 500 575 l 1
 500 1211 l 1
EndSplineSet
EndChar

StartChar: fy.cvc.1
Encoding: 52 -1 53
Width: 1300
VWidth: 1000
Flags: HW
HStem: 555 16<336 381.611> 1125 50<200 491>
VStem: 100 100<679.093 1125> 500 100<562.136 1125>
AnchorPoint: "Above" 0 500 basechar 0
LayerCount: 2
Back
SplineSet
550 550 m 1
 550 1150 l 1
 256 1150 l 1
 253 1051 231 943 190 826 c 0
 149 709 104 618 55 553 c 1024
EndSplineSet
Fore
SplineSet
500 586 m 1
 500 1125 l 1
 200 1125 l 1
 200 940 l 1
 198.882326421 902.451006912 197.725101507 864.941565159 197 827 c 1
 187.625 704.400932401 152.46875 579.459207459 22 492 c 1
 8 504 l 1
 71.1279069767 596.870503597 91.8255813953 710.378896882 97 835 c 1
 98 863 l 1
 100 888 100 939 100 939 c 2
 100 1210 l 1
 212 1175 l 1
 491 1175 l 1
 524 1210 l 1
 639 1144 l 1
 633 1136 618 1129 600 1125 c 1
 600 578 l 1
 600 578 587.086956522 488 465 478 c 1
 462 499 454.803538948 517.271635346 438 527 c 0
 419 538 390 548 336 555 c 1
 336 571 l 1
 336 571 449.483443709 561 472 561 c 0
 494 561 500 586 500 586 c 1
EndSplineSet
EndChar

StartChar: ky.cvc.1
Encoding: 53 -1 54
Width: 1300
VWidth: 1000
Flags: HW
VStem: 130.042 464.654
AnchorPoint: "Above" 0 500 basechar 0
LayerCount: 2
Back
SplineSet
150 1150 m 25
 550 852 l 25
 150 550 l 1049
EndSplineSet
Fore
SplineSet
534.083984375 920.891601562 m 1
 590 932 l 1
 590 790 l 1
 579.26171875 786.435546875 568.533203125 789.580078125 548.865234375 797.208007812 c 1
 453.800237381 691.41320169 310.061328444 580.621388105 164 529 c 1
 150 550 l 1
 263.800355099 623.403464876 402.314024154 749.838687747 491 865.49609375 c 1
 130.041992188 1150.04296875 l 1
 145 1185 l 1
 534.083984375 920.891601562 l 1
EndSplineSet
EndChar

StartChar: cy.cvc.1
Encoding: 54 -1 55
Width: 1300
VWidth: 1000
Flags: W
HStem: 925 50<139 289 405 471>
VStem: 300 100<978.321 1182.26>
AnchorPoint: "Above" 0 500 basechar 0
LayerCount: 2
Back
SplineSet
550 850 m 1
 150 850 l 1025
350 1150 m 1025
550 550 m 0
 349 550 349 820 350 1150 c 1
 351.6328125 883.793945312 385.861328125 550 150 550 c 1024
EndSplineSet
Fore
SplineSet
598 925 m 2
 405 925 l 1
 422.302961276 790.512333966 473.250569476 646.774193548 616 550 c 1
 614 539 l 1
 579 535 555 522 545 484 c 1
 422.881136951 597.716216217 387.739018088 775.351351351 375 924 c 1
 359.76025918 750.925549915 309.686825054 597.164128595 123 485 c 1
 112 503 l 1
 239.930693069 617.689895471 277.608910891 761.052264808 289 925 c 1
 139 925 l 1
 123 975 l 1
 292 975 l 1
 300 1045.78156996 300 1120.36860069 300 1198 c 1
 434 1187 l 1
 431 1172 423 1162 400 1158 c 1
 398 1095.7944664 397 1034.31225296 389 975 c 1
 471 975 l 1
 526 1036 l 1
 526 1036 587 988 624 954 c 1
 622 934.0625 598 925 598 925 c 2
EndSplineSet
EndChar

StartChar: yhy.cvc.1
Encoding: 55 -1 56
Width: 1300
VWidth: 1000
Flags: HW
HStem: 509 21G<116 142.5> 552 16<351 396.201> 1175 20G<486.179 624>
VStem: 116 69<513.079 598.048 598.199 1169.98> 519 68<558.352 1083>
AnchorPoint: "Above" 0 500 basechar 0
LayerCount: 2
Back
SplineSet
150 1150 m 25
 150 550 l 25
 550 1150 l 25
 550 550 l 1049
EndSplineSet
Fore
SplineSet
587 576 m 2
 587 520 575 484 473 475 c 1
 470 496 462.728097607 513.603695807 448 524 c 0
 431 536 402 545 351 552 c 1
 351 568 l 1
 351 568 469 558 492 558 c 0
 513 558 519 565 519 582 c 2
 519 1083 l 1
 446.049288945 881.17718665 330.220726224 697.70725058 185 574.197859552 c 1
 185 537 l 2
 185 527.000016426 155 509 130 509 c 2
 116 509 l 1
 116 1189 l 1
 220 1178 l 1
 218 1164 210 1154 185 1150 c 1
 185 598.19887849 l 1
 329.743679921 752.012556236 453.358096014 980.513114286 519 1195 c 1
 624 1183 l 1
 621 1169 611 1159 587 1156 c 1
 587 576 l 2
EndSplineSet
EndChar

StartChar: uy.cvc.1
Encoding: 56 -1 57
Width: 1300
VWidth: 345
Flags: HW
HStem: 500 21G<500 600> 1100 100<100 500>
VStem: 500 100<500 1100>
AnchorPoint: "Above" 0 500 basechar 0
LayerCount: 2
Back
SplineSet
150 1150 m 25
 550 1150 l 25
 550 550 l 1049
EndSplineSet
Fore
SplineSet
100 1150 m 1
 100 1200 l 1
 150 1200 l 1
 550 1200 l 1
 600 1200 l 1
 600 1150 l 1
 600 550 l 1
 600 500 l 1
 550 500 l 1
 500 500 l 1
 500 550 l 1
 500 1100 l 1
 150 1100 l 1
 100 1100 l 1
 100 1150 l 1
EndSplineSet
EndChar

StartChar: ly.cvc.1
Encoding: 57 -1 58
Width: 1300
VWidth: 1000
Flags: W
HStem: 525 50<212.205 540.603> 825 50<200 500> 1125 50<101 489>
VStem: 100 100<586.612 825> 500 100<779.75 825 875 1124.66> 584 13<649.816 666>
CounterMasks: 1 e0
AnchorPoint: "Above" 0 500 basechar 0
LayerCount: 2
Back
SplineSet
150 1150 m 25
 550 1150 l 25
 550 849 l 25
 150 850 l 25
 150 550 l 25
 550 550 l 1053
EndSplineSet
Fore
SplineSet
597 666 m 1xf4
 596 599 l 1
 628.666666667 589.068965517 638 583.551724138 638 567 c 0
 638 541.036363636 435 525 435 525 c 2
 294 525 l 2
 190.637885705 525 100 547.50935911 100 629 c 2
 100 908 l 1
 211 875 l 1
 500 875 l 1
 500 1125 l 1
 101 1125 l 1
 93 1175 l 1
 489 1175 l 1
 538 1220 l 1
 648 1141 l 1
 640 1132 622 1122 600 1118 c 1
 600 793 l 2
 600 787 545.357142857 771 510 771 c 2
 500 771 l 1
 500 825 l 1xf8
 200 825 l 1
 200 626 l 2
 200 581.1040498 277.014818048 575 288 575 c 2
 429 575 l 2
 429 575 531.231651695 583.132949831 558 612 c 0
 565.860465116 620.476744186 576.744186047 647.162790698 584 666 c 1
 597 666 l 1xf4
EndSplineSet
EndChar

StartChar: denpabu.cvc.1
Encoding: 63 -1 78
Width: 1300
VWidth: 345
Flags: HW
HStem: 470 100<274.356 425.644> 1130 100<274.356 425.644>
VStem: 74 100<692.227 1007.77> 526 100<692.227 1007.77>
AnchorPoint: "Above" 0 500 basechar 0
LayerCount: 2
Back
SplineSet
124 850 m 4
 124 1032 225 1180 350 1180 c 4
 475 1180 576 1032 576 850 c 4
 576 668 475 520 350 520 c 4
 225 520 124 668 124 850 c 4
EndSplineSet
Fore
SplineSet
174 850 m 0
 174 660.723632812 291.860351562 545 350 545 c 0
 408.15625 545 526 660.736328125 526 850 c 0
 526 1039.27636719 408.139648438 1155 350 1155 c 0
 291.84375 1155 174 1039.26367188 174 850 c 0
74 850 m 0
 74 1024.73632812 158.15625 1205 350 1205 c 0
 541.860351562 1205 626 1024.72363281 626 850 c 0
 626 675.263671875 541.84375 495 350 495 c 0
 158.139648438 495 74 675.276367188 74 850 c 0
EndSplineSet
EndChar

StartChar: ybu.cv
Encoding: 47 -1 79
Width: 0
VWidth: 1000
Flags: HW
HStem: 25 50<98 400 500 688>
VStem: 400 100<-105.098 25 75 365.36>
AnchorPoint: "Above" 0 500 mark 0
LayerCount: 2
Back
SplineSet
150 150 m 25
 750 150 l 1049
450 350 m 1
 450 -50 l 1025
EndSplineSet
Fore
SplineSet
688 75 m 5
 742 131 l 5
 742 131 802 84 838 50 c 5
 835 33.3333333333 826 25 812 25 c 6
 500 25 l 5
 500 -126 l 6
 500 -137 454.946428571 -153 413 -153 c 6
 400 -153 l 5
 400 25 l 5
 98 25 l 5
 83 75 l 5
 400 75 l 5
 400 409 l 5
 537 377 l 5
 534 362 526 351 500 347 c 5
 500 75 l 5
 688 75 l 5
EndSplineSet
Substitution2: "Single Substitution lookup 74 subtable" ybu.cvc
Substitution2: "Single Substitution lookup 70 subtable" ybu.ccv
EndChar

StartChar: eibu.cv
Encoding: 58 -1 80
Width: 0
VWidth: 1000
Flags: HW
HStem: 25 50<190 369> 325 50<202 685>
VStem: 90 100<-158.211 25 75 325>
AnchorPoint: "Above" 0 500 mark 0
LayerCount: 2
Back
SplineSet
750 50 m 29
 150 50 l 1053
750 350 m 29
 150 350 l 5
 150 -50 l 1029
EndSplineSet
Fore
SplineSet
91 -192 m 5
 90.775 -178.608695652 90.375 -159.47826087 90 -148 c 5
 90 434 l 5
 202 375 l 5
 685 375 l 5
 733 424 l 5
 733 424 788 382 822 350 c 5
 819 332.8125 809 325 796 325 c 6
 190 325 l 5
 190 75 l 5
 369 75 l 5
 432 149 l 5
 432 149 505 90 549 48 c 5
 546 30.75 523.698242188 25 519 25 c 6
 190 25 l 5
 190 -146 l 5
 187.623500238 -155.95916515 145.273014725 -191.472486137 91 -192 c 5
EndSplineSet
Substitution2: "Single Substitution lookup 74 subtable" eibu.cvc
Substitution2: "Single Substitution lookup 70 subtable" eibu.ccv
EndChar

StartChar: oibu.cv
Encoding: 59 -1 81
Width: 0
VWidth: 1000
Flags: HW
HStem: 25 50<309 700> 325 50<128 690>
VStem: 700 100<-174.492 25 75 324.715>
AnchorPoint: "Above" 0 500 mark 0
LayerCount: 2
Back
SplineSet
150 50 m 25
 748.5 50 l 1048
150 350 m 25
 750 350 l 1
 750 -50 l 1025
EndSplineSet
Fore
SplineSet
747 425 m 5
 842 341 l 5
 835.853658537 330.052631579 819.463414634 320.473684211 800 315 c 5
 800 -161 l 6
 800 -162.119246794 746.912280702 -186 711 -186 c 6
 700 -186 l 5
 700 25 l 5
 309 25 l 5
 300 75 l 5
 700 75 l 5
 700 325 l 5
 128 325 l 5
 119 375 l 5
 690 375 l 5
 747 425 l 5
EndSplineSet
Substitution2: "Single Substitution lookup 74 subtable" oibu.cvc
Substitution2: "Single Substitution lookup 70 subtable" oibu.ccv
EndChar

StartChar: aibu.cv
Encoding: 60 -1 82
Width: 0
VWidth: 1000
Flags: HW
HStem: 25 50<200 400 500 688>
VStem: 100 100<-145 25> 400 100<75 364.36>
AnchorPoint: "Above" 0 500 mark 0
LayerCount: 2
Back
SplineSet
450 350 m 1
 450 150 l 1025
750 150 m 25
 150 150 l 1
 150 -50 l 1049
EndSplineSet
Fore
SplineSet
688 75 m 5
 742 133 l 5
 742 133 802 86 838 52 c 5
 835 34 826 25 812 25 c 6
 200 25 l 5
 200 -145 l 5
 200 -145 159.384615385 -171 112 -171 c 6
 100 -171 l 5
 100 110 l 5
 207 75 l 5
 400 75 l 5
 400 410 l 5
 537 376 l 5
 534 361 526 350 500 346 c 5
 500 75 l 5
 688 75 l 5
EndSplineSet
Substitution2: "Single Substitution lookup 74 subtable" aibu.cvc
Substitution2: "Single Substitution lookup 70 subtable" aibu.ccv
EndChar

StartChar: aubu.cv
Encoding: 61 -1 83
Width: 0
VWidth: 1000
Flags: HW
HStem: 25 50<98 400 500 688>
VStem: 400 100<75 364.36> 700 100<-102.086 24.9712>
AnchorPoint: "Above" 0 500 mark 0
LayerCount: 2
Back
SplineSet
450 350 m 1
 450 150 l 1025
150 150 m 25
 750 150 l 1
 750 -50 l 1049
EndSplineSet
Fore
SplineSet
742 110 m 5
 841 46 l 5
 835 32.5263157895 819 20.7368421053 800 14 c 5
 800 -160 l 5
 800 -160 746.912280702 -185 711 -185 c 6
 700 -185 l 5
 700 25 l 5
 652 25 l 5
 98 25 l 5
 88 75 l 5
 400 75 l 5
 400 410 l 5
 537 376 l 5
 534 361 526 350 500 346 c 5
 500 75 l 5
 643 75 l 5
 688 75 l 5
 742 110 l 5
EndSplineSet
Substitution2: "Single Substitution lookup 74 subtable" aubu.cvc
Substitution2: "Single Substitution lookup 70 subtable" aubu.ccv
EndChar

StartChar: ubu.cv
Encoding: 45 -1 84
Width: 0
VWidth: 1000
Flags: HW
HStem: 325 50<133 690>
VStem: 700 100<28.9143 324.736>
AnchorPoint: "Above" 0 500 mark 0
LayerCount: 2
Back
SplineSet
150 350 m 1
 750 350 l 1
 750 50 l 1029
EndSplineSet
Fore
SplineSet
743 417 m 5
 841 344 l 5
 835 336 819 318 800 314 c 5
 800 -96 l 6
 800 -96 746.912280702 -121 711 -121 c 6
 700 -121 l 5
 700 325 l 5
 133 325 l 5
 124 375 l 5
 690 375 l 5
 743 417 l 5
EndSplineSet
Substitution2: "Single Substitution lookup 74 subtable" ubu.cvc
Substitution2: "Single Substitution lookup 70 subtable" ubu.ccv
EndChar

StartChar: abu.cv
Encoding: 46 -1 85
Width: 0
VWidth: 1000
Flags: W
HStem: 25 50<98 400 500 688> 390 20G<400 480.588>
VStem: 400 100<75 364.36>
AnchorPoint: "Above" 0 500 mark 0
LayerCount: 2
Back
SplineSet
450 350 m 5
 450 50 l 1029
150 50 m 29
 750 50 l 1053
EndSplineSet
Fore
SplineSet
688 75 m 5
 742 133 l 5
 742 133 802 86 838 52 c 5
 835 34 826 25 812 25 c 4
 98 25 l 5
 88 75 l 5
 400 75 l 5
 400 410 l 5
 537 376 l 5
 534 361 526 350 500 346 c 5
 500 75 l 5
 688 75 l 5
EndSplineSet
Substitution2: "Single Substitution lookup 74 subtable" abu.cvc
Substitution2: "Single Substitution lookup 70 subtable" abu.ccv
EndChar

StartChar: sy.ccv.2
Encoding: 132 -1 89
Width: 0
VWidth: 1000
Flags: HW
HStem: 492 21G<610 682.897> 555 16<938 983.611> 835 28<783 1117> 1136 29<797 1108> 1178 20G<719 766.273 1124.5 1167.23>
VStem: 719 66<673.324 835 863 1136> 1117 65<562.136 835 863 1135.86>
AnchorPoint: "Above" 0 500 mark 0
LayerCount: 2
Back
SplineSet
759 850 m 1
 1150.5 850 l 1025
1150.5 550 m 1
 1150.5 1150 l 1
 750 1150 l 1
 750 550 l 1049
EndSplineSet
Fore
SplineSet
1124 1205 m 1
 1244 1140 l 1
 1237 1132 1220 1123 1200 1120 c 1
 1200 582 l 2
 1200 529 1184.52892562 493 1056 482 c 1
 1052 503 1044.04238984 520.076685589 1026 530 c 0
 1006 541 974 551 915 559 c 1
 915 575 l 1
 915 575 1044.87951807 564 1069 564 c 0
 1093 564 1100 572 1100 590 c 2
 1100 825 l 1
 800 825 l 1
 800 506 l 2
 800 497 759.384615385 480 712 480 c 2
 700 480 l 1
 700 1197 l 1
 807 1162 l 1
 1090 1162 l 1
 1124 1205 l 1
1100 875 m 1
 1100 1133 l 1
 800 1133 l 1
 800 875 l 1
 1100 875 l 1
EndSplineSet
EndChar

StartChar: vy.ccv.2
Encoding: 147 -1 97
Width: 0
VWidth: 1000
Flags: W
HStem: 525 50<810 1100>
VStem: 700 100<575.048 1167.14> 1100 100<465.305 525 575 1168.73>
AnchorPoint: "Above" 0 500 mark 0
LayerCount: 2
Back
SplineSet
750 1150 m 25
 750 550 l 1
 1025 550 l 1
 1028 649 1050 757 1091 874 c 0
 1132 991 1177 1082 1226 1147 c 1024
EndSplineSet
Fore
Refer: 52 -1 S 1 0 0 1 600 0 2
EndChar

StartChar: fy.ccv.2
Encoding: 148 -1 98
Width: 0
VWidth: 1000
Flags: HW
HStem: 559 16<915 960.409> 1133 29<800 1090>
VStem: 700 100<487.668 1133> 1100 100<565.23 1131.31>
AnchorPoint: "Above" 0 500 mark 0
LayerCount: 2
Back
Refer: 53 -1 S 1 0 0 1 798 0 2
Fore
SplineSet
1124 1205 m 5
 1244 1140 l 5
 1237 1132 1220 1123 1200 1120 c 5
 1200 582 l 6
 1200 529 1184.52892562 493 1056 482 c 5
 1052 503 1044.04238984 520.076685589 1026 530 c 4
 1006 541 974 551 915 559 c 5
 915 575 l 5
 915 575 1044.87951807 564 1069 564 c 4
 1093 564 1100 572 1100 590 c 6
 1100 1133 l 5
 800 1133 l 5
 800 506 l 6
 800 497 759.384615385 480 712 480 c 6
 700 480 l 5
 700 1197 l 5
 807 1162 l 5
 1090 1162 l 5
 1124 1205 l 5
EndSplineSet
EndChar

StartChar: eibu.ccv
Encoding: 122 -1 104
Width: 0
VWidth: 1000
Flags: HW
HStem: 25 50<400 636> 325 50<412 896>
VStem: 300 100<-276.211 25 75 325>
AnchorPoint: "Above" 0 500 mark 0
LayerCount: 2
Back
SplineSet
350 -250 m 25
 350 350 l 25
 950 350 l 1049
350 50 m 25
 950 50 l 1049
EndSplineSet
Fore
SplineSet
301 -200 m 1
 300.775 -186.608695652 300.375 -167.47826087 300 -156 c 1
 300 434 l 1
 412 375 l 1
 896 375 l 1
 944 424 l 1
 944 424 999 382 1033 350 c 1
 1030 332.8125 1007 325 1007 325 c 2
 400 325 l 1
 400 75 l 1
 636 75 l 1
 696 129 l 1
 696 129 752.777777778 81.6831683168 787 48 c 1
 784 30.75 757 25 757 25 c 2
 400 25 l 1
 400 -154 l 1
 397.623500238 -163.95916515 355.273014725 -199.472486137 301 -200 c 1
EndSplineSet
EndChar

StartChar: obu.ccv
Encoding: 107 -1 105
Width: 0
VWidth: 1000
Flags: HW
HStem: 25 50<330 900>
VStem: 900 100<-70.3929 25 75 368.36>
AnchorPoint: "Above" 0 500 mark 0
LayerCount: 2
Back
SplineSet
950 350 m 25
 950 -50 l 1053
350 150 m 25
 950 150 l 1049
EndSplineSet
Fore
SplineSet
1000 -55 m 1
 1000 -55 954.946428571 -82 913 -82 c 2
 900 -82 l 1
 900 25 l 1
 330 25 l 1
 322 75 l 1
 900 75 l 1
 900 388 l 1
 1037 356 l 1
 1034 341 1026 330 1000 326 c 1
 1000 -55 l 1
EndSplineSet
EndChar

StartChar: oibu.ccv
Encoding: 123 -1 106
Width: 0
VWidth: 1000
Flags: HW
HStem: -300 21G<1106 1206> 0 100<506 1106> 300 100<506 1106>
VStem: 1106 100<-300 0 100 300>
AnchorPoint: "Above" 0 500 mark 0
LayerCount: 2
Back
SplineSet
350 350 m 25
 950 350 l 25
 950 -250 l 1049
350 50 m 25
 950 50 l 1049
EndSplineSet
Fore
SplineSet
947 425 m 1
 1042 341 l 1
 1035.85365854 330.052631579 1019.46341463 320.473684211 1000 315 c 1
 1000 -152 l 2
 1000 -152 946.912280702 -177 911 -177 c 2
 900 -177 l 1
 900 25 l 1
 509 25 l 1
 500 75 l 1
 900 75 l 1
 900 325 l 1
 328 325 l 1
 319 375 l 1
 890 375 l 1
 947 425 l 1
EndSplineSet
EndChar

StartChar: ybu.ccv
Encoding: 111 -1 107
Width: 0
VWidth: 1000
Flags: W
HStem: 25 50<298 600 700 888>
VStem: 600 100<-103.811 25 75 385.36>
AnchorPoint: "Above" 0 500 mark 0
LayerCount: 2
Back
SplineSet
350 150 m 25
 950 150 l 1049
650 350 m 25
 650 -50 l 1053
EndSplineSet
Fore
SplineSet
888 75 m 1
 942 132 l 1
 942 132 1002 85 1038 51 c 1
 1035 33.6666666667 1026 25 1012 25 c 2
 700 25 l 1
 700 -86 l 2
 700 -93.1778339357 654.946428571 -113 613 -113 c 2
 600 -113 l 1
 600 25 l 1
 298 25 l 1
 290 75 l 1
 600 75 l 1
 600 409 l 1
 737 397 l 1
 734 382 726 371 700 367 c 1
 700 75 l 1
 888 75 l 1
EndSplineSet
EndChar

StartChar: ebu.cvc
Encoding: 74 -1 108
Width: 0
VWidth: 1000
Flags: W
HStem: 526 21G<700 733.519> 825 50<800 1094>
VStem: 700 100<537.607 825 875 1168.28>
AnchorPoint: "Above" 0 500 mark 0
LayerCount: 2
Back
SplineSet
1150.5 850 m 1
 750 850 l 1049
750 1150 m 25
 750 550 l 1049
EndSplineSet
Fore
SplineSet
1094 875 m 1
 1139 923 l 1
 1139 923 1191 883 1224 852 c 1
 1221 833.4375 1198 825 1198 825 c 2
 800 825 l 1
 800 553 l 2
 800 553 754.037735849 526 713 526 c 2
 700 526 l 1
 700 1210 l 1
 836 1178 l 1
 833 1164 826 1154 800 1150 c 1
 800 875 l 1
 1094 875 l 1
EndSplineSet
EndChar

StartChar: obu.cvc
Encoding: 75 -1 109
Width: 0
VWidth: 1000
Flags: W
HStem: 825 50<733 1100>
VStem: 1100 100<499 825 875 1169.36>
AnchorPoint: "Above" 0 500 mark 0
LayerCount: 2
Back
SplineSet
1150.5 1150 m 25
 1150.5 550 l 1049
750 850 m 25
 1150.5 850 l 1049
EndSplineSet
Fore
SplineSet
1200 499 m 1
 1200 499 1154.94642857 472 1113 472 c 2
 1100 472 l 1
 1100 825 l 1
 733 825 l 1
 725 875 l 1
 1100 875 l 1
 1100 1213 l 5
 1237 1181 l 5
 1234 1166 1226 1155 1200 1151 c 5
 1200 499 l 1
EndSplineSet
EndChar

StartChar: ibu.cvc
Encoding: 76 -1 110
Width: 0
VWidth: 1000
Flags: HW
HStem: 1125 50<800 1090>
VStem: 700 100<500.668 1125>
AnchorPoint: "Above" 0 500 mark 0
LayerCount: 2
Back
SplineSet
750 550 m 25
 750 1150 l 25
 1150.5 1150 l 1049
EndSplineSet
Fore
SplineSet
1124 1218 m 5
 1244 1153 l 5
 1233.02272727 1142.2 1206.36363636 1130.05 1175 1126 c 5
 1100 1125 l 5
 800 1125 l 5
 800 519 l 6
 800 510 759.384615385 493 712 493 c 6
 700 493 l 5
 700 1210 l 5
 807 1175 l 5
 1090 1175 l 5
 1124 1218 l 5
EndSplineSet
EndChar

StartChar: ubu.cvc
Encoding: 77 -1 111
Width: 0
VWidth: 1000
Flags: W
HStem: 526 21G<1100 1128.96> 1125 50<734 1090>
VStem: 1100 100<537.914 1124.97>
AnchorPoint: "Above" 0 500 mark 0
LayerCount: 2
Back
SplineSet
750 1150 m 25
 1150.5 1150 l 25
 1150.5 550 l 1049
EndSplineSet
Fore
SplineSet
1142 1210 m 1
 1241 1146 l 1
 1235 1132.52631579 1219 1120.73684211 1200 1114 c 1
 1200 551 l 2
 1200 551 1146.9122807 526 1111 526 c 2
 1100 526 l 1
 1100 1125 l 1
 734 1125 l 1
 725 1175 l 1
 1090 1175 l 1
 1142 1210 l 1
EndSplineSet
EndChar

StartChar: abu.cvc
Encoding: 78 -1 112
Width: 0
VWidth: 1000
Flags: W
HStem: 525 50<735 900 1000 1096.5>
VStem: 900 100<575 1154.36>
AnchorPoint: "Above" 0 500 mark 0
LayerCount: 2
Back
SplineSet
750 550 m 25
 1150.5 550 l 1049
950 1150 m 25
 950 550 l 1049
EndSplineSet
Fore
SplineSet
1096.5 575 m 1
 1150.5 634 l 1
 1150.5 634 1210.5 587 1246.5 553 c 1
 1243.5 534.333333333 1234.5 525 1220.5 525 c 0
 735 525 l 1
 725 575 l 1
 900 575 l 1
 900 1198 l 1
 1037 1166 l 1
 1034 1151 1026 1140 1000 1136 c 1
 1000 575 l 1
 1096.5 575 l 1
EndSplineSet
EndChar

StartChar: ybu.cvc
Encoding: 79 -1 113
Width: 0
VWidth: 1000
Flags: HW
HStem: 836 28<726 914 983 1095>
VStem: 914 69<526.726 836 864 1153.36>
AnchorPoint: "Above" 0 500 mark 0
LayerCount: 2
Back
SplineSet
750 850 m 25
 1150.5 850 l 1049
950 1150 m 25
 950 550 l 1049
EndSplineSet
Fore
SplineSet
1095 864 m 1
 1149 932 l 1
 1149 932 1209 885 1245 851 c 1
 1242 841 1219 836 1219 836 c 2
 983 836 l 1
 983 548 l 2
 983 548 954 521 927 521 c 2
 914 521 l 1
 914 836 l 1
 726 836 l 1
 718 864 l 1
 914 864 l 1
 914 1177 l 1
 1020 1165 l 1
 1017 1150 1009 1139 983 1135 c 1
 983 864 l 1
 1095 864 l 1
EndSplineSet
EndChar

StartChar: eibu.cvc
Encoding: 90 -1 114
Width: 0
VWidth: 1000
Flags: HW
HStem: 825 50<800 1008> 1125 50<812 1095>
VStem: 700 100<523.789 825 875 1125>
AnchorPoint: "Above" 0 500 mark 0
LayerCount: 2
Back
SplineSet
1150.5 850 m 1
 750 850 l 1049
750 550 m 25
 750 1150 l 25
 1150.5 1150 l 1049
EndSplineSet
Fore
SplineSet
701 490 m 1
 700.775 503.391304348 700.375 522.52173913 700 534 c 1
 700 1234 l 1
 812 1175 l 1
 1095 1175 l 1
 1143 1224 l 1
 1143 1224 1198 1182 1232 1150 c 1
 1229 1132.8125 1206 1125 1206 1125 c 2
 800 1125 l 1
 800 875 l 1
 1008 875 l 1
 1068 929 l 1
 1068 929 1124.77777778 881.683168317 1159 848 c 1
 1156 830.75 1133.69824219 825 1129 825 c 2
 800 825 l 1
 800 536 l 1
 797.623500238 526.04083485 755.273014725 490.527513863 701 490 c 1
EndSplineSet
EndChar

StartChar: oibu.cvc
Encoding: 91 -1 115
Width: 0
VWidth: 1000
Flags: HW
HStem: 500 21G<1100.5 1200.5> 800 100<700 1100.5> 1100 100<700 1100.5>
VStem: 1100.5 100<500 800 900 1100>
AnchorPoint: "Above" 0 500 mark 0
LayerCount: 2
Back
SplineSet
750 1150 m 25
 1150.5 1150 l 25
 1150.5 550 l 1049
750 850 m 25
 1150.5 850 l 1049
EndSplineSet
Fore
SplineSet
1147 1225 m 1
 1242 1141 l 1
 1235.85365854 1130.05263158 1219.46341463 1120.47368421 1200 1115 c 1
 1200 520 l 2
 1200 520 1146.9122807 495 1111 495 c 2
 1100 495 l 1
 1100 825 l 1
 850 825 l 1
 841 875 l 1
 1100 875 l 1
 1100 1125 l 1
 704 1125 l 1
 695 1175 l 1
 1090 1175 l 1
 1147 1225 l 1
EndSplineSet
EndChar

StartChar: aibu.cvc
Encoding: 92 -1 116
Width: 0
VWidth: 1000
Flags: HW
HStem: 500 21G<700 800> 800 100<800 900 1000 1200.5> 1180 20G<900 1000>
VStem: 700 100<500 800> 900 100<900 1200>
AnchorPoint: "Above" 0 500 mark 0
LayerCount: 2
Back
SplineSet
950 1150 m 25
 950 850 l 1049
750 550 m 25
 750 850 l 17
 878 850 l 4
 1150.5 850 l 1033
EndSplineSet
Fore
SplineSet
1068 875 m 1
 1122 933 l 1
 1122 933 1182 886 1218 852 c 1
 1215 834 1192 825 1192 825 c 2
 800 825 l 1
 800 526 l 1
 800 526 759.384615385 500 712 500 c 2
 700 500 l 1
 700 910 l 1
 807 875 l 1
 900 875 l 1
 900 1210 l 1
 1037 1176 l 1
 1034 1161 1026 1150 1000 1146 c 1
 1000 875 l 1
 1068 875 l 1
EndSplineSet
EndChar

StartChar: aubu.cvc
Encoding: 93 -1 117
Width: 0
VWidth: 1000
Flags: HW
HStem: 825 50<720 900 1000 1088>
VStem: 900 100<875 1164.36> 1100 100<508.914 824.971>
AnchorPoint: "Above" 0 500 mark 0
LayerCount: 2
Back
SplineSet
750 850 m 25
 1150.5 850 l 25
 1150.5 550 l 1049
950 1150 m 25
 950 850 l 1049
EndSplineSet
Fore
SplineSet
1142 910 m 1
 1241 846 l 1
 1235 832.52631579 1219 820.736842105 1200 814 c 1
 1200 522 l 1
 1200 522 1146.9122807 497 1111 497 c 2
 1100 497 l 1
 1100 825 l 1
 1052 825 l 1
 720 825 l 1
 710 875 l 1
 900 875 l 1
 900 1210 l 1
 1037 1176 l 1
 1034 1161 1026 1150 1000 1146 c 1
 1000 875 l 1
 1043 875 l 1
 1088 875 l 1
 1142 910 l 1
EndSplineSet
EndChar

StartChar: ibu.ccv
Encoding: 108 -1 119
Width: 0
VWidth: 1000
Flags: W
HStem: 325 50<400 894>
VStem: 300 100<69.1848 325>
AnchorPoint: "Above" 0 500 mark 0
LayerCount: 2
Back
SplineSet
350 -50 m 29
 350 350 l 25
 950 350 l 1049
EndSplineSet
Fore
SplineSet
894 375 m 1
 944 427 l 1
 944 427 1001 383 1037 350 c 1
 1035 332.8125 1024 325 1010 325 c 2
 400 325 l 1
 400 228.639648438 l 2
 400 140.41015625 389.044585987 22.599609375 228 -59.509765625 c 1
 214 -54.41015625 l 1
 292.557692308 29.740234375 300 132.759765625 300 228.639648438 c 2
 300 409 l 1
 411 375 l 1
 894 375 l 1
EndSplineSet
EndChar

StartChar: ubu.ccv
Encoding: 109 -1 120
Width: 0
VWidth: 1000
Flags: HW
HStem: 17 21G<900 911> 325 50<335 890>
VStem: 900 100<28.9143 324.745>
AnchorPoint: "Above" 0 500 mark 0
LayerCount: 2
Back
SplineSet
350 350 m 25
 950 350 l 25
 950 -50 l 1053
EndSplineSet
Fore
SplineSet
945 418 m 1
 1041 344 l 1
 1035 331.368421053 1019 320.315789474 1000 314 c 1
 1000 42 l 2
 1000 42 946.912280702 17 911 17 c 2
 900 17 l 1
 900 325 l 1
 335 325 l 1
 326 375 l 1
 890 375 l 1
 945 418 l 1
EndSplineSet
EndChar

StartChar: abu.ccv
Encoding: 110 -1 121
Width: 0
VWidth: 1000
Flags: W
HStem: 25 50<298 600 700 888> 365 20G<600 685.625>
VStem: 600 100<75 341.36>
AnchorPoint: "Above" 0 500 mark 0
LayerCount: 2
Back
SplineSet
350 50 m 29
 950 50 l 1053
650 350 m 25
 650 50 l 1053
EndSplineSet
Fore
SplineSet
888 75 m 1
 942 133 l 1
 942 133 1002 86 1038 52 c 1
 1035 34 1026 25 1012 25 c 0
 298 25 l 1
 290 75 l 1
 600 75 l 1
 600 385 l 1
 737 353 l 1
 734 338 726 327 700 323 c 1
 700 75 l 1
 888 75 l 1
EndSplineSet
EndChar

StartChar: aibu.ccv
Encoding: 124 -1 122
Width: 0
VWidth: 1000
Flags: HW
HStem: 25 50<400 600 700 888>
VStem: 300 100<-160.425 25> 600 100<75 364.36>
AnchorPoint: "Above" 0 500 mark 0
LayerCount: 2
Back
SplineSet
350 -250 m 25
 350 50 l 25
 950 50 l 1049
650 350 m 25
 650 50 l 1049
EndSplineSet
Fore
SplineSet
888 75 m 1
 942 133 l 1
 942 133 1002 86 1038 52 c 1
 1035 34 1026 25 1012 25 c 2
 400 25 l 1
 400 -145 l 1
 400 -145 359.384615385 -171 312 -171 c 2
 300 -171 l 1
 300 110 l 1
 407 75 l 1
 600 75 l 1
 600 410 l 1
 737 376 l 1
 734 361 726 350 700 346 c 1
 700 75 l 1
 888 75 l 1
EndSplineSet
EndChar

StartChar: aubu.ccv
Encoding: 125 -1 123
Width: 0
VWidth: 1000
Flags: HW
HStem: 25 50<298 600 700 888>
VStem: 600 100<75 364.36> 900 100<-173.086 24.9712>
AnchorPoint: "Above" 0 500 mark 0
LayerCount: 2
Back
SplineSet
350 50 m 25
 950 50 l 25
 950 -250 l 1049
650 350 m 25
 650 47 l 1049
EndSplineSet
Fore
SplineSet
942 110 m 5
 1041 46 l 5
 1035 32.5263157895 1019 20.7368421053 1000 14 c 5
 1000 -160 l 5
 1000 -160 946.912280702 -185 911 -185 c 6
 900 -185 l 5
 900 25 l 5
 852 25 l 5
 298 25 l 5
 288 75 l 5
 600 75 l 5
 600 410 l 5
 737 376 l 5
 734 361 726 350 700 346 c 5
 700 75 l 5
 843 75 l 5
 888 75 l 5
 942 110 l 5
EndSplineSet
EndChar

StartChar: guillemotleft
Encoding: 160 171 145
Width: 1200
VWidth: 1000
Flags: W
LayerCount: 2
Back
SplineSet
879.014648438 654.514648438 m 5
 607.514648438 440.014648438 l 1
 879.014648438 225.514648438 l 1025
607.514648438 654.514648438 m 5
 336.014648438 440.014648438 l 1
 607.514648438 225.514648438 l 1025
EndSplineSet
Fore
SplineSet
634 747 m 5
 376 453 l 5
 634 160.5 l 5
 604 124.5 l 5
 262 417 l 5
 262 490.5 l 5
 604 783 l 5
 634 747 l 5
959.5 747 m 5
 700 453 l 5
 959.5 160.5 l 5
 928 124.5 l 5
 587.5 417 l 5
 587.5 490.5 l 5
 928 783 l 5
 959.5 747 l 5
EndSplineSet
EndChar

StartChar: parenleft
Encoding: 162 40 148
Width: 750
VWidth: 345
Flags: W
HStem: 1197.07 20G<549.426 593.493>
VStem: 106.015 100<230.894 644.95>
LayerCount: 2
Back
SplineSet
565.514648438 1148.01464844 m 24
 559.80859375 1144.36621094 552.04296875 1139.08886719 542.217773438 1132.18457031 c 0
 532.391601562 1125.27929688 513.30078125 1109.84472656 484.9453125 1085.87890625 c 0
 456.58984375 1061.91308594 429.517578125 1036.59472656 403.728515625 1009.92285156 c 0
 377.940429688 983.250976562 349.297851562 948.65234375 317.803710938 906.126953125 c 0
 286.30859375 863.602539062 259.236328125 819.9765625 236.586914062 775.250976562 c 0
 213.936523438 730.525390625 194.845703125 678.4765625 179.313476562 619.10546875 c 0
 163.78125 559.734375 156.015625 499.537109375 156.014648438 438.514648438 c 0
 156.013671875 377.700195312 163.541992188 317.842773438 178.59765625 258.943359375 c 0
 193.653320312 200.04296875 213.219726562 147.825195312 237.295898438 102.2890625 c 0
 261.372070312 56.751953125 287.969726562 13.5185546875 317.086914062 -27.4111328125 c 0
 346.204101562 -68.341796875 375.321289062 -103.190429688 404.439453125 -131.958007812 c 0
 433.556640625 -160.725585938 460.154296875 -185.713867188 484.23046875 -206.924804688 c 0
 508.307617188 -228.135742188 527.874023438 -243.864257812 542.930664062 -254.11328125 c 2
 565.514648438 -269.485351562 l 1025
EndSplineSet
Fore
SplineSet
607.639648438 1174.94921875 m 1
 634.57421875 1132.82421875 l 1
 592.44921875 1105.88964844 l 2
 587.802734375 1102.91894531 580.4375 1097.93066406 570.965820312 1091.27539062 c 0
 564.361328125 1086.63378906 544.974609375 1071.1484375 517.220703125 1047.69140625 c 0
 490.142578125 1024.8046875 464.297851562 1000.63476562 439.674804688 975.16796875 c 0
 416.029296875 950.711914062 388.564453125 917.66015625 357.983398438 876.368164062 c 0
 328.06640625 835.973632812 302.5078125 794.751953125 281.193359375 752.661132812 c 0
 260.490234375 711.78125 242.4921875 663.046875 227.685546875 606.451171875 c 0
 213.215820312 551.141601562 206.015625 495.290039062 206.014648438 438.513671875 c 0
 206.013671875 381.830078125 213.0078125 326.221679688 227.040039062 271.326171875 c 0
 241.280273438 215.616210938 259.57421875 167.124023438 281.498046875 125.659179688 c 0
 304.57421875 82.0126953125 330.015625 40.669921875 357.829101562 1.572265625 c 0
 385.592773438 -37.455078125 412.965820312 -70.095703125 439.581054688 -96.3896484375 c 0
 468.1640625 -124.629882812 494.115234375 -148.997070312 517.282226562 -169.407226562 c 0
 540.44921875 -189.81640625 558.923828125 -204.515625 571.064453125 -212.779296875 c 2
 593.6484375 -228.151367188 l 1
 634.982421875 -256.286132812 l 1
 606.848632812 -297.619140625 l 1
 578.713867188 -338.953125 l 1
 537.380859375 -310.819335938 l 1
 514.796875 -295.447265625 l 2
 496.82421875 -283.212890625 476.166015625 -266.455078125 451.178710938 -244.442382812 c 0
 426.193359375 -222.430664062 398.94921875 -196.821289062 369.297851562 -167.526367188 c 0
 337.676757812 -136.28515625 306.815429688 -99.228515625 276.344726562 -56.39453125 c 0
 245.923828125 -13.6328125 218.169921875 31.4912109375 193.09375 78.9189453125 c 0
 166.865234375 128.526367188 146.026367188 184.469726562 130.155273438 246.560546875 c 0
 114.076171875 309.463867188 106.013671875 373.5703125 106.014648438 438.515625 c 0
 106.015625 503.784179688 114.346679688 568.327148438 130.94140625 631.759765625 c 0
 147.19921875 693.90625 167.3828125 749.26953125 191.98046875 797.840820312 c 0
 215.96484375 845.201171875 244.55078125 891.231445312 277.624023438 935.885742188 c 0
 310.03125 979.64453125 339.8515625 1015.79003906 367.782226562 1044.67773438 c 0
 394.737304688 1072.5546875 423.037109375 1099.02148438 452.669921875 1124.06640625 c 0
 481.626953125 1148.54101562 500.421875 1163.92480469 513.469726562 1173.09375 c 0
 523.6484375 1180.24707031 531.814453125 1185.81347656 538.580078125 1190.13964844 c 2
 580.705078125 1217.07421875 l 1
 607.639648438 1174.94921875 l 1
EndSplineSet
EndChar

StartChar: denpabu_iy
Encoding: 174 -1 149
Width: 1215
VWidth: 3640
Flags: W
HStem: 278.256 100<247.817 1070.29> 579.015 100<592.701 811.329> 1095.01 100<592.701 811.329>
VStem: 147.817 100<377.482 1191.72> 400.015 100<773.256 1000.77> 904.015 100<773.256 1000.77>
AnchorPoint: "Above" 0 500 basechar 0
LayerCount: 2
Back
SplineSet
197.817382812 1141.71777344 m 5
 197.817382812 327.432617188 l 1
 1020.34472656 328.255859375 l 1025
450.014648438 887.014648438 m 0
 450.014648438 958.301757812 474.5859375 1019.12304688 523.729492188 1069.47949219 c 0
 572.872070312 1119.8359375 632.30078125 1145.01464844 702.014648438 1145.01464844 c 0
 771.728515625 1145.01464844 831.157226562 1119.8359375 880.299804688 1069.47949219 c 0
 929.443359375 1019.12304688 954.014648438 958.301757812 954.014648438 887.014648438 c 0
 954.014648438 815.727539062 929.443359375 754.90625 880.299804688 704.549804688 c 0
 831.157226562 654.193359375 771.728515625 629.014648438 702.014648438 629.014648438 c 0
 632.30078125 629.014648438 572.872070312 654.193359375 523.729492188 704.549804688 c 0
 474.5859375 754.90625 450.014648438 815.727539062 450.014648438 887.014648438 c 0
EndSplineSet
Fore
SplineSet
400.014648438 887.014648438 m 0
 400.014648438 970.327148438 430.145507812 1045.17382812 487.9453125 1104.40136719 c 0
 545.7734375 1163.65722656 619.592773438 1195.01464844 702.014648438 1195.01464844 c 0
 784.436523438 1195.01464844 858.255859375 1163.65722656 916.083007812 1104.40136719 c 0
 973.884765625 1045.17382812 1004.01464844 970.327148438 1004.01464844 887.014648438 c 0
 1004.01464844 803.702148438 973.883789062 728.85546875 916.083984375 669.627929688 c 0
 858.255859375 610.372070312 784.436523438 579.014648438 702.014648438 579.014648438 c 0
 619.592773438 579.014648438 545.7734375 610.372070312 487.946289062 669.627929688 c 0
 430.14453125 728.85546875 400.014648438 803.702148438 400.014648438 887.014648438 c 0
500.014648438 887.014648438 m 0
 500.014648438 827.752929688 519.02734375 780.95703125 559.512695312 739.471679688 c 0
 599.970703125 698.014648438 645.008789062 679.014648438 702.014648438 679.014648438 c 0
 759.020507812 679.014648438 804.05859375 698.014648438 844.515625 739.471679688 c 0
 885.002929688 780.95703125 904.014648438 827.752929688 904.014648438 887.014648438 c 0
 904.014648438 946.276367188 885.001953125 993.072265625 844.516601562 1034.55761719 c 0
 804.05859375 1076.01464844 759.020507812 1095.01464844 702.014648438 1095.01464844 c 0
 645.008789062 1095.01464844 599.970703125 1076.01464844 559.513671875 1034.55761719 c 0
 519.026367188 993.072265625 500.014648438 946.276367188 500.014648438 887.014648438 c 0
197.817382812 1191.71777344 m 1
 247.817382812 1191.71777344 l 1
 247.817382812 1141.71777344 l 1
 247.817382812 377.482421875 l 1
 1020.29492188 378.255859375 l 1
 1070.29492188 378.305664062 l 1
 1070.34472656 328.305664062 l 1
 1070.39453125 278.305664062 l 1
 1020.39453125 278.255859375 l 1
 197.8671875 277.432617188 l 2
 176.315429688 277.411132812 147.817382812 297.18359375 147.817382812 327.432617188 c 2
 147.817382812 1141.71777344 l 1
 147.817382812 1191.71777344 l 1
 197.817382812 1191.71777344 l 1
EndSplineSet
Ligature2: "Vdenpabu subtable" denpabu iy
EndChar

StartChar: denpabu_uy
Encoding: 175 -1 150
Width: 1215
VWidth: 3640
Flags: W
HStem: 278.256 100<147.817 973.642> 577.515 100<405.201 623.829> 1093.51 100<405.201 623.829>
VStem: 212.515 100<771.756 999.274> 716.515 100<771.756 999.274> 973.642 100<378.256 1201.61>
AnchorPoint: "Above" 0 500 basechar 0
LayerCount: 2
Back
SplineSet
197.817382812 328.255859375 m 1
 1023.64160156 328.255859375 l 1
 1023.64160156 1151.60839844 l 1025
262.514648438 885.514648438 m 0
 262.514648438 956.801757812 287.0859375 1017.62304688 336.229492188 1067.97949219 c 0
 385.372070312 1118.3359375 444.80078125 1143.51464844 514.514648438 1143.51464844 c 0
 584.228515625 1143.51464844 643.657226562 1118.3359375 692.799804688 1067.97949219 c 0
 741.943359375 1017.62304688 766.514648438 956.801757812 766.514648438 885.514648438 c 0
 766.514648438 814.227539062 741.943359375 753.40625 692.799804688 703.049804688 c 0
 643.657226562 652.693359375 584.228515625 627.514648438 514.514648438 627.514648438 c 0
 444.80078125 627.514648438 385.372070312 652.693359375 336.229492188 703.049804688 c 0
 287.0859375 753.40625 262.514648438 814.227539062 262.514648438 885.514648438 c 0
EndSplineSet
Fore
SplineSet
212.514648438 885.514648438 m 0
 212.514648438 968.827148438 242.645507812 1043.67382812 300.4453125 1102.90136719 c 0
 358.2734375 1162.15722656 432.092773438 1193.51464844 514.514648438 1193.51464844 c 0
 596.936523438 1193.51464844 670.755859375 1162.15722656 728.583007812 1102.90136719 c 0
 786.384765625 1043.67382812 816.514648438 968.827148438 816.514648438 885.514648438 c 0
 816.514648438 802.202148438 786.383789062 727.35546875 728.583984375 668.127929688 c 0
 670.755859375 608.872070312 596.936523438 577.514648438 514.514648438 577.514648438 c 0
 432.092773438 577.514648438 358.2734375 608.872070312 300.446289062 668.127929688 c 0
 242.64453125 727.35546875 212.514648438 802.202148438 212.514648438 885.514648438 c 0
312.514648438 885.514648438 m 0
 312.514648438 826.252929688 331.52734375 779.45703125 372.012695312 737.971679688 c 0
 412.470703125 696.514648438 457.508789062 677.514648438 514.514648438 677.514648438 c 0
 571.520507812 677.514648438 616.55859375 696.514648438 657.015625 737.971679688 c 0
 697.502929688 779.45703125 716.514648438 826.252929688 716.514648438 885.514648438 c 0
 716.514648438 944.776367188 697.501953125 991.572265625 657.016601562 1033.05761719 c 0
 616.55859375 1074.51464844 571.520507812 1093.51464844 514.514648438 1093.51464844 c 0
 457.508789062 1093.51464844 412.470703125 1074.51464844 372.013671875 1033.05761719 c 0
 331.526367188 991.572265625 312.514648438 944.776367188 312.514648438 885.514648438 c 0
147.817382812 328.255859375 m 1
 147.817382812 378.255859375 l 1
 197.817382812 378.255859375 l 1
 973.641601562 378.255859375 l 1
 973.641601562 1151.60839844 l 1
 973.641601562 1201.60839844 l 1
 1023.64160156 1201.60839844 l 1
 1073.64160156 1201.60839844 l 1
 1073.64160156 1151.60839844 l 1
 1073.64160156 328.255859375 l 2
 1073.64160156 306.795898438 1053.90625 278.255859375 1023.64160156 278.255859375 c 2
 197.817382812 278.255859375 l 1
 147.817382812 278.255859375 l 1
 147.817382812 328.255859375 l 1
EndSplineSet
Ligature2: "Vdenpabu subtable" denpabu uy
EndChar

StartChar: question
Encoding: 165 63 152
Width: 690
VWidth: 1000
Flags: W
HStem: -37.5 183<190.156 329.7>
VStem: 168 184.5<-14.8392 122.334> 196.5 88.5<349.594 488.573> 240 46.5<313.5 349.038> 508.5 70.5<686.489 878.787>
LayerCount: 2
Fore
SplineSet
259.5 145.5 m 0xc8
 310.5 145.5 352.5 102 352.5 54 c 0
 352.5 4.5 310.5 -37.5 259.5 -37.5 c 0
 208.5 -37.5 168 4.5 168 54 c 0
 168 102 208.5 145.5 259.5 145.5 c 0xc8
456 910.5 m 1
 237 948 l 2
 156 961.5 136.5 990 136.5 1026 c 0
 136.5 1069.5 160.5 1090.5 210 1104 c 1
 355.5 1083 579 961.5 579 751.5 c 0
 579 646.5 526.5 579 423 537 c 2
 370.5 514.5 l 2
 297 486 285 469.5 285 415.5 c 2xa8
 286.5 313.5 l 1
 240 313.5 l 1x98
 220.5 379.5 l 2
 204 439.5 196.5 468 196.5 489 c 0xa8
 196.5 538.5 228 567 324 604.5 c 2
 402 636 l 2
 475.5 669 508.5 709.5 508.5 775.5 c 0
 507 823.5 487.5 870 456 910.5 c 1
EndSplineSet
EndChar

StartChar: .notdef
Encoding: 257 -1 162
Width: 0
VWidth: 345
Flags: W
HStem: -319.485 100<132.358 557.515 657.515 1182.51>
VStem: 32.5146 99.8438<-219.485 264.858> 557.515 100<-219.485 -34.9854>
LayerCount: 2
Back
SplineSet
607.514648438 -269.485351562 m 5
 607.514648438 -84.9853515625 l 1025
81 215.014648438 m 29
 82.5146484375 -269.485351562 l 1
 1132.51464844 -269.485351562 l 1025
EndSplineSet
Fore
SplineSet
80.84375 265.014648438 m 1
 130.84375 265.170898438 l 1
 131 215.170898438 l 1
 132.358398438 -219.485351562 l 1
 557.514648438 -219.485351562 l 1
 557.514648438 -84.9853515625 l 1
 557.514648438 -34.9853515625 l 1
 607.514648438 -34.9853515625 l 1
 657.514648438 -34.9853515625 l 1
 657.514648438 -84.9853515625 l 1
 657.514648438 -219.485351562 l 1
 1132.51464844 -219.485351562 l 1
 1182.51464844 -219.485351562 l 1
 1182.51464844 -269.485351562 l 1
 1182.51464844 -319.485351562 l 1
 1132.51464844 -319.485351562 l 1
 657.514648438 -319.485351562 l 1
 607.514648438 -319.485351562 l 1
 557.514648438 -319.485351562 l 1
 82.5146484375 -319.485351562 l 2
 57.7529296875 -319.485351562 32.603515625 -298.102539062 32.5146484375 -269.641601562 c 2
 31 214.858398438 l 1
 30.84375 264.858398438 l 1
 80.84375 265.014648438 l 1
EndSplineSet
EndChar

StartChar: NameMe.192
Encoding: 258 -1 163
Width: 1000
VWidth: 0
Flags: W
HStem: -182 100<215.002 516.002> -48 100<115 115.003 215.007 516.003> 85 100<215.008 516.008> 217.01 100<-17 750> 350 100<215.002 516.002> 484 100<115 115.003 215.007 516.003> 617 100<215.008 516.008>
VStem: 115.003 99.999<-82 -48 52 85 450 484 584 617> 516.002 99.998<-82 -48 52 85 450 484 584 617>
LayerCount: 2
Back
SplineSet
165.009765625 135 m 5
 566.009765625 135 l 1
 566 -132 l 1
 165 -132 l 1
 165.009765625 135 l 5
165 2 m 5
 566 2 l 1025
33 267.009765625 m 25
 700 267.009765625 l 1025
165.009765625 667 m 1
 566.009765625 667 l 1
 566 400 l 1
 165 400 l 1
 165.009765625 667 l 1
165 534 m 1
 566 534 l 1025
EndSplineSet
Fore
SplineSet
115 534 m 1
 115 584 l 1
 115.006835938 584 l 1
 115.006835938 611.666992188 115.009765625 639.334960938 115.009765625 667.001953125 c 0
 115.010742188 695.405273438 139.963867188 717 165.009765625 717 c 2
 566.009765625 717 l 2
 596.274414062 717 616.010742188 688.4609375 616.009765625 666.998046875 c 2
 616 399.998046875 l 2
 615.999023438 371.594726562 591.045898438 350 566 350 c 2
 165 350 l 2
 134.735351562 350 114.999023438 378.5390625 115 400.001953125 c 0
 115 428.000976562 115.002929688 456.000976562 115.002929688 484 c 1
 115 484 l 1
 115 534 l 1
-17 267.009765625 m 1
 -17 317.009765625 l 1
 33 317.009765625 l 1
 700 317.009765625 l 1
 750 317.009765625 l 1
 750 267.009765625 l 1
 750 217.009765625 l 1
 700 217.009765625 l 1
 33 217.009765625 l 1
 -17 217.009765625 l 1
 -17 267.009765625 l 1
115 2 m 1
 115 52 l 1
 115.006835938 52 l 1
 115.006835938 79.6669921875 115.009765625 107.334960938 115.009765625 135.001953125 c 0
 115.010742188 163.405273438 139.963867188 185 165.009765625 185 c 2
 566.009765625 185 l 2
 596.274414062 185 616.010742188 156.4609375 616.009765625 134.998046875 c 2
 616 -132.001953125 l 2
 615.999023438 -160.405273438 591.045898438 -182 566 -182 c 2
 165 -182 l 2
 134.735351562 -182 114.999023438 -153.4609375 115 -131.998046875 c 0
 115 -103.999023438 115.002929688 -75.9990234375 115.002929688 -48 c 1
 115 -48 l 1
 115 2 l 1
516.006835938 584 m 1
 516.006835938 595 516.0078125 606 516.0078125 617 c 1
 215.0078125 617 l 1
 215.0078125 606 215.006835938 595 215.006835938 584 c 1
 516.006835938 584 l 1
516.002929688 484 m 1
 215.002929688 484 l 1
 215.002929688 472.666992188 215.001953125 461.333007812 215.001953125 450 c 1
 516.001953125 450 l 1
 516.001953125 461.333007812 516.002929688 472.666992188 516.002929688 484 c 1
516.006835938 52 m 1
 516.006835938 63 516.0078125 74 516.0078125 85 c 1
 215.0078125 85 l 1
 215.0078125 74 215.006835938 63 215.006835938 52 c 1
 516.006835938 52 l 1
516.002929688 -48 m 1
 215.002929688 -48 l 1
 215.002929688 -59.3330078125 215.001953125 -70.6669921875 215.001953125 -82 c 1
 516.001953125 -82 l 1
 516.001953125 -70.6669921875 516.002929688 -59.3330078125 516.002929688 -48 c 1
EndSplineSet
EndChar

StartChar: zy_dy
Encoding: 259 -1 164
Width: 900
VWidth: 345
Flags: W
HStem: 501 100<200 400 500 800> 801 100<200 400 500 701> 1101 100<500 800>
VStem: 100 100<601 801 901 1201> 400 100<601 801 901 1101>
CounterMasks: 1 e0
LayerCount: 2
Back
SplineSet
450 551.75 m 28
 450 1151 l 29
 750 1151 l 1053
750 551 m 5
 150 551 l 5
 150 1151 l 1053
651 851 m 29
 150 851 l 1029
EndSplineSet
Fore
SplineSet
701 851 m 1
 701 801 l 1
 651 801 l 1
 500 801 l 1
 500 601 l 1
 750 601 l 1
 800 601 l 1
 800 551 l 1
 800 501 l 1
 750 501 l 1
 150 501 l 2
 119.735351562 501 100 529.540039062 100 551 c 2
 100 801 l 1
 100 851 l 1
 100 901 l 1
 100 1151 l 1
 100 1201 l 1
 150 1201 l 1
 200 1201 l 1
 200 1151 l 1
 200 901 l 1
 400 901 l 1
 400 1151 l 2
 400 1181.26464844 428.540039062 1201 450 1201 c 2
 750 1201 l 1
 800 1201 l 1
 800 1151 l 1
 800 1101 l 1
 750 1101 l 1
 500 1101 l 1
 500 901 l 1
 651 901 l 1
 701 901 l 1
 701 851 l 1
200 801 m 1
 200 601 l 1
 400 601 l 1
 400 801 l 1
 200 801 l 1
EndSplineSet
EndChar

StartChar: zy_vy
Encoding: 195 -1 165
Width: 900
VWidth: 0
Flags: W
HStem: 501 100<200 400 500 615.948> 801 100<200 400> 1181 20G<100 200 400 500 836.095 877.702>
VStem: 100 100<601 801 901 1201> 400 100<601 801 901 1201>
AnchorPoint: "Above" 0 500 basechar 0
LayerCount: 2
Back
SplineSet
450 1151 m 29
 450 551.75 l 1052
861 1148 m 4
 812 1083 767 992 726 875 c 132
 685 758 663 650 660 551 c 5
 150 551 l 5
 150 1151 l 1053
439.5 851 m 29
 150 851 l 1029
EndSplineSet
Fore
SplineSet
891.098632812 1187.92578125 m 1
 931.024414062 1157.828125 l 1
 900.92578125 1117.90136719 l 2
 856.521484375 1058.99707031 813.103515625 972.374023438 773.186523438 858.46484375 c 0
 733.505859375 745.229492188 712.786132812 642.17578125 709.977539062 549.485351562 c 0
 709.158203125 522.4765625 685.974609375 501 660 501 c 2
 150 501 l 2
 119.735351562 501 100 529.540039062 100 551 c 2
 100 801 l 1
 100 851 l 1
 100 901 l 1
 100 1151 l 1
 100 1201 l 1
 150 1201 l 1
 200 1201 l 1
 200 1151 l 1
 200 901 l 1
 400 901 l 1
 400 1151 l 1
 400 1201 l 1
 450 1201 l 1
 500 1201 l 1
 500 1151 l 1
 500 601 l 1
 612.864257812 601 l 1
 620.688476562 691.271484375 642.9375 789.157226562 678.813476562 891.53515625 c 0
 720.896484375 1011.62597656 767.478515625 1107.00292969 821.07421875 1178.09863281 c 2
 851.171875 1218.02441406 l 1
 891.098632812 1187.92578125 l 1
200 801 m 1
 200 601 l 1
 400 601 l 1
 400 801 l 1
 200 801 l 1
EndSplineSet
EndChar

StartChar: NameMe.210
Encoding: 210 -1 166
Width: 900
VWidth: 0
Flags: W
HStem: 501 100<100 400 500 800> 801 100<500 700> 1101 100<100 400 500 700>
VStem: 400 100<601 801 901 1101> 700 100<901 1101>
CounterMasks: 1 e0
LayerCount: 2
Back
SplineSet
450 1151 m 5
 750 1151 l 5
 750 851 l 5
 450 851 l 1029
150 551 m 5
 750 551 l 1029
150 1151 m 5
 450 1151 l 5
 450 551 l 1029
EndSplineSet
Fore
SplineSet
100 1151 m 1
 100 1201 l 1
 150 1201 l 1
 400 1201 l 1
 450 1201 l 1
 750 1201 l 2
 780.264648438 1201 800 1172.45996094 800 1151 c 2
 800 851 l 2
 800 820.735351562 771.459960938 801 750 801 c 2
 500 801 l 1
 500 601 l 1
 750 601 l 1
 800 601 l 1
 800 551 l 1
 800 501 l 1
 750 501 l 1
 500 501 l 1
 450 501 l 1
 400 501 l 1
 150 501 l 1
 100 501 l 1
 100 551 l 1
 100 601 l 1
 150 601 l 1
 400 601 l 1
 400 801 l 1
 400 851 l 1
 400 901 l 1
 400 1101 l 1
 150 1101 l 1
 100 1101 l 1
 100 1151 l 1
500 1101 m 1
 500 901 l 1
 700 901 l 1
 700 1101 l 1
 500 1101 l 1
EndSplineSet
EndChar

StartChar: NameMe.242
Encoding: 242 -1 167
Width: 900
VWidth: 0
Flags: W
HStem: 489.004 21G<710.162 763.995> 501 100<100 400> 1101 100<100 400> 1193.96 20G<711.348 765.39>
VStem: 400 100<676.177 1019.97>
LayerCount: 2
Back
SplineSet
450 1118 m 29
 450 581 l 1053
750 551 m 5
 683.767578125 778.170898438 604.852539062 1015.43066406 450 1151 c 5
 150 1151 l 1029
750 1151 m 5
 683.127929688 944.290039062 602.469726562 660.912109375 450 551 c 5
 150 551 l 1053
EndSplineSet
Fore
SplineSet
765.389648438 1198.57226562 m 1x18
 812.962890625 1183.18261719 l 1
 797.572265625 1135.61035156 l 2
 770.112304688 1050.72558594 740.567382812 949.638671875 702.70703125 851.508789062 c 1
 740.473632812 758.229492188 770.352539062 659.827148438 798.000976562 564.995117188 c 2
 811.99609375 516.993164062 l 1
 763.995117188 502.999023438 l 1
 715.993164062 489.00390625 l 1x98
 701.999023438 537.004882812 l 2
 684.075195312 598.479492188 665.176757812 660.004882812 644.381835938 719.458984375 c 1
 600.7265625 634.3828125 547.358398438 559.545898438 479.23828125 510.440429688 c 0
 470.6875 504.276367188 458.911132812 501 450 501 c 2
 150 501 l 1
 100 501 l 1
 100 551 l 1
 100 601 l 1
 150 601 l 1
 400 601 l 1
 400 1101 l 1
 150 1101 l 1
 100 1101 l 1
 100 1151 l 1
 100 1201 l 1
 150 1201 l 1
 450 1201 l 2x68
 461.598632812 1201 473.8359375 1196.58691406 482.935546875 1188.62011719 c 0
 547.515625 1132.08203125 598.969726562 1061.19140625 641.586914062 982.538085938 c 1
 663.530273438 1045.18261719 683.598632812 1108.18652344 702.427734375 1166.38964844 c 2
 717.817382812 1213.96289062 l 1
 765.389648438 1198.57226562 l 1x18
592.298828125 852.724609375 m 1
 565.206054688 914.080078125 534.866210938 970.811523438 500 1019.96972656 c 1
 500 676.176757812 l 1
 534.203125 725.41796875 564.680664062 786.616210938 592.298828125 852.724609375 c 1
EndSplineSet
EndChar

StartChar: NameMe.212
Encoding: 212 -1 168
Width: 900
VWidth: 0
Flags: W
HStem: 501 100<500 800> 801 100<500 700> 1101 100<200 400 500 700>
VStem: 100 100<501 1101> 400 100<601 801 901 1101> 700 100<901 1101>
CounterMasks: 1 fc
LayerCount: 2
Back
SplineSet
450 851 m 5
 750 851 l 5
 750 1151 l 5
 450 1151 l 5
 150 1151 l 5
 150 551 l 1052
750 551 m 5
 450 551 l 5
 450 1151 l 1029
EndSplineSet
Fore
SplineSet
800 551 m 1
 800 501 l 1
 750 501 l 1
 450 501 l 2
 419.735351562 501 400 529.540039062 400 551 c 2
 400 801 l 1
 400 851 l 1
 400 901 l 1
 400 1101 l 1
 200 1101 l 1
 200 551 l 1
 200 501 l 1
 150 501 l 1
 100 501 l 1
 100 551 l 1
 100 1151 l 2
 100 1172.45996094 119.735351562 1201 150 1201 c 2
 400 1201 l 1
 450 1201 l 1
 500 1201 l 1
 750 1201 l 2
 771.459960938 1201 800 1181.26464844 800 1151 c 2
 800 851 l 2
 800 829.540039062 780.264648438 801 750 801 c 2
 500 801 l 1
 500 601 l 1
 750 601 l 1
 800 601 l 1
 800 551 l 1
500 1101 m 1
 500 901 l 1
 700 901 l 1
 700 1101 l 1
 500 1101 l 1
EndSplineSet
EndChar

StartChar: NameMe.244
Encoding: 244 -1 169
Width: 900
VWidth: 0
Flags: W
HStem: 501 9.00391G<100 200 710.162 763.995> 1101 100<200 400> 1193.96 20G<711.348 765.39>
VStem: 100 100<501 1101> 400 100<674.939 1019.97>
LayerCount: 2
Back
SplineSet
750 551 m 5
 683.767578125 778.170898438 604.852539062 1015.43066406 450 1151 c 5
 150 1151 l 5
 150 551 l 1052
750 1151 m 5
 683.127929688 944.290039062 602.469726562 660.912109375 450 551 c 13
 450 1101.5 l 1053
EndSplineSet
Fore
SplineSet
765.389648438 1198.57226562 m 1xb8
 812.962890625 1183.18261719 l 1
 797.572265625 1135.61035156 l 2
 770.112304688 1050.72558594 740.567382812 949.638671875 702.70703125 851.508789062 c 1
 740.473632812 758.229492188 770.352539062 659.827148438 798.000976562 564.995117188 c 2
 811.99609375 516.993164062 l 1
 763.995117188 502.999023438 l 1
 715.993164062 489.00390625 l 1
 701.999023438 537.004882812 l 2
 684.075195312 598.479492188 665.176757812 660.004882812 644.381835938 719.458984375 c 1
 600.7265625 634.3828125 547.358398438 559.545898438 479.23828125 510.440429688 c 0
 455.923828125 493.633789062 422.197265625 500.47265625 407.271484375 525.033203125 c 0
 402.52734375 532.840820312 400 542.178710938 400 551 c 2
 400 1101 l 1
 200 1101 l 1
 200 551 l 1
 200 501 l 1
 150 501 l 1
 100 501 l 1
 100 551 l 1
 100 1151 l 2
 100 1172.45996094 119.735351562 1201 150 1201 c 2
 450 1201 l 2xd8
 461.598632812 1201 473.8359375 1196.58691406 482.935546875 1188.62011719 c 0
 547.673828125 1131.94335938 599.22265625 1060.84277344 641.901367188 981.958984375 c 1
 663.778320312 1045.13964844 683.697265625 1108.4921875 702.427734375 1166.38964844 c 2
 717.817382812 1213.96289062 l 1
 765.389648438 1198.57226562 l 1xb8
500 1019.96972656 m 1
 500 674.939453125 l 1
 534.670898438 723.767578125 565.271484375 785.139648438 592.834960938 851.509765625 c 1
 565.606445312 913.331054688 535.095703125 970.487304688 500 1019.96972656 c 1
EndSplineSet
EndChar

StartChar: NameMe.209
Encoding: 209 -1 170
Width: 900
VWidth: 0
Flags: W
HStem: 501 100<200 400 500 800> 801 100<500 700> 1101 100<200 700>
VStem: 100 100<601 1101> 400 100<601 801> 700 100<901 1101>
CounterMasks: 1 fc
LayerCount: 2
Back
SplineSet
450 1151 m 5
 750 1151 l 5
 750 851 l 5
 450 851 l 13
 450 551 l 1053
450 1151 m 5
 150 1151 l 5
 150 551 l 5
 750 551 l 1029
EndSplineSet
Fore
SplineSet
400 1101 m 1
 200 1101 l 1
 200 601 l 1
 400 601 l 1
 400 851 l 2
 400 872.459960938 419.735351562 901 450 901 c 2
 700 901 l 1
 700 1101 l 1
 500 1101 l 1
 450 1101 l 1
 400 1101 l 1
400 501 m 1
 150 501 l 2
 128.540039062 501 100 520.735351562 100 551 c 2
 100 1151 l 2
 100 1172.45996094 119.735351562 1201 150 1201 c 2
 400 1201 l 1
 450 1201 l 1
 500 1201 l 1
 750 1201 l 2
 780.264648438 1201 800 1172.45996094 800 1151 c 2
 800 851 l 2
 800 820.735351562 771.459960938 801 750 801 c 2
 500 801 l 1
 500 601 l 1
 750 601 l 1
 800 601 l 1
 800 551 l 1
 800 501 l 1
 750 501 l 1
 500 501 l 1
 450 501 l 1
 400 501 l 1
EndSplineSet
EndChar

StartChar: zy_by
Encoding: 227 -1 171
Width: 900
VWidth: 0
Flags: W
HStem: 501 100<200 400 500 800> 801 100<200 400> 1101 100<500 800>
VStem: 100 100<601 801 901 1201> 400 100<601 801 901 1101>
CounterMasks: 1 e0
LayerCount: 2
Back
SplineSet
450 551.75 m 28
 450 1151 l 29
 750 1151 l 1053
750 551 m 5
 150 551 l 5
 150 1151 l 1053
439.5 851 m 29
 150 851 l 1029
EndSplineSet
Fore
SplineSet
800 551 m 1
 800 501 l 1
 750 501 l 1
 150 501 l 2
 119.735351562 501 100 529.540039062 100 551 c 2
 100 801 l 1
 100 851 l 1
 100 901 l 1
 100 1151 l 1
 100 1201 l 1
 150 1201 l 1
 200 1201 l 1
 200 1151 l 1
 200 901 l 1
 400 901 l 1
 400 1151 l 2
 400 1181.26464844 428.540039062 1201 450 1201 c 2
 750 1201 l 1
 800 1201 l 1
 800 1151 l 1
 800 1101 l 1
 750 1101 l 1
 500 1101 l 1
 500 601 l 1
 750 601 l 1
 800 601 l 1
 800 551 l 1
200 801 m 1
 200 601 l 1
 400 601 l 1
 400 801 l 1
 200 801 l 1
EndSplineSet
EndChar

StartChar: zy_gy
Encoding: 291 -1 172
Width: 900
VWidth: 0
Flags: W
HStem: 480.29 21G<730.153 770.154> 501 100.125<200 400> 801 100<200 400> 1181 20G<100 200 400 500>
VStem: 100 100<601.125 801 901 1201> 400 100<601.625 728.152 971.711 1201>
LayerCount: 2
Back
SplineSet
750 1151 m 29
 448.5 849.5 l 29
 750 551 l 1053
150 1151 m 29
 150 551 l 5
 450 551.75 l 28
 450 1151 l 1053
439.5 851 m 29
 150 851 l 1029
EndSplineSet
Fore
SplineSet
150 1201 m 1x7c
 200 1201 l 1
 200 1151 l 1
 200 901 l 1
 400 901 l 1
 400 1151 l 1
 400 1201 l 1
 450 1201 l 1
 500 1201 l 1
 500 1151 l 1
 500 971.7109375 l 1
 714.64453125 1186.35546875 l 1
 750 1221.7109375 l 1
 785.35546875 1186.35546875 l 1
 820.7109375 1151 l 1
 785.35546875 1115.64453125 l 1
 519.387695312 849.676757812 l 1
 785.177734375 586.53125 l 1
 820.709960938 551.353515625 l 1
 785.53125 515.822265625 l 1
 750.353515625 480.290039062 l 1xbc
 714.822265625 515.46875 l 1
 500 728.15234375 l 1
 500 551.75 l 2
 500 526.930664062 478.57421875 501.821289062 450.125 501.75 c 2
 150.125 501 l 2
 128.43359375 500.946289062 100 520.775390625 100 551 c 2
 100 801 l 1
 100 851 l 1
 100 901 l 1
 100 1151 l 1
 100 1201 l 1
 150 1201 l 1x7c
400 801 m 1
 200 801 l 1
 200 601.125 l 1x7c
 400 601.625 l 1
 400 801 l 1
EndSplineSet
EndChar

StartChar: zy_my
Encoding: 323 -1 173
Width: 900
VWidth: 0
Flags: W
HStem: 501 100<200 400 500 700> 801 100<200 400> 1101 100<500 700>
VStem: 100 100<601 801 901 1201> 400 100<601 801 901 1101> 700 100<601 1101>
CounterMasks: 1 fc
LayerCount: 2
Back
SplineSet
450 551.75 m 28
 450 1151 l 29
 750 1151 l 29
 750 551 l 5
 150 551 l 5
 150 1151 l 1053
439.5 851 m 29
 150 851 l 1029
EndSplineSet
Fore
SplineSet
500 601 m 1
 700 601 l 1
 700 1101 l 1
 500 1101 l 1
 500 601 l 1
200 801 m 1
 200 601 l 1
 400 601 l 1
 400 801 l 1
 200 801 l 1
200 901 m 1
 400 901 l 1
 400 1151 l 2
 400 1181.26464844 428.540039062 1201 450 1201 c 2
 750 1201 l 2
 780.264648438 1201 800 1172.45996094 800 1151 c 2
 800 551 l 2
 800 520.735351562 771.459960938 501 750 501 c 2
 450 501 l 1
 150 501 l 2
 119.735351562 501 100 529.540039062 100 551 c 2
 100 801 l 1
 100 851 l 1
 100 901 l 1
 100 1151 l 1
 100 1201 l 1
 150 1201 l 1
 200 1201 l 1
 200 1151 l 1
 200 901 l 1
EndSplineSet
EndChar

StartChar: NameMe.241
Encoding: 241 -1 174
Width: 900
VWidth: 0
Flags: W
HStem: 489.004 21G<710.162 763.995> 501 100<200 466.81> 1101 100<200 460.71> 1193.96 20G<711.348 765.39>
VStem: 100 100<601 1101>
LayerCount: 2
Back
SplineSet
750 551 m 5
 683.767578125 778.170898438 604.852539062 1015.43066406 450 1151 c 5
 150 1151 l 5
 150 551 l 29
 450 551 l 5
 602.469726562 660.912109375 683.127929688 944.290039062 750 1151 c 1029
EndSplineSet
Fore
SplineSet
593.481445312 851.729492188 m 1x68
 589.87890625 859.912109375 586.115234375 868.251953125 582.5 876.033203125 c 0
 540.912109375 965.559570312 490.598632812 1044.1171875 430.647460938 1101 c 1
 200 1101 l 1
 200 601 l 1
 433.033203125 601 l 1
 490.077148438 647.752929688 540.057617188 729.336914062 582.389648438 825.770507812 c 0
 586.134765625 834.30078125 589.841796875 842.986328125 593.481445312 851.729492188 c 1x68
641.921875 980.76953125 m 1
 663.784179688 1044.35546875 683.626953125 1108.27539062 702.427734375 1166.38964844 c 2
 717.817382812 1213.96289062 l 1
 765.389648438 1198.57226562 l 1
 812.962890625 1183.18261719 l 1
 797.572265625 1135.61035156 l 2
 772.538085938 1058.22460938 745.161132812 968.6328125 712.225585938 880.4453125 c 0
 708.830078125 871.353515625 705.235351562 861.916992188 701.645507812 852.686523438 c 1
 705.463867188 843.3125 709.22265625 833.841796875 712.875 824.415039062 c 0
 745.737304688 739.590820312 772.879882812 651.16015625 798.000976562 564.995117188 c 2
 811.99609375 516.993164062 l 1
 763.995117188 502.999023438 l 1
 715.993164062 489.00390625 l 1x98
 701.999023438 537.004882812 l 2
 683.915039062 599.029296875 664.94921875 661.517578125 643.9609375 721.89453125 c 1
 600.958007812 637.286132812 548.858398438 560.626953125 479.23828125 510.440429688 c 0
 472.009765625 505.229492188 460.541015625 501 450 501 c 2
 150 501 l 2
 128.540039062 501 100 520.735351562 100 551 c 2
 100 1151 l 2
 100 1172.45996094 119.735351562 1201 150 1201 c 2
 450 1201 l 2
 461.598632812 1201 473.8359375 1196.58691406 482.935546875 1188.62011719 c 0
 547.921875 1131.72558594 599.377929688 1059.70410156 641.921875 980.76953125 c 1
EndSplineSet
EndChar

StartChar: NameMe.240
Encoding: 240 -1 175
Width: 900
VWidth: 0
Flags: W
HStem: 488.937 21G<710.242 764.09> 501 100<200 400> 1101 100<200 400> 1191.63 20G<708.62 762.127>
VStem: 100 100<601 1101> 400 100<675.992 1022.73>
LayerCount: 2
Back
SplineSet
450 1122.5 m 29
 450 575 l 1053
750 551 m 4
 708 694 665 814.5 621 912.5 c 4
 577 1010.5 520 1090 450 1151 c 5
 150 1151 l 5
 150 551 l 5
 450 551 l 5
 467 563 483 576.75 498 592.25 c 4
 513 607.75 527.75 626.75 542.25 649.25 c 4
 556.75 671.75 569.25 691.25 579.75 707.75 c 4
 590.25 724.25 602.5 748.5 616.5 780.5 c 4
 630.5 812.5 640.75 835.75 647.25 850.25 c 4
 653.75 864.75 663.75 891.25 677.25 929.75 c 4
 690.75 968.25 699.25 992.5 702.75 1002.5 c 4
 706.25 1012.5 714.75 1038.75 728.25 1081.25 c 4
 741.75 1123.75 749 1147 750 1151 c 1028
EndSplineSet
Fore
SplineSet
593.024414062 851.366210938 m 0x0c
 589.924804688 858.743164062 586.7265625 866.23828125 583.725585938 873.141601562 c 0
 580.947265625 879.534179688 578.166992188 885.827148438 575.38671875 892.020507812 c 0
 553.463867188 940.84765625 528.209960938 984.403320312 500 1022.72753906 c 1
 500 675.9921875 l 2
 500.07421875 676.106445312 500.147460938 676.220703125 500.221679688 676.334960938 c 0
 514.68359375 698.776367188 527.13671875 718.203125 537.567382812 734.59375 c 0
 545.684570312 747.349609375 557.290039062 769.907226562 570.692382812 800.541015625 c 0
 576.967773438 814.884765625 582.495117188 827.483398438 587.278320312 838.345703125 c 0
 589.248046875 842.818359375 591.240234375 847.330078125 593.024414062 851.366210938 c 0x0c
642.677734375 982.264648438 m 1
 649.018554688 1000.34960938 653.336914062 1012.67382812 655.556640625 1019.01757812 c 0
 658.546875 1027.55957031 667.178710938 1054.14746094 680.596679688 1096.38671875 c 0
 693.217773438 1136.12207031 700.665039062 1160.19433594 701.55859375 1163.38867188 c 2
 713.620117188 1211.63378906 l 1
 762.126953125 1199.50683594 l 1
 810.633789062 1187.37988281 l 1
 798.506835938 1138.87304688 l 2
 796.412109375 1130.49316406 789.62109375 1109.29785156 775.903320312 1066.11328125 c 0
 762.321289062 1023.35253906 753.953125 997.440429688 749.943359375 985.982421875 c 0
 746.43359375 975.956054688 737.934570312 951.708984375 724.43359375 913.205078125 c 0
 717.51171875 893.46484375 711.462890625 876.733398438 706.221679688 862.862304688 c 0
 704.63671875 858.666992188 702.9453125 854.272460938 701.418945312 850.375976562 c 0
 704.852539062 841.7109375 708.358398438 832.71875 711.697265625 824.001953125 c 0
 741.055664062 747.354492188 769.77734375 661.092773438 797.973632812 565.08984375 c 2
 812.063476562 517.116210938 l 1
 764.08984375 503.026367188 l 1
 716.116210938 488.936523438 l 1x9c
 702.026367188 536.91015625 l 2
 682.663085938 602.837890625 663.1171875 663.810546875 643.435546875 719.749023438 c 1
 636.049804688 704.909179688 628.9609375 691.950195312 621.932617188 680.90625 c 0
 611.36328125 664.296875 598.81640625 644.723632812 584.278320312 622.165039062 c 0
 568.361328125 597.465820312 551.736328125 575.87890625 533.9296875 557.478515625 c 0
 523.13671875 546.326171875 511.821289062 535.90234375 500 526.243164062 c 1
 500 525 l 1
 498.470703125 525 l 1
 492.071289062 519.825195312 485.524414062 514.874023438 478.833984375 510.151367188 c 0
 471.765625 505.162109375 460.370117188 501 450 501 c 2
 150 501 l 2
 128.540039062 501 100 520.735351562 100 551 c 2
 100 1151 l 2
 100 1172.45996094 119.735351562 1201 150 1201 c 2
 450 1201 l 2x6c
 461.528320312 1201 473.7578125 1196.6171875 482.848632812 1188.6953125 c 0
 546.5 1133.22753906 599.79296875 1063.95996094 642.677734375 982.264648438 c 1
400 1101 m 1x6c
 200 1101 l 1
 200 601 l 1
 400 601 l 1
 400 1101 l 1x6c
EndSplineSet
EndChar

StartChar: NameMe.208
Encoding: 208 -1 176
Width: 900
VWidth: 0
Flags: W
HStem: 501 100<200 400 500 800> 801 100<500 700> 1101 100<200 400 500 700>
VStem: 100 100<601 1101> 400 100<601 801 901 1101> 700 100<901 1101>
CounterMasks: 1 fc
LayerCount: 2
Back
SplineSet
450 1130 m 29
 450 851 l 1053
450 1151 m 5
 750 1151 l 5
 750 851 l 5
 450 851 l 13
 450 551 l 1053
450 1151 m 5
 150 1151 l 5
 150 551 l 5
 750 551 l 1029
EndSplineSet
Fore
SplineSet
400 601 m 1
 400 801 l 1
 400 851 l 1
 400 1101 l 1
 200 1101 l 1
 200 601 l 1
 400 601 l 1
400 501 m 1
 150 501 l 2
 128.540039062 501 100 520.735351562 100 551 c 2
 100 1151 l 2
 100 1172.45996094 119.735351562 1201 150 1201 c 2
 400 1201 l 1
 450 1201 l 1
 500 1201 l 1
 750 1201 l 2
 780.264648438 1201 800 1172.45996094 800 1151 c 2
 800 851 l 2
 800 820.735351562 771.459960938 801 750 801 c 2
 500 801 l 1
 500 601 l 1
 750 601 l 1
 800 601 l 1
 800 551 l 1
 800 501 l 1
 750 501 l 1
 500 501 l 1
 450 501 l 1
 400 501 l 1
500 901 m 1
 700 901 l 1
 700 1101 l 1
 500 1101 l 1
 500 901 l 1
EndSplineSet
EndChar

StartChar: NameMe.214
Encoding: 214 -1 177
Width: 900
VWidth: 0
Flags: W
HStem: 501 100<100 220.351 482.36 700> 900 100<100 298.689 399.5 599> 1101 100<499 700>
VStem: 299.5 100<701.483 900 1000 1201> 700 100<601 1101>
LayerCount: 2
Back
SplineSet
150 950 m 5
 549 950 l 1053
150 551 m 21
 250.5 551 352.471679688 669.895507812 349.5 851 c 1037
549 1151 m 29
 750 1151 l 5
 750 551 l 5
 549 551 l 21
 450 551 351 669.5 349.5 851 c 5
 349.5 1151 l 1053
EndSplineSet
Fore
SplineSet
499 1151 m 1
 499 1201 l 1
 549 1201 l 1
 750 1201 l 2
 780.264648438 1201 800 1172.45996094 800 1151 c 2
 800 551 l 2
 800 520.735351562 771.459960938 501 750 501 c 2
 549 501 l 2
 466.328125 501 395.448242188 554.357421875 350.590820312 637.6171875 c 1
 305.474609375 554.265625 233.07421875 501 150 501 c 2
 100 501 l 1
 100 551 l 1
 100 601 l 1
 150 601 l 2
 208.651367188 601 300.916015625 682.151367188 299.55078125 846.619140625 c 0
 299.530273438 847.865234375 299.514648438 849.112304688 299.50390625 850.362304688 c 2
 298.689453125 900 l 1
 150 900 l 1
 100 900 l 1
 100 950 l 1
 100 1000 l 1
 150 1000 l 1
 299.5 1000 l 1
 299.5 1151 l 1
 299.5 1201 l 1
 349.5 1201 l 1
 399.5 1201 l 1
 399.5 1151 l 1
 399.5 1000 l 1
 549 1000 l 1
 599 1000 l 1
 599 950 l 1
 599 900 l 1
 549 900 l 1
 399.5 900 l 1
 399.5 851.399414062 l 2
 399.520507812 850.08203125 399.536132812 848.766601562 399.545898438 847.453125 c 0
 402.250976562 681.296875 492.552734375 601 549 601 c 2
 700 601 l 1
 700 1101 l 1
 549 1101 l 1
 499 1101 l 1
 499 1151 l 1
EndSplineSet
EndChar

StartChar: NameMe.246
Encoding: 246 -1 178
Width: 900
VWidth: 0
Flags: W
HStem: 501 100<100 220.351> 900 100<100 298.689 399.5 499> 1101 100<599 700>
VStem: 299.5 100<701.483 900 1000 1201> 499 100<617.085 900 1000 1101> 700 100<501 1101>
LayerCount: 2
Back
SplineSet
150 950 m 5
 549 950 l 1053
150 551 m 21
 250.5 551 352.471679688 669.895507812 349.5 851 c 1037
349.5 1151 m 29
 349.5 851 l 5
 351 669.5 450 551 549 551 c 13
 549 1151 l 29
 750 1151 l 13
 750 551 l 1053
EndSplineSet
Fore
SplineSet
349.5 1201 m 1
 399.5 1201 l 1
 399.5 1151 l 1
 399.5 1000 l 1
 499 1000 l 1
 499 1151 l 2
 499 1181.26464844 527.540039062 1201 549 1201 c 2
 750 1201 l 2
 780.264648438 1201 800 1172.45996094 800 1151 c 2
 800 551 l 1
 800 501 l 1
 750 501 l 1
 700 501 l 1
 700 551 l 1
 700 1101 l 1
 599 1101 l 1
 599 1000 l 1
 599 950 l 1
 599 900 l 1
 599 551 l 2
 599 529.540039062 579.264648438 501 549 501 c 0
 466.328125 501 395.448242188 554.357421875 350.590820312 637.616210938 c 1
 305.473632812 554.265625 233.07421875 501 150 501 c 2
 100 501 l 1
 100 551 l 1
 100 601 l 1
 150 601 l 2
 208.651367188 601 300.916015625 682.151367188 299.55078125 846.619140625 c 0
 299.530273438 847.865234375 299.514648438 849.112304688 299.50390625 850.362304688 c 2
 298.689453125 900 l 1
 150 900 l 1
 100 900 l 1
 100 950 l 1
 100 1000 l 1
 150 1000 l 1
 299.5 1000 l 1
 299.5 1151 l 1
 299.5 1201 l 1
 349.5 1201 l 1
399.5 851.399414062 m 2
 399.51953125 850.116210938 399.53515625 848.833984375 399.544921875 847.5546875 c 0
 401.512695312 728.467773438 451.151367188 647.75 499 617.084960938 c 1
 499 900 l 1
 399.5 900 l 1
 399.5 851.399414062 l 2
EndSplineSet
EndChar

StartChar: NameMe.278
Encoding: 278 -1 179
Width: 900
VWidth: 0
Flags: W
HStem: 501 100<100 220.351 482.36 700> 699 100<499 700> 900 100<100 298.689 399.5 599> 1101 100<499 700>
VStem: 299.5 100<701.483 900 1000 1201> 499 301<699 799 1101 1197> 700 100<601 699 799 1101>
LayerCount: 2
Back
SplineSet
549 749 m 29
 750 749 l 1053
150 950 m 5
 549 950 l 1053
150 551 m 21
 250.5 551 352.471679688 669.895507812 349.5 851 c 1037
349.5 1151 m 29
 349.5 851 l 5
 351 669.5 450 551 549 551 c 13
 750 551 l 29
 750 1151 l 29
 549 1151 l 1053
EndSplineSet
Fore
SplineSet
349.5 1201 m 1xfa
 399.5 1201 l 1
 399.5 1151 l 1
 399.5 1000 l 1
 549 1000 l 1
 599 1000 l 1
 599 950 l 1
 599 900 l 1
 549 900 l 1
 399.5 900 l 1
 399.5 851.399414062 l 2
 399.520507812 850.08203125 399.536132812 848.766601562 399.545898438 847.453125 c 0
 402.250976562 681.297851562 492.552734375 601 549 601 c 2
 700 601 l 1
 700 699 l 1xfa
 549 699 l 1
 499 699 l 1
 499 749 l 1
 499 799 l 1xfc
 549 799 l 1
 700 799 l 1
 700 1101 l 1xfa
 549 1101 l 1
 499 1101 l 1
 499 1151 l 1
 499 1201 l 1
 549 1201 l 1
 750 1201 l 2
 771.459960938 1201 800 1181.26464844 800 1151 c 2
 800 799 l 1
 800 749 l 1
 800 699 l 1xfc
 800 551 l 2
 800 529.540039062 780.264648438 501 750 501 c 2
 549 501 l 2
 466.328125 501 395.448242188 554.357421875 350.590820312 637.616210938 c 1
 305.473632812 554.265625 233.07421875 501 150 501 c 2
 100 501 l 1
 100 551 l 1
 100 601 l 1
 150 601 l 2
 208.651367188 601 300.916015625 682.151367188 299.55078125 846.619140625 c 0
 299.530273438 847.865234375 299.514648438 849.112304688 299.50390625 850.362304688 c 2
 298.689453125 900 l 1
 150 900 l 1
 100 900 l 1
 100 950 l 1
 100 1000 l 1
 150 1000 l 1
 299.5 1000 l 1
 299.5 1151 l 1
 299.5 1201 l 1
 349.5 1201 l 1xfa
EndSplineSet
EndChar

StartChar: NameMe.310
Encoding: 310 -1 180
Width: 900
VWidth: 0
Flags: W
HStem: 501 100<100 220.731> 801 100<100 297.41 402.841 599> 1181 20G<299.5 399.5 532.846 576.014>
VStem: 299.5 100<901 1201>
LayerCount: 2
Back
SplineSet
150 851 m 5
 549 851 l 1053
150 551 m 21
 250.5 551 352.471679688 669.895507812 349.5 851 c 1037
349.5 1151 m 29
 349.5 851 l 5
 351 669.5 450 551 549 551 c 5
 750 851 l 29
 549 1149.5 l 1053
EndSplineSet
Fore
SplineSet
349.5 1201 m 1
 399.5 1201 l 1
 399.5 1151 l 1
 399.5 901 l 1
 549 901 l 1
 599 901 l 1
 599 851 l 1
 599 801 l 1
 549 801 l 1
 402.840820312 801 l 1
 417.438476562 687.182617188 476.822265625 620 524.868164062 604.810546875 c 1
 689.767578125 850.9296875 l 1
 507.526367188 1121.57324219 l 1
 479.598632812 1163.046875 l 1
 521.073242188 1190.97363281 l 1
 562.546875 1218.90136719 l 1
 590.473632812 1177.42675781 l 1
 791.473632812 878.926757812 l 2
 801.86328125 863.499023438 803.036132812 840.329101562 791.538085938 823.168945312 c 2
 590.538085938 523.168945312 l 2
 582.01953125 510.454101562 565.861328125 501 549 501 c 0
 466.328125 501 395.448242188 554.357421875 350.590820312 637.616210938 c 1
 305.473632812 554.265625 233.07421875 501 150 501 c 2
 100 501 l 1
 100 551 l 1
 100 601 l 1
 150 601 l 2
 202.948242188 601 283.290039062 667.135742188 297.41015625 801 c 1
 150 801 l 1
 100 801 l 1
 100 851 l 1
 100 901 l 1
 150 901 l 1
 299.5 901 l 1
 299.5 1151 l 1
 299.5 1201 l 1
 349.5 1201 l 1
EndSplineSet
EndChar

StartChar: NameMe.342
Encoding: 342 -1 181
Width: 900
VWidth: 0
Flags: W
HStem: 501 100<100 220.702 599 700> 801 100<100 297.41 402.872 499> 1101 100<599 700>
VStem: 299.5 100<901 1201> 499 100<617.085 801 901 1101> 700 100<601 1101>
CounterMasks: 1 e0
LayerCount: 2
Back
SplineSet
150 851 m 5
 549 851 l 1053
150 551 m 21
 250.5 551 352.471679688 669.895507812 349.5 851 c 1037
349.5 1151 m 29
 349.5 851 l 5
 351 669.5 450 551 549 551 c 5
 750 551 l 29
 750 1151 l 29
 549 1151 l 29
 549 551 l 1053
EndSplineSet
Fore
SplineSet
599 601 m 1
 700 601 l 1
 700 1101 l 1
 599 1101 l 1
 599 901 l 1
 599 851 l 1
 599 801 l 1
 599 601 l 1
100 551 m 1
 100 601 l 1
 150 601 l 2
 202.948242188 601 283.290039062 667.135742188 297.41015625 801 c 1
 150 801 l 1
 100 801 l 1
 100 851 l 1
 100 901 l 1
 150 901 l 1
 299.5 901 l 1
 299.5 1151 l 1
 299.5 1201 l 1
 349.5 1201 l 1
 399.5 1201 l 1
 399.5 1151 l 1
 399.5 901 l 1
 499 901 l 1
 499 1151 l 2
 499 1172.45996094 518.735351562 1201 549 1201 c 2
 750 1201 l 2
 771.459960938 1201 800 1181.26464844 800 1151 c 2
 800 551 l 2
 800 529.540039062 780.264648438 501 750 501 c 2
 549 501 l 1
 499 501 l 1
 499 508.173828125 l 1
 437.76953125 525.915039062 385.987304688 572.279296875 350.532226562 637.5078125 c 1
 305.411132812 554.21875 233.038085938 501 150 501 c 2
 100 501 l 1
 100 551 l 1
499 801 m 1
 402.872070312 801 l 1
 414.912109375 707.75390625 457.162109375 643.8984375 499 617.084960938 c 1
 499 801 l 1
EndSplineSet
EndChar

StartChar: NameMe.374
Encoding: 374 -1 183
Width: 900
VWidth: 0
Flags: W
HStem: 501 100<100 220.702 599 700> 801 100<100 297.41 402.872 499 599 700> 1101 100<599 700>
VStem: 299.5 100<901 1201> 499 100<617.085 801 901 1101> 700 100<601 801 901 1101>
CounterMasks: 1 e0
LayerCount: 2
Back
SplineSet
150 851 m 5
 744 851 l 1053
150 551 m 21
 250.5 551 352.471679688 669.895507812 349.5 851 c 1037
349.5 1151 m 29
 349.5 851 l 5
 351 669.5 450 551 549 551 c 5
 750 551 l 29
 750 1151 l 29
 549 1151 l 29
 549 551 l 1053
EndSplineSet
Fore
SplineSet
599 601 m 1
 700 601 l 1
 700 801 l 1
 599 801 l 1
 599 601 l 1
100 551 m 1
 100 601 l 1
 150 601 l 2
 202.948242188 601 283.290039062 667.135742188 297.41015625 801 c 1
 150 801 l 1
 100 801 l 1
 100 851 l 1
 100 901 l 1
 150 901 l 1
 299.5 901 l 1
 299.5 1151 l 1
 299.5 1201 l 1
 349.5 1201 l 1
 399.5 1201 l 1
 399.5 1151 l 1
 399.5 901 l 1
 499 901 l 1
 499 1151 l 2
 499 1172.45996094 518.735351562 1201 549 1201 c 2
 750 1201 l 2
 771.459960938 1201 800 1181.26464844 800 1151 c 2
 800 551 l 2
 800 529.540039062 780.264648438 501 750 501 c 2
 549 501 l 1
 499 501 l 1
 499 508.173828125 l 1
 437.76953125 525.915039062 385.987304688 572.279296875 350.532226562 637.5078125 c 1
 305.411132812 554.21875 233.038085938 501 150 501 c 2
 100 501 l 1
 100 551 l 1
499 801 m 1
 402.872070312 801 l 1
 414.912109375 707.75390625 457.162109375 643.8984375 499 617.084960938 c 1
 499 801 l 1
700 901 m 1
 700 1101 l 1
 599 1101 l 1
 599 901 l 1
 700 901 l 1
EndSplineSet
EndChar

StartChar: NameMe.272
Encoding: 272 -1 184
Width: 900
VWidth: 0
Flags: W
HStem: 481.679 21G<422.753 466.128> 501 100<-100 2.48535> 1101 100<-100 1.01465>
VStem: -200 100<601 1101> 2.48535 99.6602<716.469 984.981>
LayerCount: 2
Back
SplineSet
51 1106 m 29
 52.5 596 l 1053
450 551 m 5
 51 1151 l 21
 -150 1151 l 5
 -150 551 l 5
 52.5 551 l 13
 450 1151 l 1029
EndSplineSet
Fore
SplineSet
250.796875 940.848632812 m 1x78
 408.317382812 1178.61425781 l 1
 435.932617188 1220.296875 l 1
 477.614257812 1192.68261719 l 1
 519.296875 1165.06738281 l 1
 491.682617188 1123.38574219 l 1
 310.887695312 850.487304688 l 1
 491.634765625 578.686523438 l 1
 519.321289062 537.052734375 l 1
 477.686523438 509.365234375 l 1
 436.052734375 481.678710938 l 1xb8
 408.365234375 523.313476562 l 1
 250.954101562 760.021484375 l 1
 94.1826171875 523.385742188 l 2
 85.6083984375 510.444335938 69.4208984375 501 52.5 501 c 2
 -150 501 l 2
 -171.459960938 501 -200 520.735351562 -200 551 c 2
 -200 1151 l 2
 -200 1172.45996094 -180.264648438 1201 -150 1201 c 2
 51 1201 l 2
 66.4501953125 1201 83.275390625 1192.76074219 92.634765625 1178.68652344 c 2
 250.796875 940.848632812 l 1x78
1.0146484375 1101 m 1
 -100 1101 l 1
 -100 601 l 1
 2.4853515625 601 l 1x78
 1.0146484375 1101 l 1
101.356445312 984.981445312 m 1
 102.145507812 716.46875 l 1
 190.864257812 850.3828125 l 1
 101.356445312 984.981445312 l 1
EndSplineSet
EndChar

StartChar: NameMe.274
Encoding: 274 -1 185
Width: 900
VWidth: 0
Flags: W
HStem: 481.679 21G<422.753 466.128> 501 100<-200 2.48535> 1101 100<-200 1.01465>
VStem: 2.48535 99.6602<716.469 984.981>
LayerCount: 2
Back
SplineSet
51 1106 m 29
 52.5 596 l 1053
450 551 m 5
 51 1151 l 21
 -150 1151 l 1029
-150 551 m 5
 52.5 551 l 13
 450 1151 l 1029
EndSplineSet
Fore
SplineSet
-200 551 m 1x70
 -200 601 l 1
 -150 601 l 1
 2.4853515625 601 l 1x70
 1.0146484375 1101 l 1
 -150 1101 l 1
 -200 1101 l 1
 -200 1151 l 1
 -200 1201 l 1
 -150 1201 l 1
 51 1201 l 2
 66.4501953125 1201 83.275390625 1192.76074219 92.634765625 1178.68652344 c 2
 250.796875 940.848632812 l 1
 408.317382812 1178.61425781 l 1
 435.932617188 1220.296875 l 1
 477.614257812 1192.68261719 l 1
 519.296875 1165.06738281 l 1
 491.682617188 1123.38574219 l 1
 310.887695312 850.487304688 l 1
 491.634765625 578.686523438 l 1
 519.321289062 537.052734375 l 1
 477.686523438 509.365234375 l 1
 436.052734375 481.678710938 l 1xb0
 408.365234375 523.313476562 l 1
 250.954101562 760.021484375 l 1
 94.1826171875 523.385742188 l 2
 85.6083984375 510.444335938 69.4208984375 501 52.5 501 c 2
 -150 501 l 1
 -200 501 l 1
 -200 551 l 1x70
190.864257812 850.3828125 m 1
 101.356445312 984.981445312 l 1
 102.145507812 716.46875 l 1
 190.864257812 850.3828125 l 1
EndSplineSet
EndChar

StartChar: NameMe.273
Encoding: 273 -1 186
Width: 900
VWidth: 0
Flags: W
HStem: 481.679 21G<422.753 466.128> 501 100<-100 25.6475> 1101 100<-100 24.2041>
VStem: -200 100<601 1101>
LayerCount: 2
Back
SplineSet
450 551 m 5
 51 1151 l 21
 -150 1151 l 5
 -150 551 l 5
 52.5 551 l 13
 450 1151 l 1029
EndSplineSet
Fore
SplineSet
190.864257812 850.3828125 m 1x70
 24.2041015625 1101 l 1
 -100 1101 l 1
 -100 601 l 1
 25.6474609375 601 l 1
 190.864257812 850.3828125 l 1x70
250.796875 940.848632812 m 1
 408.317382812 1178.61425781 l 1
 435.932617188 1220.296875 l 1
 477.614257812 1192.68261719 l 1
 519.296875 1165.06738281 l 1
 491.682617188 1123.38574219 l 1
 310.887695312 850.487304688 l 1
 491.634765625 578.686523438 l 1
 519.321289062 537.052734375 l 1
 477.686523438 509.365234375 l 1
 436.052734375 481.678710938 l 1xb0
 408.365234375 523.313476562 l 1
 250.954101562 760.021484375 l 1
 94.1826171875 523.385742188 l 2
 85.6083984375 510.444335938 69.4208984375 501 52.5 501 c 2
 -150 501 l 2
 -171.459960938 501 -200 520.735351562 -200 551 c 2
 -200 1151 l 2
 -200 1172.45996094 -180.264648438 1201 -150 1201 c 2
 51 1201 l 2
 66.4501953125 1201 83.275390625 1192.76074219 92.634765625 1178.68652344 c 2
 250.796875 940.848632812 l 1
EndSplineSet
EndChar

StartChar: NameMe.276
Encoding: 276 -1 187
Width: 900
VWidth: 0
Flags: W
HStem: 501 1.67871G<-200 -100 422.753 466.128> 1101 100<-100 1>
VStem: -200 100<501 1101> 1 100<716.483 985.517>
LayerCount: 2
Back
SplineSet
51 1110.5 m 5
 51 551 l 29
 450 1151 l 1029
450 551 m 5
 51 1151 l 21
 -150 1151 l 5
 -150 551 l 1029
EndSplineSet
Fore
SplineSet
477.686523438 509.365234375 m 1
 436.052734375 481.678710938 l 1
 408.365234375 523.313476562 l 1
 250.5 760.705078125 l 1
 92.634765625 523.313476562 l 2
 84.5478515625 511.15234375 70.2470703125 502.360351562 54.9228515625 501.154296875 c 0
 26.2705078125 498.899414062 1 522.258789062 1 551 c 2
 1 1101 l 1
 -100 1101 l 1
 -100 551 l 1
 -100 501 l 1
 -150 501 l 1
 -200 501 l 1
 -200 551 l 1
 -200 1151 l 2
 -200 1172.45996094 -180.264648438 1201 -150 1201 c 2
 51 1201 l 2
 66.4501953125 1201 83.275390625 1192.76074219 92.634765625 1178.68652344 c 2
 250.5 941.294921875 l 1
 408.365234375 1178.68652344 l 1
 436.052734375 1220.32128906 l 1
 477.686523438 1192.63476562 l 1
 519.321289062 1164.94726562 l 1
 491.634765625 1123.31347656 l 1
 310.545898438 851 l 1
 491.634765625 578.686523438 l 1
 519.321289062 537.052734375 l 1
 477.686523438 509.365234375 l 1
190.454101562 851 m 1
 101 985.516601562 l 1
 101 716.483398438 l 1
 190.454101562 851 l 1
EndSplineSet
EndChar

StartChar: NameMe.406
Encoding: 406 -1 188
Width: 1500
VWidth: 0
Flags: W
HStem: 501 100<100 220.731 499 700> 801 100<100 297.41 402.76 502 602 700> 1101 100<602 800>
VStem: 299.5 100<901 1201> 502 100<901 1101> 700 100<601 801>
CounterMasks: 1 e0
LayerCount: 2
Back
SplineSet
150 851 m 5
 552 851 l 1053
150 551 m 21
 250.5 551 352.471679688 669.895507812 349.5 851 c 1037
349.5 1151 m 29
 349.5 851 l 5
 351 669.5 450 551 549 551 c 5
 750 551 l 29
 750 851 l 5
 552 851 l 29
 552 1151 l 5
 750 1151 l 1053
549 551 m 1053
EndSplineSet
Fore
SplineSet
349.5 1201 m 1
 399.5 1201 l 1
 399.5 1151 l 1
 399.5 901 l 1
 502 901 l 1
 502 1151 l 2
 502 1181.26464844 530.540039062 1201 552 1201 c 2
 750 1201 l 1
 800 1201 l 1
 800 1151 l 1
 800 1101 l 1
 750 1101 l 1
 602 1101 l 1
 602 901 l 1
 750 901 l 2
 771.459960938 901 800 881.264648438 800 851 c 2
 800 551 l 2
 800 529.540039062 780.264648438 501 750 501 c 2
 599 501 l 1
 549 501 l 1
 499 501 l 1
 499 507.733398438 l 1
 437.927734375 524.52734375 386.103515625 571.701171875 350.590820312 637.616210938 c 1
 305.473632812 554.265625 233.07421875 501 150 501 c 2
 100 501 l 1
 100 551 l 1
 100 601 l 1
 150 601 l 2
 202.948242188 601 283.290039062 667.135742188 297.41015625 801 c 1
 150 801 l 1
 100 801 l 1
 100 851 l 1
 100 901 l 1
 150 901 l 1
 299.5 901 l 1
 299.5 1151 l 1
 299.5 1201 l 1
 349.5 1201 l 1
599 601 m 1
 700 601 l 1
 700 801 l 1
 602 801 l 1
 552 801 l 1
 402.759765625 801 l 1
 419.65234375 666.306640625 498.09375 601 549 601 c 2
 599 601 l 1
EndSplineSet
EndChar

StartChar: NameMe.438
Encoding: 438 -1 189
Width: 1500
VWidth: 0
Flags: W
HStem: 487.153 21G<712.508 766.728> 501 100<100 221.011> 801 100<100 297.448 402.691 572.692> 1181 20G<299.5 399.5 520.272 574.492 711.68 765.775>
VStem: 299.5 100<901 1201>
LayerCount: 2
Back
SplineSet
750 551 m 25
 537 1151 l 1049
150 851 m 1
 537 851 l 1025
150 551 m 16
 203 551 249.75 579.25 290.25 635.75 c 128
 330.75 692.25 350.5 764 349.5 851 c 1024
349.5 1151 m 25
 349.5 851 l 2
 350.5 764 371 692.25 411 635.75 c 128
 451 579.25 493.5 551 550.5 551 c 9
 750 1151 l 1025
EndSplineSet
Fore
SplineSet
349.5 1201 m 1x78
 399.5 1201 l 1
 399.5 1151 l 1
 399.5 901 l 1
 537 901 l 1
 572.692382812 901 l 1
 489.880859375 1134.27246094 l 1
 473.153320312 1181.39160156 l 1
 520.272460938 1198.11914062 l 1
 567.391601562 1214.84667969 l 1
 584.119140625 1167.72753906 l 1
 645.4375 994.998046875 l 1
 702.553710938 1166.77539062 l 1
 718.330078125 1214.22167969 l 1
 765.775390625 1198.44628906 l 1
 813.221679688 1182.66992188 l 1
 797.446289062 1135.22460938 l 1
 699.853515625 841.713867188 l 1
 797.119140625 567.727539062 l 1
 813.846679688 520.608398438 l 1
 766.727539062 503.880859375 l 1
 719.608398438 487.153320312 l 1xb8
 702.880859375 534.272460938 l 1
 648.533203125 687.365234375 l 1
 597.946289062 535.224609375 l 2
 591.94140625 517.166015625 572.708984375 501 550.5 501 c 0
 473.795898438 501 415.231445312 543.240234375 370.19140625 606.859375 c 0
 363.141601562 616.817382812 356.643554688 627.126953125 350.686523438 637.776367188 c 1
 344.666992188 627.032226562 338.071289062 616.641601562 330.887695312 606.620117188 c 0
 284.543945312 541.966796875 222.872070312 501 150 501 c 2
 100 501 l 1
 100 551 l 1
 100 601 l 1
 150 601 l 2
 183.127929688 601 214.956054688 616.533203125 249.612304688 664.879882812 c 0
 275.423828125 700.888671875 291.899414062 745.461914062 297.448242188 801 c 1
 150 801 l 1
 100 801 l 1
 100 851 l 1
 100 901 l 1
 150 901 l 1
 299.5 901 l 1
 299.5 1151 l 1
 299.5 1201 l 1
 349.5 1201 l 1x78
402.69140625 801 m 1
 409.349609375 745.09765625 426.125976562 700.916992188 451.80859375 664.640625 c 0
 475.549804688 631.106445312 496.603515625 614.479492188 516.385742188 606.873046875 c 1
 580.93359375 801 l 1
 537 801 l 1
 402.69140625 801 l 1
587 819.245117188 m 1
 594.1171875 840.649414062 l 1
 587 860.698242188 l 1
 587 851 l 1
 587 819.245117188 l 1
EndSplineSet
EndChar

StartChar: NameMe.198
Encoding: 198 -1 196
Width: 1500
VWidth: 0
Flags: W
HStem: 501 100<599 800> 702 100<100 299.5 400.311 499> 1101 100<100 216.64 599 800>
VStem: 299.5 100<501 702 802 1000.68> 499 100<601 702 802 1084.71>
AnchorPoint: "Above" 0 500 mark 0
LayerCount: 2
Back
SplineSet
750 551 m 29
 549 551 l 29
 549 1151 l 1053
549 752 m 5
 150 752 l 1053
349.5 851 m 21
 346.52734375 1032.10449219 448.5 1151 549 1151 c 13
 750 1151 l 1053
150 1151 m 21
 249 1151 348 1032.5 349.5 851 c 5
 349.5 551 l 1053
EndSplineSet
Fore
SplineSet
100 1151 m 1
 100 1201 l 1
 150 1201 l 2
 232.671875 1201 303.551757812 1147.64257812 348.409179688 1064.38378906 c 1
 384.200195312 1130.50585938 437.161132812 1177.69433594 499 1194.37695312 c 1
 499 1201 l 1
 549 1201 l 1
 599 1201 l 1
 750 1201 l 1
 800 1201 l 1
 800 1151 l 1
 800 1101 l 1
 750 1101 l 1
 599 1101 l 1
 599 802 l 1
 599 752 l 1
 599 702 l 1
 599 601 l 1
 750 601 l 1
 800 601 l 1
 800 551 l 1
 800 501 l 1
 750 501 l 1
 549 501 l 2
 518.735351562 501 499 529.540039062 499 551 c 2
 499 702 l 1
 399.5 702 l 1
 399.5 551 l 1
 399.5 501 l 1
 349.5 501 l 1
 299.5 501 l 1
 299.5 551 l 1
 299.5 702 l 1
 150 702 l 1
 100 702 l 1
 100 752 l 1
 100 802 l 1
 150 802 l 1
 299.5 802 l 1
 299.5 850.600585938 l 2
 299.479492188 851.918945312 299.463867188 853.234375 299.454101562 854.549804688 c 0
 296.748046875 1020.70410156 206.447265625 1101 150 1101 c 2
 100 1101 l 1
 100 1151 l 1
399.49609375 851.638671875 m 2
 400.310546875 802 l 1
 499 802 l 1
 499 1084.70996094 l 1
 448.920898438 1053.50292969 398.436523438 977.35546875 399.44921875 855.383789062 c 0
 399.46875 854.13671875 399.485351562 852.888671875 399.49609375 851.638671875 c 2
EndSplineSet
EndChar

StartChar: NameMe.230
Encoding: 230 -1 197
Width: 1500
VWidth: 0
Flags: W
HStem: 501 100<599 700> 702 100<100 299.5 400.311 499> 1101 100<100 216.64>
VStem: 299.5 100<501 702 802 1000.68> 499 100<601 702 802 1084.71 1183.13 1201> 700 100<601 1201>
LayerCount: 2
Back
SplineSet
549 1151 m 29
 549 551 l 29
 750 551 l 29
 750 1151 l 1053
549 752 m 5
 150 752 l 1053
349.5 851 m 21
 346.52734375 1032.10449219 448.5 1151 549 1151 c 1037
150 1151 m 21
 249 1151 348 1032.5 349.5 851 c 5
 349.5 551 l 1053
EndSplineSet
Fore
SplineSet
100 1151 m 1
 100 1201 l 1
 150 1201 l 2
 232.671875 1201 303.551757812 1147.64257812 348.409179688 1064.38378906 c 1
 384.200195312 1130.50585938 437.161132812 1177.69433594 499 1194.37695312 c 1
 499 1201 l 1
 549 1201 l 1
 599 1201 l 1
 599 1151 l 1
 599 1101 l 1
 599 802 l 1
 599 752 l 1
 599 702 l 1
 599 601 l 1
 700 601 l 1
 700 1151 l 1
 700 1201 l 1
 750 1201 l 1
 800 1201 l 1
 800 1151 l 1
 800 551 l 2
 800 529.540039062 780.264648438 501 750 501 c 2
 549 501 l 2
 527.540039062 501 499 520.735351562 499 551 c 2
 499 702 l 1
 399.5 702 l 1
 399.5 551 l 1
 399.5 501 l 1
 349.5 501 l 1
 299.5 501 l 1
 299.5 551 l 1
 299.5 702 l 1
 150 702 l 1
 100 702 l 1
 100 752 l 1
 100 802 l 1
 150 802 l 1
 299.5 802 l 1
 299.5 850.600585938 l 2
 299.479492188 851.918945312 299.463867188 853.234375 299.454101562 854.549804688 c 0
 296.748046875 1020.70410156 206.447265625 1101 150 1101 c 2
 100 1101 l 1
 100 1151 l 1
399.49609375 851.638671875 m 2
 400.310546875 802 l 1
 499 802 l 1
 499 1084.70996094 l 1
 448.920898438 1053.50292969 398.436523438 977.35546875 399.44921875 855.383789062 c 0
 399.46875 854.13671875 399.485351562 852.888671875 399.49609375 851.638671875 c 2
EndSplineSet
EndChar

StartChar: NameMe.262
Encoding: 262 -1 198
Width: 1500
VWidth: 0
Flags: W
HStem: 501 100<599 800> 801 100<100 296.24 401.59 499 599 800> 1101 100<100 216.64 599 800>
VStem: 299.5 100<501 801> 499 100<601 801 901 1084.71>
CounterMasks: 1 e0
LayerCount: 2
Back
SplineSet
750 551 m 29
 549 551 l 29
 549 1151 l 1053
750 851 m 5
 150 851 l 1029
349.5 851 m 21
 346.52734375 1032.10449219 448.5 1151 549 1151 c 13
 750 1151 l 1053
150 1151 m 21
 249 1151 348 1032.5 349.5 851 c 5
 349.5 551 l 1053
EndSplineSet
Fore
SplineSet
100 1151 m 1
 100 1201 l 1
 150 1201 l 2
 232.671875 1201 303.551757812 1147.64257812 348.409179688 1064.38378906 c 1
 384.200195312 1130.50585938 437.161132812 1177.69433594 499 1194.37695312 c 1
 499 1201 l 1
 549 1201 l 1
 599 1201 l 1
 750 1201 l 1
 800 1201 l 1
 800 1151 l 1
 800 1101 l 1
 750 1101 l 1
 599 1101 l 1
 599 901 l 1
 750 901 l 1
 800 901 l 1
 800 851 l 1
 800 801 l 1
 750 801 l 1
 599 801 l 1
 599 601 l 1
 750 601 l 1
 800 601 l 1
 800 551 l 1
 800 501 l 1
 750 501 l 1
 549 501 l 2
 518.735351562 501 499 529.540039062 499 551 c 2
 499 801 l 1
 399.5 801 l 1
 399.5 551 l 1
 399.5 501 l 1
 349.5 501 l 1
 299.5 501 l 1
 299.5 551 l 1
 299.5 801 l 1
 150 801 l 1
 100 801 l 1
 100 851 l 1
 100 901 l 1
 150 901 l 1
 296.240234375 901 l 1
 279.34765625 1035.69335938 200.90625 1101 150 1101 c 2
 100 1101 l 1
 100 1151 l 1
401.58984375 901 m 1
 499 901 l 1
 499 1084.70996094 l 1
 455.487304688 1057.59472656 411.66796875 996.55078125 401.58984375 901 c 1
EndSplineSet
EndChar

StartChar: NameMe.294
Encoding: 294 -1 199
Width: 1500
VWidth: 0
Flags: W
HStem: 501 1.67871G<299.5 399.5 722.753 766.128> 801 100<100 296.24 401.59 523.704> 1101 100<100 216.64 478.269 599>
VStem: 299.5 100<501 801>
LayerCount: 2
Back
SplineSet
750 1151 m 1
 550.5 851 l 25
 750 551 l 1025
550.5 851 m 1
 150 851 l 1025
349.5 851 m 17
 346.52734375 1032.10449219 448.5 1151 549 1151 c 1033
150 1151 m 17
 249 1151 348 1032.5 349.5 851 c 1
 349.5 551 l 1049
EndSplineSet
Fore
SplineSet
100 1151 m 1
 100 1201 l 1
 150 1201 l 2
 232.671875 1201 303.551757812 1147.64257812 348.409179688 1064.38378906 c 1
 393.525390625 1147.734375 465.92578125 1201 549 1201 c 2
 599 1201 l 1
 599 1151 l 1
 599 1101 l 1
 549 1101 l 2
 496.051757812 1101 415.709960938 1034.86425781 401.58984375 901 c 1
 523.704101562 901 l 1
 708.365234375 1178.68652344 l 1
 736.052734375 1220.32128906 l 1
 777.686523438 1192.63476562 l 1
 819.321289062 1164.94726562 l 1
 791.634765625 1123.31347656 l 1
 610.545898438 851 l 1
 791.634765625 578.686523438 l 1
 819.321289062 537.052734375 l 1
 777.686523438 509.365234375 l 1
 736.052734375 481.678710938 l 1
 708.365234375 523.313476562 l 1
 523.704101562 801 l 1
 399.5 801 l 1
 399.5 551 l 1
 399.5 501 l 1
 349.5 501 l 1
 299.5 501 l 1
 299.5 551 l 1
 299.5 801 l 1
 150 801 l 1
 100 801 l 1
 100 851 l 1
 100 901 l 1
 150 901 l 1
 296.240234375 901 l 1
 279.34765625 1035.69335938 200.90625 1101 150 1101 c 2
 100 1101 l 1
 100 1151 l 1
EndSplineSet
EndChar

StartChar: NameMe.326
Encoding: 326 -1 200
Width: 1500
VWidth: 0
Flags: W
HStem: 501 100<596.257 700> 801 100<100 296.24 401.69 497.281> 1101 100<100 219.702 598.821 700>
VStem: 299.5 100<501 801> 497.794 99.7061<601 801 901 1085.52> 700 100<601 1101>
CounterMasks: 1 e0
LayerCount: 2
Back
SplineSet
547.5 851 m 1053
547.5 851 m 5
 150 851 l 1029
349.5 851 m 21
 346.52734375 1032.10449219 448.5 1151 549 1151 c 13
 750 1151 l 29
 750 551 l 29
 546 551 l 29
 549 1136 l 1053
150 1151 m 21
 249 1151 348 1032.5 349.5 851 c 5
 349.5 551 l 1053
EndSplineSet
Fore
SplineSet
100 1151 m 1
 100 1201 l 1
 150 1201 l 2
 232.626953125 1201 303.474609375 1147.70019531 348.3359375 1064.51953125 c 1
 387.79296875 1137.0625 448.200195312 1186.41796875 518.610351562 1198.41113281 c 0
 528.618164062 1200.11523438 538.783203125 1201 549 1201 c 2
 750 1201 l 2
 780.264648438 1201 800 1172.45996094 800 1151 c 2
 800 551 l 2
 800 520.735351562 771.459960938 501 750 501 c 2
 546 501 l 2
 515.818359375 501 495.887695312 529.322265625 496.000976562 551.256835938 c 2
 497.28125 801 l 1
 399.5 801 l 1
 399.5 551 l 1
 399.5 501 l 1
 349.5 501 l 1
 299.5 501 l 1
 299.5 551 l 1
 299.5 801 l 1
 150 801 l 1
 100 801 l 1
 100 851 l 1
 100 901 l 1
 150 901 l 1
 296.240234375 901 l 1
 279.34765625 1035.69335938 200.90625 1101 150 1101 c 2
 100 1101 l 1
 100 1151 l 1
401.690429688 901 m 1
 497.5 901 l 1
 497.793945312 901 l 1
 498.740234375 1085.51855469 l 1
 455.34375 1058.89257812 411.916992188 994.92578125 401.690429688 901 c 1
597.282226562 801 m 1
 596.256835938 601 l 1
 700 601 l 1
 700 1101 l 1
 598.821289062 1101 l 1
 597.5 843.372070312 l 1
 597.5 801 l 1
 597.282226562 801 l 1
EndSplineSet
EndChar

StartChar: NameMe.196
Encoding: 196 -1 201
Width: 1500
VWidth: 0
Flags: W
HStem: 501 100<500 700> 801 100<200 400> 1101 100<200 400 500 700>
VStem: 100 100<501 801 901 1101> 400 100<601 801 901 1101> 700 100<601 1101>
CounterMasks: 1 fc
LayerCount: 2
Back
SplineSet
163.5 851 m 29
 435 851 l 1053
150 551 m 29
 150 1151 l 29
 450 1151 l 29
 450 551 l 29
 750 551 l 29
 750 1151 l 29
 450 1151 l 1053
EndSplineSet
Fore
SplineSet
500 1101 m 1
 500 601 l 1
 700 601 l 1
 700 1101 l 1
 500 1101 l 1
450 1201 m 1
 750 1201 l 2
 771.459960938 1201 800 1181.26464844 800 1151 c 2
 800 551 l 2
 800 529.540039062 780.264648438 501 750 501 c 2
 450 501 l 2
 428.540039062 501 400 520.735351562 400 551 c 2
 400 801 l 1
 200 801 l 1
 200 501 l 1
 100 501 l 1
 100 1151 l 2
 100 1181.26464844 128.540039062 1201 150 1201 c 2
 450 1201 l 1
400 901 m 1
 400 1101 l 1
 200 1101 l 1
 200 901 l 1
 400 901 l 1
EndSplineSet
EndChar

StartChar: NameMe.228
Encoding: 228 -1 202
Width: 1500
VWidth: 0
Flags: W
HStem: 501 21G<100 200 400 500 700 800> 801 100<200 400> 1101 100<200 400 500 700>
VStem: 100 100<501 801 901 1101> 400 100<501 801 901 1101> 700 100<501 1101>
CounterMasks: 1 1c
LayerCount: 2
Back
SplineSet
163.5 851 m 29
 435 851 l 1053
150 551 m 29
 150 1151 l 29
 450 1151 l 29
 450 551 l 1045
750 551 m 13
 750 1151 l 29
 450 1151 l 1053
EndSplineSet
Fore
SplineSet
750 501 m 1
 700 501 l 1
 700 551 l 1
 700 1101 l 1
 500 1101 l 1
 500 551 l 1
 500 501 l 1
 450 501 l 1
 400 501 l 1
 400 551 l 1
 400 801 l 1
 200 801 l 1
 200 551 l 1
 200 501 l 1
 150 501 l 1
 100 501 l 1
 100 551 l 1
 100 1151 l 2
 100 1181.26464844 128.540039062 1201 150 1201 c 2
 400 1201 l 1
 450 1201 l 1
 750 1201 l 2
 771.459960938 1201 800 1181.26464844 800 1151 c 2
 800 551 l 1
 800 501 l 1
 750 501 l 1
400 1101 m 1
 200 1101 l 1
 200 901 l 1
 400 901 l 1
 400 1101 l 1
EndSplineSet
EndChar

StartChar: NameMe.260
Encoding: 260 -1 203
Width: 1500
VWidth: 0
Flags: W
HStem: 501 100<500 700> 801 100<200 400 500 700> 1101 100<200 400 500 700>
VStem: 100 100<501 801 901 1101> 400 100<601 801 901 1101> 700 100<601 801 901 1101>
CounterMasks: 1 fc
LayerCount: 2
Back
SplineSet
163.5 851 m 5
 750 851 l 1053
450 1151 m 29
 750 1151 l 29
 750 551 l 29
 450 551 l 29
 450 1151 l 29
 150 1151 l 29
 150 551 l 1053
EndSplineSet
Fore
SplineSet
400 1201 m 1
 450 1201 l 1
 750 1201 l 2
 780.264648438 1201 800 1172.45996094 800 1151 c 2
 800 901 l 1
 800 851 l 1
 800 801 l 1
 800 551 l 2
 800 520.735351562 771.459960938 501 750 501 c 2
 450 501 l 2
 419.735351562 501 400 529.540039062 400 551 c 2
 400 801 l 1
 200 801 l 1
 200 501 l 1
 100 501 l 1
 100 1151 l 2
 100 1172.45996094 119.735351562 1201 150 1201 c 2
 400 1201 l 1
500 801 m 1
 500 601 l 1
 700 601 l 1
 700 801 l 1
 500 801 l 1
400 901 m 1
 400 1101 l 1
 200 1101 l 1
 200 901 l 1
 400 901 l 1
500 901 m 1
 700 901 l 1
 700 1101 l 1
 500 1101 l 1
 500 901 l 1
EndSplineSet
EndChar

StartChar: NameMe.138
Encoding: 138 -1 204
Width: 0
VWidth: 0
Flags: W
HStem: 150.011 99.9781<406.919 798.944> 379 20G<100 200>
VStem: 100 100<-100 -4.90839 122.231 399>
AnchorPoint: "Above" 0 500 mark 0
LayerCount: 2
Back
SplineSet
150 349 m 29
 150 -100 l 21
 194.350656703 174.156777133 413.260656272 207.041306865 750 200 c 1028
EndSplineSet
Fore
SplineSet
150 399 m 1
 200 399 l 1
 200 349 l 1
 200 122.230771454 l 1
 320.449512554 245.241595114 516.701654379 254.889258591 751.045284451 249.98907261 c 2
 801.034357061 248.943788159 l 1
 799.98907261 198.954715549 l 1
 798.943788159 148.965642939 l 1
 748.954715549 150.01092739 l 2
 408.114850171 157.137977224 237.013231506 124.781795295 199.358319807 -107.984752083 c 1
 100 -100 l 1
 100 349 l 1
 100 399 l 1
 150 399 l 1
EndSplineSet
EndChar

StartChar: NameMe.142
Encoding: 142 -1 206
Width: 0
VWidth: 345
Flags: W
HStem: 7.57324 84.8529<164.142 183.141 183.142 343.577 382.009 735.857> 372.427 20G<444.142 484.142>
VStem: 407.573 84.8535<187.821 335.858>
AnchorPoint: "Above" 0 500 mark 0
LayerCount: 2
Back
SplineSet
450 350 m 7
 450 181.239973451 399 50 169 50 c 1028
750 50 m 13
 150 50 l 1053
EndSplineSet
Fore
SplineSet
792.426757812 64.142578125 m 1
 735.857421875 7.57421875 l 1
 135.857421875 7.5732421875 l 1
 107.573242188 35.857421875 l 1
 164.141601562 92.42578125 l 1
 183.140655923 92.4258121729 l 1
 183.141601562 92.4267578125 l 1
 262.321289062 92.4267578125 320.034179688 107.842773438 362.365234375 135.33203125 c 1
 396.245117188 187.265625 407.573242188 257.716796875 407.573242188 335.858398438 c 1
 464.141601562 392.426757812 l 1
 492.426757812 364.142578125 l 1
 492.426757812 269.54296875 476.401367188 186.732421875 421.803710938 132.220703125 c 2
 382.009143664 92.4261358515 l 1
 509.386955151 92.4261358515 636.764766638 92.4267578125 764.142578125 92.4267578125 c 1
 792.426757812 64.142578125 l 1
EndSplineSet
EndChar

StartChar: NameMe.139
Encoding: 139 -1 207
Width: 0
VWidth: 345
Flags: W
HStem: 150 100<100 453.099> 380 20G<700 800>
VStem: 700 100<-100 0.872558 115.552 400>
AnchorPoint: "Above" 0 500 mark 0
LayerCount: 2
Back
SplineSet
150 200 m 23
 448.44921875 200 750 136.956054688 750 -100 c 12
 750 350 l 1053
EndSplineSet
Fore
SplineSet
100 200 m 1
 100 250 l 1
 150 250 l 2
 355.773703305 250 572.056086199 223.869373998 700 115.552498189 c 1
 700 350 l 1
 700 400 l 1
 750 400 l 1
 800 400 l 1
 800 350 l 1
 800 8 l 1
 800 -100 l 2
 799 -100 700 -101 700 -100 c 0
 700 -68.7784189936 693.805783933 -43.1066406809 682.917935773 -20.6041310771 c 0
 625.486162876 98.0932462415 402.577486087 150 150 150 c 2
 100 150 l 1
 100 200 l 1
EndSplineSet
EndChar

StartChar: NameMe.140
Encoding: 140 -1 208
Width: 0
VWidth: 345
Flags: W
HStem: 307.573 84.8525<284.643 735.857>
AnchorPoint: "Above" 0 500 mark 0
LayerCount: 2
Back
SplineSet
150 50 m 21
 201.32614244 116.235730587 247.214254742 209.291256134 250 350 c 13
 750 350 l 1053
EndSplineSet
Fore
SplineSet
135.857421875 7.5732421875 m 1
 107.573242188 35.857421875 l 1
 158.899414062 102.09375 204.787109375 195.149414062 207.573242188 335.857421875 c 1
 264.141601562 392.42578125 l 1
 764.142578125 392.426757812 l 1
 792.426757812 364.141601562 l 1
 735.857421875 307.573242188 l 1
 288.801757812 307.573242188 l 1
 276.540039062 198.0390625 236.603515625 121.15234375 192.42578125 64.1416015625 c 1
 135.857421875 7.5732421875 l 1
EndSplineSet
EndChar

StartChar: NameMe.141
Encoding: 141 -1 209
Width: 0
VWidth: 345
Flags: W
HStem: 306.574 84.8525<164.143 698.924>
AnchorPoint: "Above" 0 500 mark 0
LayerCount: 2
Back
SplineSet
150 349 m 29
 750 350 l 21
 716.080012864 248.695382465 714.593623094 148.63821349 750 50 c 1037
EndSplineSet
Fore
SplineSet
107.57421875 334.858398438 m 1
 164.142578125 391.426757812 l 1
 764.142578125 392.426757812 l 1
 792.426757812 364.141601562 l 1
 758.505859375 262.837890625 757.020507812 162.780273438 792.426757812 64.142578125 c 1
 735.857421875 7.57421875 l 1
 707.573242188 35.8583984375 l 1
 675.474609375 125.284179688 673.634765625 215.501953125 698.923828125 307.51171875 c 1
 135.858398438 306.57421875 l 1
 107.57421875 334.858398438 l 1
EndSplineSet
EndChar

StartChar: right_line
Encoding: 176 -1 210
Width: 1000
VWidth: 1000
Flags: W
HStem: 0 50<0 344.5>
LayerCount: 2
Fore
SplineSet
-15 50 m 1
 344.5 50 l 1
 439 175.5 l 1
 439 175.5 548.5 87 614.5 24 c 1
 610 6 577.86735413 -1.02467150319e-15 569.5 0 c 2
 0 0 l 1
 -15 50 l 1
EndSplineSet
EndChar

StartChar: NameMe.177
Encoding: 177 -1 211
Width: 1000
VWidth: 1000
Flags: W
HStem: 100 45<264 1197> 1090 42<250 284.26>
VStem: 150 100<145.048 1099.02> 1197 100<-35.9822 100 145 1093.82>
LayerCount: 2
Fore
SplineSet
1197 1144 m 5
 1351 1126 l 1
 1348 1105 1336 1090 1297 1084 c 5
 1297 -8 l 6
 1297 -23 1253.53658537 -47 1216 -47 c 6
 1197 -47 l 5
 1197 100 l 5
 264 100 l 5
 220 43 l 1
 94 121 l 1
 108 131 129 147 150 157 c 1
 150 1150 l 1
 308 1132 l 1
 305 1110 288 1096 250 1090 c 1
 250 145 l 5
 1197 145 l 5
 1197 1144 l 5
EndSplineSet
EndChar

StartChar: top_right_lone
Encoding: 178 -1 212
Width: 1000
VWidth: 1000
Flags: W
HStem: 0 90<0 92.1667> 30 42<100 134.26>
VStem: 0 100<0 39.0234>
LayerCount: 2
Fore
SplineSet
0 0 m 1xa0
 0 90 l 1xa0
 158 72 l 1
 155 50 138 36 100 30 c 1x60
 100 0 l 1
 0 0 l 1xa0
EndSplineSet
EndChar

StartChar: bottom_left
Encoding: 179 -1 213
Width: 1000
VWidth: 1000
Flags: W
HStem: -50 50<10 23> 5 20G<-100 0>
VStem: -156 179
LayerCount: 2
Fore
SplineSet
23 0 m 1
 23 -50 l 1
 10 -50 l 1
 -30 -102 l 1
 -156 -24 l 1
 -142 -14 -121 2 -100 12 c 1
 -100 25 l 1
 0 25 l 1
 0 0 l 1
 23 0 l 1
EndSplineSet
EndChar

StartChar: bottom_right
Encoding: 180 -1 214
Width: 1000
VWidth: 1000
Flags: W
HStem: -50 50<-22 0>
VStem: -22 122<-50 0> 0 100<-184.085 -50 0 28>
LayerCount: 2
Fore
SplineSet
100 28 m 1xa0
 100 -158 l 2
 100 -167.126101594 56.5365853659 -197 19 -197 c 2
 0 -197 l 1
 0 -50 l 1xa0
 -22 -50 l 1
 -22 0 l 1xc0
 0 0 l 1
 0 28 l 1
 100 28 l 1xa0
EndSplineSet
EndChar

StartChar: NameMe.181.1
Encoding: 181 -1 215
Width: 1000
VWidth: 1000
Flags: HW
HStem: -72.25 43.5<61.25 910.25> 793.25 45<70.25 892.25>
VStem: -37.75 99<-225.639 -72.25 -28.75 793.25> 910.25 99<-208.29 -72.25 -28.75 773.935>
LayerCount: 2
Fore
SplineSet
61.25 -28.75 m 1
 910.25 -28.75 l 1
 910.25 793.25 l 5
 61.25 793.25 l 1
 61.25 -28.75 l 1
950.75 908.75 m 5
 1088.75 802.25 l 5
 1075.25 785.75 1045.25 772.25 1009.25 766.25 c 5
 1009.25 -187.75 l 2
 1006.25 -196.75 958.25 -220.75 922.25 -220.75 c 2
 910.25 -220.75 l 1
 910.25 -72.25 l 1
 61.25 -72.25 l 1
 61.25 -199.75 l 2
 61.25 -211.75 23.75 -235.75 -19.75 -235.75 c 2
 -37.75 -235.75 l 1
 -37.75 889.25 l 1
 70.25 838.25 l 1
 892.25 838.25 l 5
 950.75 908.75 l 5
EndSplineSet
EndChar

StartChar: top_right
Encoding: 182 -1 216
Width: 1000
VWidth: 1000
Flags: W
HStem: 0 45<-30 -18>
VStem: 0 100<-55 -18.7217>
LayerCount: 2
Fore
SplineSet
0 0 m 1
 -30 0 l 0
 -30 45 l 0
 -18 45 l 1
 41 116 l 1
 179 9 l 1
 165.175 -7 135.55 -21 100 -27 c 1
 100 -55 l 0
 0 -55 l 0
 0 0 l 1
EndSplineSet
EndChar

StartChar: NameMe.201
Encoding: 201 -1 217
Width: 1300
VWidth: 1000
Flags: HW
LayerCount: 2
Fore
SplineSet
456.284179688 1203.27539062 m 1
 539 1173 l 1
 537.506487165 1162.26171875 532.528111049 1157.65959821 518.090820312 1156.89257812 c 1
 495.238988797 997.931291601 454.849705189 856.054629329 377.259765625 745.375976562 c 1
 436.004910065 679.481742743 508.191740098 633.642275738 591.331054688 604.276367188 c 1
 589.836914062 595.072265625 l 1
 569.020853936 595.072265625 552.252361056 572.040039062 544.157226562 535.188476562 c 1
 465.498773163 570.470496809 399.286277579 624.160527619 346.017578125 698.559570312 c 1
 291.752878289 627.228624132 221.557257401 570.470666956 128.4609375 532.887695312 c 1
 104 572 l 1
 196.422959008 612.176844343 267.068094342 667.593181369 321.247070312 736.170898438 c 1
 253.87495611 836.672251674 208.960213308 973.383651297 188 1150 c 1
 216.833007812 1174.12890625 l 1
 238.194265945 1006.58765625 283.189256479 877.191958705 350 781.454101562 c 1
 409.590293214 896.836834272 440.719550863 1040.6906309 456.284179688 1203.27539062 c 1
EndSplineSet
EndChar

StartChar: ebu.iso
Encoding: 202 -1 218
Width: 900
VWidth: 800
Flags: HW
HStem: 825 50<200 682>
VStem: 100 100<501.341 825 875 1170.28>
LayerCount: 2
Fore
SplineSet
682 875 m 1
 727 921 l 1
 727 921 779 881 812 850 c 1
 809 832.8125 800 825 786 825 c 2
 200 825 l 1
 200 534 l 2
 200 516.592773438 154.038085938 487 113 487 c 2
 100 487 l 1
 100 1212 l 1
 236 1180 l 1
 233 1166 226 1156 200 1152 c 1
 200 875 l 1
 682 875 l 1
EndSplineSet
Ligature2: "sv subtable" slakabu ebu
EndChar

StartChar: obu.iso
Encoding: 203 -1 219
Width: 900
VWidth: 800
Flags: HW
HStem: 825 50<132 700>
VStem: 700 100<515.906 825 875 1167.36>
LayerCount: 2
Fore
SplineSet
800 537 m 1
 800 537 754.946289062 500 713 500 c 2
 700 500 l 1
 700 825 l 1
 132 825 l 1
 124 875 l 1
 700 875 l 1
 700 1211 l 1
 837 1179 l 1
 834 1164 826 1153 800 1149 c 1
 800 537 l 1
EndSplineSet
Ligature2: "sv subtable" slakabu obu
EndChar

StartChar: ibu.iso
Encoding: 204 -1 220
Width: 900
VWidth: 800
Flags: HW
HStem: 1125 50<200 692>
VStem: 100 100<593.725 1125>
LayerCount: 2
Fore
SplineSet
692 1175 m 1
 742 1210 l 1
 742 1210 799 1175.71386719 835 1150 c 1
 833 1132.8125 822 1125 808 1125 c 2
 200 1125 l 1
 200 831.299804688 l 2
 200 708.049804688 190.891601562 543.4765625 57 428.775390625 c 1
 43 435.899414062 l 1
 95.0673828125 553.451171875 100 697.362304688 100 831.299804688 c 2
 100 1210 l 1
 211 1175 l 1
 692 1175 l 1
EndSplineSet
Ligature2: "sv subtable" slakabu ibu
EndChar

StartChar: ubu.iso
Encoding: 205 -1 221
Width: 900
VWidth: 800
Flags: HW
LayerCount: 2
Fore
SplineSet
743 1217 m 1
 841 1144 l 1
 835 1136 819 1118 800 1114 c 1
 800 514 l 6
 800 514 746.912109375 489 711 489 c 6
 700 489 l 5
 700 1125 l 1
 133 1125 l 1
 124 1175 l 1
 690 1175 l 1
 743 1217 l 1
EndSplineSet
Ligature2: "sv subtable" slakabu ubu
EndChar

StartChar: abu.iso
Encoding: 206 -1 222
Width: 900
VWidth: 800
Flags: HW
LayerCount: 2
Fore
SplineSet
688 575 m 1
 742 633 l 1
 742 633 802 586 838 552 c 1
 835 534 826 525 812 525 c 0
 98 525 l 1
 88 575 l 1
 400 575 l 1
 400 1215 l 1
 537 1181 l 1
 534 1166 526 1155 500 1151 c 1
 500 575 l 1
 688 575 l 1
EndSplineSet
Ligature2: "sv subtable" slakabu abu
EndChar

StartChar: ybu.iso
Encoding: 207 -1 223
Width: 900
VWidth: 800
Flags: HW
LayerCount: 2
Fore
SplineSet
688 875 m 1
 742 931 l 1
 742 931 802 884 838 850 c 1
 835 833.333007812 826 825 812 825 c 2
 500 825 l 1
 500 526 l 2
 500 515 454.946289062 499 413 499 c 2
 400 499 l 1
 400 825 l 1
 98 825 l 1
 83 875 l 1
 400 875 l 1
 400 1211 l 1
 537 1179 l 1
 534 1164 526 1153 500 1149 c 1
 500 875 l 1
 688 875 l 1
EndSplineSet
Ligature2: "sv subtable" slakabu ybu
EndChar

StartChar: eibu.iso
Encoding: 218 -1 224
Width: 900
VWidth: 800
Flags: HW
HStem: 825 50<190 369> 1125 50<202 685>
VStem: 90 100<511.789 825 875 1125>
LayerCount: 2
Fore
SplineSet
91 478 m 1
 90.775390625 491.391601562 90.375 510.521484375 90 522 c 1
 90 1234 l 1
 202 1175 l 1
 685 1175 l 1
 733 1224 l 1
 733 1224 788 1182 822 1150 c 1
 819 1132.8125 809 1125 796 1125 c 2
 190 1125 l 1
 190 875 l 1
 369 875 l 1
 432 949 l 1
 432 949 505 890 549 848 c 1
 546 830.75 523.698242188 825 519 825 c 2
 190 825 l 1
 190 524 l 1
 187.623046875 514.041015625 145.2734375 478.52734375 91 478 c 1
EndSplineSet
Ligature2: "sv subtable" slakabu eibu
EndChar

StartChar: oibu.iso
Encoding: 219 -1 225
Width: 900
VWidth: 800
Flags: HW
HStem: 825 50<309 700> 1125 50<128 690>
VStem: 700 100<495.508 825 875 1124.71>
LayerCount: 2
Fore
SplineSet
747 1225 m 1
 842 1141 l 1
 835.853515625 1130.05273438 819.463867188 1120.47363281 800 1115 c 1
 800 509 l 2
 800 507.880859375 746.912109375 484 711 484 c 2
 700 484 l 1
 700 825 l 1
 309 825 l 1
 300 875 l 1
 700 875 l 1
 700 1125 l 1
 128 1125 l 1
 119 1175 l 1
 690 1175 l 1
 747 1225 l 1
EndSplineSet
Ligature2: "sv subtable" slakabu oibu
EndChar

StartChar: aibu.iso
Encoding: 220 -1 226
Width: 900
VWidth: 800
Flags: HW
HStem: 825 50<200 400 500 688>
VStem: 100 100<495 825> 400 100<875 1164.36>
LayerCount: 2
Fore
SplineSet
688 875 m 1
 742 933 l 1
 742 933 802 886 838 852 c 1
 835 834 826 825 812 825 c 2
 200 825 l 1
 200 495 l 1
 200 495 159.384765625 469 112 469 c 2
 100 469 l 1
 100 910 l 1
 207 875 l 1
 400 875 l 1
 400 1210 l 1
 537 1176 l 1
 534 1161 526 1150 500 1146 c 1
 500 875 l 1
 688 875 l 1
EndSplineSet
Ligature2: "sv subtable" slakabu aibu
EndChar

StartChar: aubu.iso
Encoding: 221 -1 227
Width: 900
VWidth: 800
Flags: HW
HStem: 825 50<98 400 500 688>
VStem: 400 100<875 1164.36> 700 100<500 824.971>
LayerCount: 2
Fore
SplineSet
742 910 m 1
 841 846 l 1
 835 832.526367188 819 820.737304688 800 814 c 1
 800 500 l 1
 800 500 746.912109375 475 711 475 c 2
 700 475 l 1
 700 825 l 1
 652 825 l 1
 98 825 l 1
 88 875 l 1
 400 875 l 1
 400 1210 l 1
 537 1176 l 1
 534 1161 526 1150 500 1146 c 1
 500 875 l 1
 643 875 l 1
 688 875 l 1
 742 910 l 1
EndSplineSet
Ligature2: "sv subtable" slakabu aubu
EndChar
